<svg xmlns="http://www.w3.org/2000/svg" width="76" height="76" viewBox="0 0 76 76" fill="none">
<path d="M47.1732 22.4848V21.9035H46.592H39.2144H38.6331V22.4848V35.7465V37.0395L39.6002 36.1813L42.8745 33.2756L46.2085 36.2025L47.1732 37.0494V35.7657V22.4848ZM37.3364 22.4592V21.8779H36.7552H29.3776H28.7962L28.7963 22.4593L28.8025 47.0513L28.8026 47.6324H29.3837H49.4424C51.2451 47.6324 52.7064 46.1711 52.7064 44.3684V24.2477C52.7064 22.9389 51.6454 21.8779 50.3366 21.8779H49.0511H48.4699V22.4592V38.4775H46.8344L43.2648 35.3436L42.8793 35.0051L42.4955 35.3457L38.9661 38.4775H37.3364V22.4592ZM26.6623 21.8779V21.8779L24.4592 24.6815H23.8779V24.6823V47.657V48.6588L24.7477 48.1616C25.354 47.815 26.0403 47.6326 26.7388 47.6324C26.7388 47.6324 26.7389 47.6324 26.7389 47.6324H26.9242H27.5056L27.5055 47.051L27.4997 22.4591L27.4995 21.8779H26.9184H26.6623ZM51.9016 48.9291H26.7391C25.1636 48.9291 23.8779 50.2888 23.8779 51.8696C23.8779 52.6882 24.1969 53.4604 24.6878 54.0307C25.1763 54.5981 25.8771 55.01 26.6623 55.01H53.3546C53.7128 55.01 54.0031 55.3003 54.0031 55.6585C54.0031 56.0166 53.7128 56.3069 53.3546 56.3069H26.6623C24.4956 56.3069 22.5813 54.3103 22.5813 51.8699V51.8698V51.8697V51.8697V51.8696V51.8695V51.8695V51.8694V51.8693V51.8692V51.8692V51.8691V51.869V51.869V51.8689V51.8688V51.8688V51.8687V51.8686V51.8686V51.8685V51.8684V51.8684V51.8683V51.8682V51.8681V51.8681V51.868V51.8679V51.8679V51.8678V51.8677V51.8677V51.8676V51.8675V51.8675V51.8674V51.8673V51.8673V51.8672V51.8671V51.8671V51.867V51.8669V51.8668V51.8668V51.8667V51.8666V51.8666V51.8665V51.8664V51.8664V51.8663V51.8662V51.8662V51.8661V51.866V51.866V51.8659V51.8658V51.8657V51.8657V51.8656V51.8655V51.8655V51.8654V51.8653V51.8653V51.8652V51.8651V51.8651V51.865V51.8649V51.8649V51.8648V51.8647V51.8647V51.8646V51.8645V51.8644V51.8644V51.8643V51.8642V51.8642V51.8641V51.864V51.864V51.8639V51.8638V51.8638V51.8637V51.8636V51.8636V51.8635V51.8634V51.8634V51.8633V51.8632V51.8631V51.8631V51.863V51.8629V51.8629V51.8628V51.8627V51.8627V51.8626V51.8625V51.8625V51.8624V51.8623V51.8623V51.8622V51.8621V51.8621V51.862V51.8619V51.8619V51.8618V51.8617V51.8616V51.8616V51.8615V51.8614V51.8614V51.8613V51.8612V51.8612V51.8611V51.861V51.861V51.8609V51.8608V51.8608V51.8607V51.8606V51.8606V51.8605V51.8604V51.8604V51.8603V51.8602V51.8601V51.8601V51.86V51.8599V51.8599V51.8598V51.8597V51.8597V51.8596V51.8595V51.8595V51.8594V51.8593V51.8593V51.8592V51.8591V51.8591V51.859V51.8589V51.8589V51.8588V51.8587V51.8587V51.8586V51.8585V51.8584V51.8584V51.8583V51.8582V51.8582V51.8581V51.858V51.858V51.8579V51.8578V51.8578V51.8577V51.8576V51.8576V51.8575V51.8574V51.8574V51.8573V51.8572V51.8572V51.8571V51.857V51.857V51.8569V51.8568V51.8567V51.8567V51.8566V51.8565V51.8565V51.8564V51.8563V51.8563V51.8562V51.8561V51.8561V51.856V51.8559V51.8559V51.8558V51.8557V51.8557V51.8556V51.8555V51.8555V51.8554V51.8553V51.8553V51.8552V51.8551V51.8551V51.855V51.8549V51.8548V51.8548V51.8547V51.8546V51.8546V51.8545V51.8544V51.8544V51.8543V51.8542V51.8542V51.8541V51.854V51.854V51.8539V51.8538V51.8538V51.8537V51.8536V51.8536V51.8535V51.8534V51.8534V51.8533V51.8532V51.8532V51.8531V51.853V51.8529V51.8529V51.8528V51.8527V51.8527V51.8526V51.8525V51.8525V51.8524V51.8523V51.8523V51.8522V51.8521V51.8521V51.852V51.8519V51.8519V51.8518V51.8517V51.8517V51.8516V51.8515V51.8515V51.8514V51.8513V51.8513V51.8512V51.8511V51.8511V51.851V51.8509V51.8508V51.8508V51.8507V51.8506V51.8506V51.8505V51.8504V51.8504V51.8503V51.8502V51.8502V51.8501V51.85V51.85V51.8499V51.8498V51.8498V51.8497V51.8496V51.8496V51.8495V51.8494V51.8494V51.8493V51.8492V51.8492V51.8491V51.849V51.849V51.8489V51.8488V51.8487V51.8487V51.8486V51.8485V51.8485V51.8484V51.8483V51.8483V51.8482V51.8481V51.8481V51.848V51.8479V51.8479V51.8478V51.8477V51.8477V51.8476V51.8475V51.8475V51.8474V51.8473V51.8473V51.8472V51.8471V51.8471V51.847V51.8469V51.8469V51.8468V51.8467V51.8466V51.8466V51.8465V51.8464V51.8464V51.8463V51.8462V51.8462V51.8461V51.846V51.846V51.8459V51.8458V51.8458V51.8457V51.8456V51.8456V51.8455V51.8454V51.8454V51.8453V51.8452V51.8452V51.8451V51.845V51.845V51.8449V51.8448V51.8448V51.8447V51.8446V51.8446V51.8445V51.8444V51.8443V51.8443V51.8442V51.8441V51.8441V51.844V51.8439V51.8439V51.8438V51.8437V51.8437V51.8436V51.8435V51.8435V51.8434V51.8433V51.8433V51.8432V51.8431V51.8431V51.843V51.8429V51.8429V51.8428V51.8427V51.8427V51.8426V51.8425V51.8425V51.8424V51.8423V51.8422V51.8422V51.8421V51.842V51.842V51.8419V51.8418V51.8418V51.8417V51.8416V51.8416V51.8415V51.8414V51.8414V51.8413V51.8412V51.8412V51.8411V51.841V51.841V51.8409V51.8408V51.8408V51.8407V51.8406V51.8406V51.8405V51.8404V51.8404V51.8403V51.8402V51.8401V51.8401V51.84V51.8399V51.8399V51.8398V51.8397V51.8397V51.8396V51.8395V51.8395V51.8394V51.8393V51.8393V51.8392V51.8391V51.8391V51.839V51.8389V51.8389V51.8388V51.8387V51.8387V51.8386V51.8385V51.8385V51.8384V51.8383V51.8382V51.8382V51.8381V51.838V51.838V51.8379V51.8378V51.8378V51.8377V51.8376V51.8376V51.8375V51.8374V51.8374V51.8373V51.8372V51.8372V51.8371V51.837V51.837V51.8369V51.8368V51.8368V51.8367V51.8366V51.8366V51.8365V51.8364V51.8363V51.8363V51.8362V51.8361V51.8361V51.836V51.8359V51.8359V51.8358V51.8357V51.8357V51.8356V51.8355V51.8355V51.8354V51.8353V51.8353V51.8352V51.8351V51.8351V24.6632C22.585 23.5818 23.0162 22.5457 23.7809 21.7809C24.5457 21.0162 25.5818 20.585 26.6632 20.5813H51.0073C52.6618 20.5813 54.0031 21.9225 54.0031 23.577V46.8276C54.0031 47.9882 53.0622 48.9291 51.9016 48.9291Z" fill="#0080FF" stroke="#0080FF" stroke-width="1.16253"/>
</svg>
