<svg width="39" height="39" viewBox="0 0 39 39" fill="none" xmlns="http://www.w3.org/2000/svg">
<path d="M34.7575 14.2115L33.3476 12.8016L34.3313 11.7646C34.5949 11.5009 34.7268 11.2051 34.7268 10.8772C34.7268 10.5493 34.5949 10.2536 34.3313 9.98987L29.1936 4.8522C28.9299 4.58852 28.6341 4.45668 28.3062 4.45668C27.9783 4.45668 27.6826 4.58852 27.4189 4.8522L26.3819 5.83588L24.9207 4.37471L26.0643 3.17995C26.6654 2.57881 27.4025 2.28644 28.2755 2.30284C29.1471 2.3206 29.8835 2.63005 30.4847 3.23118L35.9523 8.69879C36.5534 9.29993 36.854 10.0281 36.854 10.8834C36.854 11.7386 36.5534 12.4668 35.9523 13.068L34.7575 14.2115ZM13.1207 35.8995C12.5196 36.5007 11.7914 36.8013 10.9361 36.8013C10.0809 36.8013 9.35266 36.5007 8.75153 35.8995L3.44376 30.5918C2.8153 29.9633 2.50107 29.1818 2.50107 28.2474C2.50107 27.3129 2.8153 26.5321 3.44376 25.905L4.42744 24.9192L5.88862 26.3804L4.89264 27.3661C4.63033 27.6298 4.49917 27.9256 4.49917 28.2535C4.49917 28.5814 4.63033 28.8772 4.89264 29.1409L10.0426 34.2908C10.3063 34.5531 10.6021 34.6843 10.93 34.6843C11.2579 34.6843 11.5536 34.5531 11.8173 34.2908L12.801 33.2948L14.2642 34.756L13.1207 35.8995ZM33.0668 21.9559L35.3969 19.6258C35.6592 19.3635 35.7904 19.0616 35.7904 18.72C35.7904 18.3785 35.6592 18.0765 35.3969 17.8142L21.3692 3.78655C21.1069 3.52424 20.805 3.39308 20.4634 3.39308C20.1219 3.39308 19.82 3.52424 19.5576 3.78655L17.2276 6.11664C16.9652 6.37895 16.8341 6.67474 16.8341 7.004C16.8341 7.33189 16.9652 7.62699 17.2276 7.88931L31.2941 21.9559C31.5565 22.2182 31.8516 22.3494 32.1795 22.3494C32.5074 22.3494 32.8031 22.2182 33.0668 21.9559ZM19.6273 35.3954L21.9574 33.053C22.2197 32.7907 22.3509 32.4956 22.3509 32.1677C22.3509 31.8398 22.2197 31.544 21.9574 31.2804L7.90311 17.2261C7.64079 16.9637 7.345 16.8326 7.01575 16.8326C6.68785 16.8326 6.39275 16.9637 6.13044 17.2261L3.78805 19.5561C3.52574 19.8185 3.39458 20.1204 3.39458 20.4619C3.39458 20.8035 3.52574 21.1054 3.78805 21.3677L17.8157 35.3954C18.078 35.6577 18.38 35.7889 18.7215 35.7889C19.0631 35.7889 19.365 35.6577 19.6273 35.3954ZM18.1784 24.5872L24.601 18.1769L21.0065 14.5824L14.5962 21.005L18.1784 24.5872ZM21.0516 36.8443C20.4231 37.4727 19.6464 37.787 18.7215 37.787C17.7966 37.787 17.0199 37.4727 16.3914 36.8443L2.33918 22.792C1.71071 22.1636 1.39648 21.3869 1.39648 20.4619C1.39648 19.537 1.71071 18.7603 2.33918 18.1319L4.66721 15.7649C5.29568 15.1364 6.07715 14.8222 7.01165 14.8222C7.94614 14.8222 8.72694 15.1364 9.35403 15.7649L13.133 19.5438L19.5576 13.1192L15.7766 9.35253C15.1482 8.72407 14.8339 7.94122 14.8339 7.004C14.8339 6.0654 15.1482 5.28256 15.7766 4.65547L18.1457 2.28644C18.7741 1.65798 19.5556 1.34375 20.4901 1.34375C21.4246 1.34375 22.2054 1.65798 22.8325 2.28644L36.897 16.351C37.5255 16.9795 37.8397 17.7609 37.8397 18.6954C37.8397 19.6299 37.5255 20.4107 36.897 21.0378L34.528 23.4068C33.8995 24.0353 33.1167 24.3495 32.1795 24.3495C31.2422 24.3495 30.4594 24.0353 29.8309 23.4068L26.0643 19.6258L19.6396 26.0505L23.4186 29.8294C24.047 30.4579 24.3613 31.2387 24.3613 32.1718C24.3613 33.1049 24.047 33.8864 23.4186 34.5162L21.0516 36.8443Z" fill="#0080FF" stroke="#0080FF" stroke-width="0.894253"/>
</svg>
