<svg xmlns="http://www.w3.org/2000/svg" width="73" height="70" viewBox="0 0 76 76" fill="none">
  <path fill-rule="evenodd" clip-rule="evenodd" d="M45.0629 31.1757C44.4535 30.801 43.9599 30.2648 43.6367 29.6266C43.3135 28.9885 43.1734 28.2732 43.2319 27.5602L39.3443 26.8773L39.6794 24.9688L43.882 25.707C44.2366 25.181 44.7151 24.7503 45.2752 24.4526C45.8354 24.155 46.4601 23.9996 47.0944 24H50.3737C50.7031 24 50.9695 24.2664 50.9695 24.5958V31.1544C50.9695 31.4838 50.7022 31.7502 50.3737 31.7502H50.0008V39.7426C51.5253 39.3058 53.1586 39.4603 54.5741 40.1753C55.9897 40.8902 57.0834 42.113 57.6366 43.5993C57.9389 44.413 57.6153 45.1561 57.0602 45.5988C57.1081 46.885 56.6889 48.145 55.88 49.1462C55.0712 50.1473 53.9274 50.8219 52.6599 51.0453C51.3923 51.2688 50.0868 51.0259 48.9844 50.3617C47.882 49.6975 47.0572 48.6567 46.6624 47.4317C46.1383 47.2554 45.6829 46.8602 45.5105 46.2818H34.48C34.3611 47.6072 33.7506 48.8401 32.7685 49.7381C31.7864 50.636 30.5038 51.134 29.1731 51.134C27.8424 51.134 26.5598 50.636 25.5777 49.7381C24.5956 48.8401 23.9851 47.6072 23.8662 46.2818H19.4553C19.3972 46.2835 19.3393 46.2737 19.2849 46.253C19.2306 46.2323 19.1808 46.201 19.1385 46.1611C19.0962 46.1211 19.0622 46.0733 19.0385 46.0202C19.0147 45.9671 19.0016 45.9098 19 45.8517C19 42.4261 20.9637 39.4355 23.8826 37.8341C23.8569 37.746 23.8439 37.6546 23.8439 37.5628V34.6565C23.8439 33.8857 24.1501 33.1465 24.6951 32.6014C25.2402 32.0564 25.9794 31.7502 26.7502 31.7502H35.4692C36.24 31.7502 36.9792 32.0564 37.5242 32.6014C38.0693 33.1465 38.3755 33.8857 38.3755 34.6565V37.5628C38.3755 37.8198 38.2734 38.0662 38.0917 38.2479C37.9101 38.4295 37.6636 38.5316 37.4067 38.5316V39.5004H43.4519L45.0629 31.1757ZM45.1569 27.8751C45.1569 27.3612 45.361 26.8684 45.7244 26.505C46.0878 26.1417 46.5806 25.9375 47.0944 25.9375H49.032V29.8126H47.0944C46.5806 29.8126 46.0878 29.6085 45.7244 29.2451C45.361 28.8818 45.1569 28.389 45.1569 27.8751ZM43.076 41.4379H37.4067V44.3443H42.5141L43.076 41.4379ZM44.4875 44.3443H45.6074C45.9573 42.8667 46.8295 41.5655 48.0632 40.6804V31.7502H46.9249L44.4875 44.3443ZM48.7016 47.3145C49.0285 47.9679 49.5577 48.4983 50.2103 48.8268C50.8629 49.1552 51.6042 49.2641 52.3237 49.1373C53.0433 49.0105 53.7026 48.6547 54.2036 48.1229C54.7046 47.5911 55.0205 46.9117 55.1043 46.1859L48.7016 47.3145ZM25.7814 34.6565C25.7814 34.3996 25.8835 34.1532 26.0652 33.9715C26.2468 33.7898 26.4933 33.6877 26.7502 33.6877H35.4692C35.7261 33.6877 35.9725 33.7898 36.1542 33.9715C36.3359 34.1532 36.4379 34.3996 36.4379 34.6565V36.5941H25.7814V34.6565ZM21.1061 44.3443C21.8424 41.0843 24.9221 38.5316 28.7711 38.5316H35.4692V44.3133C35.4378 44.3353 35.3999 44.3462 35.3616 44.3443H21.1061ZM32.1937 46.3041C32.3158 46.308 32.4253 46.3118 32.5231 46.3167C32.3996 47.1168 31.9938 47.8463 31.3792 48.3733C30.7646 48.9002 29.9817 49.1899 29.1721 49.1899C28.3625 49.1899 27.5797 48.9002 26.9651 48.3733C26.3505 47.8463 25.9447 47.1168 25.8211 46.3167C25.919 46.3118 26.0285 46.307 26.1505 46.3041C26.8635 46.2818 27.8255 46.2818 29.1721 46.2818C30.5178 46.2818 31.4807 46.2818 32.1947 46.3041M54.2362 42.2255C53.598 41.7785 52.8516 41.5107 52.0747 41.4501C51.2978 41.3894 50.5189 41.5381 49.819 41.8806C49.1191 42.2232 48.5238 42.747 48.095 43.3977C47.6663 44.0484 47.4198 44.8021 47.3812 45.5804L55.7533 44.104C55.4347 43.3471 54.9089 42.6966 54.2362 42.2255Z" fill="#FF3679"/>
</svg>