<svg xmlns="http://www.w3.org/2000/svg" width="76" height="76" viewBox="0 0 76 76" fill="none">
  <path fill-rule="evenodd" clip-rule="evenodd" d="M36.5204 39.9966L25.1238 18.5606C25.0583 18.4374 25.0178 18.3026 25.0044 18.1638C24.991 18.025 25.0051 17.8849 25.0459 17.7515C25.1283 17.4821 25.3142 17.2565 25.5629 17.1243C25.8116 16.9921 26.1026 16.9641 26.372 17.0464C26.5054 17.0872 26.6294 17.1538 26.737 17.2425C26.8446 17.3312 26.9337 17.4403 26.9992 17.5634L38.3968 38.9994L40.0131 38.1393C40.5057 37.8774 41.0451 37.7151 41.6004 37.6617C42.1557 37.6083 42.7161 37.6648 43.2496 37.828C43.7831 37.9912 44.2792 38.2579 44.7096 38.6129C45.14 38.9678 45.4963 39.4041 45.7581 39.8968L46.4462 41.1902L52.0498 49.3929C52.9518 50.7132 52.5059 52.5243 51.0941 53.275L41.2556 58.5059C39.8439 59.2565 38.0931 58.6134 37.5029 57.1274L33.8359 47.8941L33.1488 46.6007C32.8869 46.1082 32.7245 45.5688 32.671 45.0136C32.6175 44.4583 32.674 43.8979 32.8371 43.3644C33.0002 42.8309 33.2668 42.3348 33.6216 41.9043C33.9765 41.4739 34.4126 41.1176 34.9052 40.8557L36.5204 39.9966ZM35.9013 42.731L41.0092 40.0157C41.2554 39.8847 41.5251 39.8036 41.8027 39.7768C42.0804 39.7501 42.3606 39.7783 42.6273 39.8598C42.8941 39.9414 43.1421 40.0747 43.3573 40.2521C43.5726 40.4295 43.7507 40.6476 43.8817 40.8939L44.5698 42.1863L35.7102 46.897L35.0231 45.6036C34.8921 45.3573 34.811 45.0876 34.7842 44.81C34.7575 44.5323 34.7857 44.2521 34.8672 43.9854C34.9488 43.7187 35.0821 43.4706 35.2595 43.2554C35.4369 43.0401 35.655 42.862 35.9013 42.731ZM36.7827 49.5614L39.7062 56.9237L42.3121 55.5825L40.3263 51.7163C40.1523 51.3775 40.2812 50.9617 40.6164 50.7808C40.9614 50.5947 41.3921 50.7282 41.5712 51.0769L43.5302 54.8912L50.6472 51.1065L46.1786 44.565L36.7827 49.5614Z" fill="#0080FF" stroke="#0080FF" stroke-width="1.16253"/>
  <path d="M28.7538 50.2205C28.861 50.1313 28.9847 50.064 29.1179 50.0226C29.251 49.9811 29.3911 49.9663 29.53 49.979C29.6689 49.9917 29.8039 50.0316 29.9274 50.0964C30.0508 50.1613 30.1603 50.2498 30.2496 50.357C30.3388 50.4642 30.4061 50.5879 30.4475 50.721C30.489 50.8542 30.5038 50.9942 30.4911 51.1331C30.4784 51.272 30.4385 51.4071 30.3737 51.5305C30.3088 51.654 30.2203 51.7635 30.1131 51.8527L30.112 51.8538L30.1099 51.8559L30.1067 51.858L30.0961 51.8665L30.0643 51.8931L29.9549 51.977C29.8625 52.046 29.7319 52.1405 29.5652 52.2531C29.2306 52.4761 28.7475 52.767 28.1379 53.058C26.5534 53.8183 24.8194 54.2162 23.0619 54.2229C22.7803 54.2229 22.5102 54.1111 22.311 53.9119C22.1119 53.7128 22 53.4427 22 53.161C22 52.8794 22.1119 52.6093 22.311 52.4101C22.5102 52.211 22.7803 52.0991 23.0619 52.0991C24.5035 52.0922 25.9254 51.7646 27.2247 51.1402C27.627 50.9496 28.0152 50.7306 28.3864 50.485C28.5086 50.4042 28.628 50.3192 28.7443 50.2301L28.7549 50.2195L28.7538 50.2205ZM32.1467 57.2303C32.381 57.074 32.5437 56.831 32.5988 56.5548C32.654 56.2786 32.5972 55.9917 32.4409 55.7574C32.2845 55.5231 32.0415 55.3605 31.7653 55.3053C31.4891 55.2501 31.2023 55.307 30.968 55.4633L30.9658 55.4654L30.9446 55.4781L30.8533 55.5365C30.3004 55.8738 29.7265 56.1753 29.1351 56.4392C27.9988 56.9425 26.5652 57.4087 25.1858 57.4087C24.9041 57.4087 24.634 57.5206 24.4349 57.7197C24.2357 57.9189 24.1239 58.189 24.1239 58.4706C24.1239 58.7523 24.2357 59.0224 24.4349 59.2215C24.634 59.4207 24.9041 59.5326 25.1858 59.5326C26.9932 59.5326 28.7432 58.9368 29.9974 58.3793C30.6786 58.0759 31.3394 57.7286 31.9757 57.3397C32.0163 57.3145 32.0566 57.289 32.0968 57.2632L32.1308 57.2409L32.1414 57.2346L32.1467 57.2303Z" fill="#0080FF" stroke="#0080FF" stroke-width="1.16253"/>
</svg>
