<svg width="73" height="70" viewBox="0 0 76 76" fill="none" xmlns="http://www.w3.org/2000/svg">
<path d="M26.1175 46.2358C24.9071 46.2358 23.8618 45.9843 22.9815 45.4813C22.1065 44.973 21.4332 44.2552 20.9616 43.3277C20.49 42.395 20.2542 41.2973 20.2542 40.0345C20.2542 38.7927 20.49 37.7028 20.9616 36.7649C21.4384 35.8218 22.1039 35.0882 22.9579 34.5642C23.812 34.035 24.8154 33.7704 25.9682 33.7704C26.7122 33.7704 27.4144 33.8909 28.0746 34.1319C28.74 34.3677 29.3269 34.7345 29.8351 35.2323C30.3486 35.7301 30.7521 36.3641 31.0455 37.1343C31.3389 37.8993 31.4857 38.811 31.4857 39.8695V40.7419H21.5904V38.8241H28.7584C28.7531 38.2792 28.6352 37.7945 28.4047 37.3701C28.1741 36.9404 27.8519 36.6025 27.4379 36.3562C27.0292 36.1099 26.5524 35.9868 26.0075 35.9868C25.4259 35.9868 24.915 36.1283 24.4749 36.4112C24.0347 36.6889 23.6915 37.0557 23.4452 37.5116C23.2042 37.9622 23.0811 38.4574 23.0758 38.9971V40.6712C23.0758 41.3733 23.2042 41.9759 23.461 42.4789C23.7177 42.9767 24.0766 43.3592 24.5377 43.6264C24.9988 43.8884 25.5385 44.0194 26.1568 44.0194C26.5708 44.0194 26.9454 43.9617 27.2807 43.8465C27.6161 43.7259 27.9069 43.5504 28.1532 43.3199C28.3994 43.0893 28.5855 42.8037 28.7112 42.4632L31.3678 42.7618C31.2001 43.464 30.8805 44.077 30.4089 44.601C29.9425 45.1197 29.3452 45.5232 28.6169 45.8114C27.8886 46.0943 27.0554 46.2358 26.1175 46.2358ZM39.1833 33.9276V36.1283H32.2432V33.9276H39.1833ZM33.9566 31.0352H36.8018V42.3688C36.8018 42.7513 36.8594 43.0448 36.9747 43.2491C37.0952 43.4482 37.2524 43.5845 37.4463 43.6578C37.6402 43.7312 37.855 43.7679 38.0908 43.7679C38.2689 43.7679 38.4314 43.7548 38.5781 43.7286C38.73 43.7024 38.8453 43.6788 38.9239 43.6578L39.4033 45.8821C39.2514 45.9345 39.0339 45.9921 38.751 46.055C38.4733 46.1179 38.1327 46.1546 37.7292 46.1651C37.0166 46.186 36.3748 46.0786 35.8036 45.8428C35.2325 45.6018 34.7792 45.2298 34.4439 44.7267C34.1138 44.2237 33.9514 43.5949 33.9566 42.8404V31.0352ZM45.9613 46.2358C44.7561 46.2358 43.7213 45.9712 42.8567 45.442C41.9974 44.9127 41.3346 44.1818 40.8682 43.2491C40.4071 42.3112 40.1766 41.2318 40.1766 40.011C40.1766 38.7848 40.4124 37.7028 40.884 36.7649C41.3555 35.8218 42.021 35.0882 42.8803 34.5642C43.7449 34.035 44.7666 33.7704 45.9456 33.7704C46.9254 33.7704 47.7926 33.9512 48.5471 34.3127C49.3069 34.669 49.9121 35.1746 50.3627 35.8296C50.8133 36.4794 51.0701 37.2391 51.1329 38.1089H48.4135C48.3035 37.5273 48.0415 37.0426 47.6275 36.6549C47.2188 36.2619 46.6713 36.0654 45.9849 36.0654C45.4033 36.0654 44.8924 36.2226 44.4522 36.537C44.0121 36.8461 43.6689 37.2915 43.4226 37.8731C43.1816 38.4547 43.0611 39.1516 43.0611 39.9638C43.0611 40.7864 43.1816 41.4938 43.4226 42.0859C43.6637 42.6728 44.0016 43.126 44.4365 43.4456C44.8767 43.76 45.3928 43.9172 45.9849 43.9172C46.4041 43.9172 46.7787 43.8386 47.1088 43.6814C47.4441 43.519 47.7245 43.2858 47.9498 42.9819C48.1751 42.678 48.3297 42.3086 48.4135 41.8737H51.1329C51.0648 42.7278 50.8133 43.4849 50.3784 44.1451C49.9435 44.8001 49.3514 45.3136 48.6021 45.6856C47.8528 46.0524 46.9726 46.2358 45.9613 46.2358ZM54.4842 46.1729C54.0073 46.1729 53.5986 46.0052 53.2581 45.6699C52.9175 45.3346 52.7498 44.9258 52.755 44.4438C52.7498 43.9722 52.9175 43.5687 53.2581 43.2334C53.5986 42.8981 54.0073 42.7304 54.4842 42.7304C54.9453 42.7304 55.3461 42.8981 55.6867 43.2334C56.0325 43.5687 56.208 43.9722 56.2133 44.4438C56.208 44.7634 56.1242 45.0542 55.9618 45.3162C55.8046 45.5782 55.595 45.7878 55.333 45.945C55.0762 46.0969 54.7933 46.1729 54.4842 46.1729Z" fill="#0080FF"/>
</svg>
