<svg width="41" height="39" viewBox="0 0 41 39" fill="none" xmlns="http://www.w3.org/2000/svg">
<path d="M5.27565 1C4.14167 1 3.05415 1.45047 2.25231 2.25231C1.45047 3.05415 1 4.14167 1 5.27565V24.7536C1 25.5096 1.30031 26.2346 1.83487 26.7692C2.36943 27.3037 3.09445 27.604 3.85043 27.604H15.2522C16.0081 27.604 16.7332 27.3037 17.2677 26.7692C17.8023 26.2346 18.1026 25.5096 18.1026 24.7536V21.9032H19.5278C20.6618 21.9032 21.7493 21.4527 22.5511 20.6509C23.353 19.849 23.8034 18.7615 23.8034 17.6275V10.9765C23.8034 9.84254 23.353 8.75501 22.5511 7.95317C21.7493 7.15133 20.6618 6.70086 19.5278 6.70086H18.1026V5.27565C18.1026 4.14167 17.6521 3.05415 16.8503 2.25231C16.0484 1.45047 14.9609 1 13.8269 1H5.27565ZM18.1026 8.60115H19.5278C20.839 8.60115 21.9032 9.66531 21.9032 10.9765V17.6275C21.9032 18.9387 20.839 20.0029 19.5278 20.0029H18.1026V8.60115ZM2.90029 5.27565C2.90029 3.96445 3.96445 2.90029 5.27565 2.90029H13.8269C15.1381 2.90029 16.2023 3.96445 16.2023 5.27565V6.70086H2.90029V5.27565ZM2.90029 8.60115H16.2023V24.7536C16.2023 25.0056 16.1022 25.2473 15.924 25.4254C15.7458 25.6036 15.5041 25.7037 15.2522 25.7037H3.85043C3.59844 25.7037 3.35676 25.6036 3.17858 25.4254C3.00039 25.2473 2.90029 25.0056 2.90029 24.7536V8.60115Z" fill="#FF3679" stroke="#FF3679" stroke-width="0.625977"/>
<path d="M14.0239 10.7802C14.2021 10.9584 14.3022 11.2001 14.3022 11.4521V20.9535C14.3022 21.2055 14.2021 21.4472 14.0239 21.6254C13.8457 21.8036 13.6041 21.9037 13.3521 21.9037C13.1001 21.9037 12.8584 21.8036 12.6802 21.6254C12.502 21.4472 12.4019 21.2055 12.4019 20.9535V11.4521C12.4019 11.2001 12.502 10.9584 12.6802 10.7802C12.8584 10.6021 13.1001 10.502 13.3521 10.502C13.6041 10.502 13.8457 10.6021 14.0239 10.7802Z" fill="#FF3679"/>
<path d="M10.2234 10.7802C10.0452 10.6021 9.80349 10.502 9.5515 10.502C9.29951 10.502 9.05783 10.6021 8.87965 10.7802C8.70146 10.9584 8.60136 11.2001 8.60136 11.4521V20.9535C8.60136 21.2055 8.70146 21.4472 8.87965 21.6254C9.05783 21.8036 9.29951 21.9037 9.5515 21.9037C9.80349 21.9037 10.0452 21.8036 10.2234 21.6254C10.4015 21.4472 10.5016 21.2055 10.5016 20.9535V11.4521C10.5016 11.2001 10.4015 10.9584 10.2234 10.7802Z" fill="#FF3679"/>
<path d="M6.42278 10.7802C6.60096 10.9584 6.70107 11.2001 6.70107 11.4521V20.9535C6.70107 21.2055 6.60096 21.4472 6.42278 21.6254C6.24459 21.8036 6.00292 21.9037 5.75092 21.9037C5.49893 21.9037 5.25726 21.8036 5.07907 21.6254C4.90089 21.4472 4.80078 21.2055 4.80078 20.9535V11.4521C4.80078 11.2001 4.90089 10.9584 5.07907 10.7802C5.25726 10.6021 5.49893 10.502 5.75092 10.502C6.00292 10.502 6.24459 10.6021 6.42278 10.7802Z" fill="#FF3679"/>
<path d="M36.0997 31.2124V37.0889M38.9248 17.9902C41.8631 21.6631 35.9866 23.1322 38.9248 26.805M35.3695 17.9902C38.3078 21.6631 32.4313 23.1322 35.3695 26.805M20.6738 35.6198V32.6815C20.6738 32.2919 20.8286 31.9182 21.1041 31.6427C21.3796 31.3672 21.7533 31.2124 22.143 31.2124H39.7725V37.0889H22.143C21.7533 37.0889 21.3796 36.9341 21.1041 36.6586C20.8286 36.3831 20.6738 36.0094 20.6738 35.6198Z" stroke="#FF3679" stroke-width="2.23563" stroke-linecap="round" stroke-linejoin="round"/>
</svg>
