<svg width="36" height="36" viewBox="0 0 36 36" fill="none" xmlns="http://www.w3.org/2000/svg">
<path d="M24.4308 8.40881C24.4308 5.38706 24.4308 3.87778 23.492 2.93889C22.5531 2 21.0438 2 18.022 2C15.0003 2 13.491 2 12.5521 2.93889C11.6132 3.87778 11.6132 5.38706 11.6132 8.40881M2 21.2264C2 15.1845 2 12.1628 3.87778 10.2866C5.75396 8.40881 8.77572 8.40881 14.8176 8.40881H21.2264C27.2683 8.40881 30.2901 8.40881 32.1663 10.2866C34.0441 12.1628 34.0441 15.1845 34.0441 21.2264C34.0441 27.2683 34.0441 30.2901 32.1663 32.1663C30.2901 34.0441 27.2683 34.0441 21.2264 34.0441H14.8176C8.77572 34.0441 5.75396 34.0441 3.87778 32.1663C2 30.2901 2 27.2683 2 21.2264Z" stroke="#FF3679" stroke-width="2.68276"/>
<path d="M18.0218 26.5673C19.7922 26.5673 21.2262 25.3721 21.2262 23.898C21.2262 22.424 19.7922 21.2272 18.0218 21.2272C16.2514 21.2272 14.8174 20.0319 14.8174 18.5563C14.8174 17.0823 16.2514 15.887 18.0218 15.887M18.0218 26.5673C16.2514 26.5673 14.8174 25.3721 14.8174 23.898M18.0218 26.5673V27.636M18.0218 15.887V14.8184M18.0218 15.887C19.7922 15.887 21.2262 17.0823 21.2262 18.5563" stroke="#FF3679" stroke-width="2.68276" stroke-linecap="round"/>
</svg>
