<svg xmlns="http://www.w3.org/2000/svg" width="73" height="70" viewBox="0 0 76 76" fill="none">
  <path d="M49.7839 27.3049C49.7836 26.712 49.5826 26.1367 49.2138 25.6725C48.845 25.2083 48.33 24.8825 47.7525 24.7481L47.087 22.3314C46.9656 21.9406 46.7207 21.5997 46.3892 21.3598C46.0577 21.1198 45.6574 20.9937 45.2482 21.0004H30.5202C30.1126 20.9915 29.7134 21.117 29.3842 21.3575C29.0551 21.5981 28.8142 21.9403 28.6989 22.3314L28.0335 24.7481C27.435 24.899 26.9065 25.2511 26.5367 25.7453C26.1668 26.2395 25.9781 26.8458 26.002 27.4625C26.0006 28.0221 26.1808 28.5671 26.5155 29.0155C26.8502 29.4639 27.3215 29.7916 27.8583 29.9493L28.0335 34.8003C27.7531 34.8458 27.495 34.981 27.298 35.1855C27.1742 35.3161 27.0779 35.4702 27.0147 35.6386C26.9515 35.8071 26.9228 35.9865 26.9302 36.1662L27.3505 46.2534C27.3633 46.5634 27.484 46.8591 27.6919 47.0894C27.8998 47.3197 28.1817 47.47 28.4888 47.5143L28.6289 51.4021C28.665 52.5791 29.1593 53.6955 30.0066 54.5133C30.8539 55.3312 31.987 55.7858 33.1646 55.7802H42.6038C43.7842 55.7894 44.9213 55.3366 45.7722 54.5185C46.623 53.7004 47.1201 52.5819 47.1571 51.4021L47.2972 47.5143C47.6009 47.466 47.8785 47.314 48.0829 47.0841C48.2872 46.8542 48.4056 46.5607 48.418 46.2534L48.8383 36.1662C48.8457 35.9865 48.8169 35.8071 48.7538 35.6386C48.6906 35.4702 48.5943 35.3161 48.4705 35.1855C48.2804 34.9812 48.0279 34.8457 47.7525 34.8003L47.9276 29.9493C48.482 29.7695 48.9629 29.4144 49.2977 28.9374C49.6326 28.4604 49.8032 27.8874 49.7839 27.3049ZM30.5202 22.7517L45.3883 22.8042L45.9137 24.6781H29.9073L30.5202 22.7517ZM45.4058 51.3495C45.3838 52.0745 45.0777 52.7618 44.5535 53.263C44.0293 53.7643 43.3291 54.0394 42.6038 54.0289H33.1646C32.442 54.0361 31.7455 53.7594 31.2247 53.2584C30.704 52.7573 30.4008 52.0719 30.3801 51.3495L30.24 47.5318H45.5459L45.4058 51.3495ZM34.2154 41.1573C34.2154 40.4299 34.4311 39.7189 34.8352 39.1141C35.2393 38.5093 35.8136 38.038 36.4856 37.7596C37.1576 37.4813 37.8971 37.4084 38.6105 37.5503C39.3238 37.6922 39.9791 38.0425 40.4935 38.5568C41.0078 39.0711 41.358 39.7264 41.4999 40.4398C41.6418 41.1532 41.569 41.8926 41.2907 42.5646C41.0123 43.2366 40.5409 43.811 39.9362 44.2151C39.3314 44.6192 38.6203 44.8349 37.893 44.8349C36.9176 44.8349 35.9822 44.4474 35.2925 43.7577C34.6028 43.0681 34.2154 42.1326 34.2154 41.1573ZM46.0012 34.7652H29.7847L29.6096 30.0894H46.1589L46.0012 34.7652ZM47.1571 28.3382H28.6289C28.5014 28.3339 28.3762 28.303 28.2614 28.2474C28.1466 28.1918 28.0446 28.1129 27.9622 28.0155C27.8797 27.9182 27.8185 27.8047 27.7825 27.6823C27.7465 27.56 27.7366 27.4314 27.7533 27.3049C27.7533 27.0727 27.8455 26.85 28.0097 26.6858C28.1739 26.5216 28.3967 26.4293 28.6289 26.4293H47.1571C47.284 26.4352 47.4084 26.4671 47.5225 26.5232C47.6365 26.5792 47.7378 26.6582 47.82 26.7552C47.9021 26.8521 47.9634 26.965 48 27.0867C48.0366 27.2084 48.0478 27.3363 48.0327 27.4625C48.0327 27.6948 47.9404 27.9175 47.7762 28.0817C47.612 28.2459 47.3893 28.3382 47.1571 28.3382Z" fill="#FF3679" stroke="#FFD7E4" stroke-width="0.447126"/>
</svg>