<svg xmlns="http://www.w3.org/2000/svg" width="76" height="76" viewBox="0 0 76 76" fill="none">
  <path d="M52.5224 29.8813H41.2449L46.8845 24.2434C47.131 23.997 47.2694 23.6627 47.2694 23.3142C47.2694 22.9656 47.131 22.6314 46.8845 22.3849C46.638 22.1385 46.3038 22 45.9552 22C45.6067 22 45.2724 22.1385 45.026 22.3849L38.0746 29.3379L31.1233 22.3849C31.0013 22.2629 30.8564 22.1661 30.6969 22.1C30.5375 22.034 30.3666 22 30.194 22C30.0215 22 29.8506 22.034 29.6911 22.1C29.5317 22.1661 29.3868 22.2629 29.2648 22.3849C29.0183 22.6314 28.8799 22.9656 28.8799 23.3142C28.8799 23.6627 29.0183 23.997 29.2648 24.2434L34.9043 29.8813H23.6269C22.9302 29.8813 22.262 30.1581 21.7694 30.6507C21.2768 31.1434 21 31.8115 21 32.5082V52.2097C21 52.9064 21.2768 53.5746 21.7694 54.0672C22.262 54.5598 22.9302 54.8366 23.6269 54.8366H52.5224C53.2191 54.8366 53.8873 54.5598 54.3799 54.0672C54.8725 53.5746 55.1493 52.9064 55.1493 52.2097V32.5082C55.1493 31.8115 54.8725 31.1434 54.3799 30.6507C53.8873 30.1581 53.2191 29.8813 52.5224 29.8813ZM23.6269 32.5082H40.7015V52.2097H23.6269V32.5082ZM52.5224 52.2097H43.3284V32.5082H52.5224V52.2097ZM49.8955 38.4187C49.8955 38.8083 49.78 39.1892 49.5635 39.5132C49.347 39.8372 49.0393 40.0897 48.6793 40.2388C48.3193 40.388 47.9232 40.427 47.541 40.3509C47.1589 40.2749 46.8078 40.0873 46.5323 39.8118C46.2568 39.5362 46.0691 39.1852 45.9931 38.803C45.9171 38.4208 45.9561 38.0247 46.1052 37.6647C46.2543 37.3047 46.5068 36.997 46.8308 36.7805C47.1548 36.564 47.5357 36.4485 47.9254 36.4485C48.4479 36.4485 48.949 36.6561 49.3185 37.0255C49.688 37.395 49.8955 37.8961 49.8955 38.4187ZM49.8955 46.2993C49.8955 46.6889 49.78 47.0698 49.5635 47.3938C49.347 47.7178 49.0393 47.9703 48.6793 48.1194C48.3193 48.2686 47.9232 48.3076 47.541 48.2316C47.1589 48.1555 46.8078 47.9679 46.5323 47.6924C46.2568 47.4168 46.0691 47.0658 45.9931 46.6836C45.9171 46.3014 45.9561 45.9053 46.1052 45.5453C46.2543 45.1853 46.5068 44.8776 46.8308 44.6611C47.1548 44.4447 47.5357 44.3291 47.9254 44.3291C48.4479 44.3291 48.949 44.5367 49.3185 44.9062C49.688 45.2756 49.8955 45.7767 49.8955 46.2993Z" fill="#0080FF"/>
</svg>