<svg width="25" height="36" viewBox="0 0 25 36" fill="none" xmlns="http://www.w3.org/2000/svg">
<path d="M24.7839 7.30493C24.7836 6.71204 24.5826 6.13671 24.2138 5.6725C23.845 5.20829 23.33 4.8825 22.7525 4.74811L22.087 2.33139C21.9656 1.94061 21.7207 1.5997 21.3892 1.35975C21.0577 1.11981 20.6574 0.993741 20.2482 1.00045H5.52024C5.11264 0.9915 4.71342 1.11699 4.38424 1.35754C4.05506 1.5981 3.81424 1.94033 3.69895 2.33139L3.03347 4.74811C2.43496 4.89905 1.90651 5.25111 1.53667 5.74529C1.16683 6.23947 0.97807 6.84576 1.00203 7.46254C1.00058 8.02212 1.18075 8.56707 1.51549 9.01549C1.85023 9.46391 2.32145 9.7916 2.85835 9.94931L3.03347 14.8003C2.75309 14.8458 2.49501 14.981 2.29795 15.1855C2.17418 15.3161 2.07785 15.4702 2.01468 15.6386C1.95151 15.8071 1.92278 15.9865 1.93019 16.1662L2.35049 26.2534C2.36325 26.5634 2.48404 26.8591 2.69194 27.0894C2.89983 27.3197 3.18173 27.47 3.4888 27.5143L3.6289 31.4021C3.66496 32.5791 4.1593 33.6955 5.00658 34.5133C5.85385 35.3312 6.98704 35.7858 8.16462 35.7802H17.6038C18.7842 35.7894 19.9213 35.3366 20.7722 34.5185C21.623 33.7004 22.1201 32.5819 22.1571 31.4021L22.2972 27.5143C22.6009 27.466 22.8785 27.314 23.0829 27.0841C23.2872 26.8542 23.4056 26.5607 23.418 26.2534L23.8383 16.1662C23.8457 15.9865 23.8169 15.8071 23.7538 15.6386C23.6906 15.4702 23.5943 15.3161 23.4705 15.1855C23.2804 14.9812 23.0279 14.8457 22.7525 14.8003L22.9276 9.94931C23.482 9.76955 23.9629 9.41437 24.2977 8.93737C24.6326 8.46037 24.8032 7.88741 24.7839 7.30493ZM5.52024 2.75169L20.3883 2.80423L20.9137 4.67806H4.90731L5.52024 2.75169ZM20.4058 31.3495C20.3838 32.0745 20.0777 32.7618 19.5535 33.263C19.0293 33.7643 18.3291 34.0394 17.6038 34.0289H8.16462C7.44202 34.0361 6.74546 33.7594 6.22474 33.2584C5.70403 32.7573 5.40075 32.0719 5.38014 31.3495L5.24004 27.5318H20.5459L20.4058 31.3495ZM9.21537 21.1573C9.21537 20.4299 9.43106 19.7189 9.83516 19.1141C10.2393 18.5093 10.8136 18.038 11.4856 17.7596C12.1576 17.4813 12.8971 17.4084 13.6105 17.5503C14.3238 17.6922 14.9791 18.0425 15.4935 18.5568C16.0078 19.0711 16.358 19.7264 16.4999 20.4398C16.6418 21.1532 16.569 21.8926 16.2907 22.5646C16.0123 23.2366 15.5409 23.811 14.9362 24.2151C14.3314 24.6192 13.6203 24.8349 12.893 24.8349C11.9176 24.8349 10.9822 24.4474 10.2925 23.7577C9.60283 23.0681 9.21537 22.1326 9.21537 21.1573ZM21.0012 14.7652H4.78472L4.60959 10.0894H21.1589L21.0012 14.7652ZM22.1571 8.33817H3.6289C3.50141 8.33389 3.37622 8.30297 3.26139 8.24741C3.14657 8.19184 3.04464 8.11286 2.96217 8.01555C2.87969 7.91823 2.8185 7.80473 2.78253 7.68234C2.74655 7.55996 2.73659 7.4314 2.75327 7.30493C2.75327 7.0727 2.84553 6.84998 3.00974 6.68577C3.17395 6.52156 3.39667 6.42931 3.6289 6.42931H22.1571C22.284 6.43515 22.4084 6.46711 22.5225 6.52317C22.6365 6.57924 22.7378 6.65822 22.82 6.75518C22.9021 6.85213 22.9634 6.96499 23 7.08669C23.0366 7.2084 23.0478 7.33635 23.0327 7.46254C23.0327 7.69477 22.9404 7.91749 22.7762 8.0817C22.612 8.24591 22.3893 8.33817 22.1571 8.33817Z" fill="#FF3679" stroke="#FFD7E4" stroke-width="0.447126"/>
</svg>
