<svg width="32" height="37" viewBox="0 0 32 37" fill="none" xmlns="http://www.w3.org/2000/svg">
<path d="M23.57 10.4755V14.4039C23.57 14.7511 23.432 15.0842 23.1864 15.3298C22.9409 15.5753 22.6078 15.7133 22.2605 15.7133H20.9511V10.4755H10.4755V15.7133H9.16609C8.81881 15.7133 8.48574 15.5753 8.24018 15.3298C7.99461 15.0842 7.85665 14.7511 7.85665 14.4039V10.4755H2.61888V34.0455H28.8077V10.4755H23.57ZM7.85665 7.85665C7.85665 5.77294 8.6844 3.77457 10.1578 2.30116C11.6312 0.827752 13.6296 0 15.7133 0C17.797 0 19.7954 0.827752 21.2688 2.30116C22.7422 3.77457 23.57 5.77294 23.57 7.85665H30.1172C30.4644 7.85665 30.7975 7.99461 31.0431 8.24018C31.2886 8.48574 31.4266 8.81881 31.4266 9.16609V35.3549C31.4266 35.7022 31.2886 36.0353 31.0431 36.2808C30.7975 36.5264 30.4644 36.6644 30.1172 36.6644H1.30944C0.962156 36.6644 0.629095 36.5264 0.383527 36.2808C0.137959 36.0353 0 35.7022 0 35.3549V9.16609C0 8.81881 0.137959 8.48574 0.383527 8.24018C0.629095 7.99461 0.962156 7.85665 1.30944 7.85665H7.85665ZM10.4755 7.85665H20.9511C20.9511 6.46751 20.3992 5.13526 19.417 4.15299C18.4347 3.17072 17.1024 2.61888 15.7133 2.61888C14.3242 2.61888 12.9919 3.17072 12.0096 4.15299C11.0274 5.13526 10.4755 6.46751 10.4755 7.85665Z" fill="#FF3679"/>
</svg>
