<svg width="33" height="45" viewBox="0 0 33 45" fill="none" xmlns="http://www.w3.org/2000/svg">
<path fill-rule="evenodd" clip-rule="evenodd" d="M15.5204 24.188L4.12382 2.75197C4.05835 2.62883 4.01777 2.494 4.0044 2.35518C3.99103 2.21636 4.00514 2.07627 4.04592 1.9429C4.12826 1.67355 4.31424 1.44795 4.56293 1.31572C4.81161 1.18349 5.10264 1.15546 5.37199 1.23781C5.50536 1.27859 5.62939 1.34523 5.73701 1.43394C5.84462 1.52265 5.93371 1.63169 5.99918 1.75482L17.3968 23.1908L19.0131 22.3307C19.5057 22.0688 20.0451 21.9065 20.6004 21.8531C21.1557 21.7997 21.7161 21.8562 22.2496 22.0194C22.7831 22.1826 23.2792 22.4493 23.7096 22.8043C24.14 23.1592 24.4963 23.5955 24.7581 24.0882L25.4462 25.3816L31.0498 33.5843C31.9518 34.9046 31.5059 36.7157 30.0941 37.4664L20.2556 42.6973C18.8439 43.4479 17.0931 42.8048 16.5029 41.3188L12.8359 32.0855L12.1488 30.7921C11.8869 30.2996 11.7245 29.7603 11.671 29.205C11.6175 28.6497 11.674 28.0893 11.8371 27.5558C12.0002 27.0223 12.2668 26.5262 12.6216 26.0957C12.9765 25.6653 13.4126 25.309 13.9052 25.0471L15.5204 24.188ZM14.9013 26.9225L20.0092 24.2071C20.2554 24.0761 20.5251 23.995 20.8027 23.9682C21.0804 23.9415 21.3606 23.9697 21.6273 24.0513C21.8941 24.1328 22.1421 24.2661 22.3573 24.4435C22.5726 24.621 22.7507 24.839 22.8817 25.0853L23.5698 26.3777L14.7102 31.0884L14.0231 29.795C13.8921 29.5487 13.811 29.279 13.7842 29.0014C13.7575 28.7237 13.7857 28.4436 13.8672 28.1768C13.9488 27.9101 14.0821 27.662 14.2595 27.4468C14.4369 27.2316 14.655 27.0534 14.9013 26.9225ZM15.7827 33.7528L18.7062 41.1151L21.3121 39.7739L19.3263 35.9077C19.1523 35.5689 19.2812 35.1531 19.6164 34.9723C19.9614 34.7861 20.3921 34.9196 20.5712 35.2683L22.5302 39.0826L29.6472 35.2979L25.1786 28.7564L15.7827 33.7528Z" fill="#0080FF" stroke="#0080FF" stroke-width="1.16253"/>
<path d="M7.75385 34.412C7.86102 34.3227 7.98471 34.2554 8.11788 34.214C8.25105 34.1725 8.39108 34.1577 8.52997 34.1704C8.66886 34.1831 8.80389 34.223 8.92736 34.2878C9.05083 34.3527 9.16032 34.4412 9.24957 34.5484C9.33882 34.6556 9.40608 34.7793 9.44753 34.9124C9.48897 35.0456 9.50378 35.1856 9.49111 35.3245C9.47844 35.4634 9.43854 35.5985 9.37368 35.7219C9.30882 35.8454 9.22028 35.9549 9.11311 36.0441L9.11205 36.0452L9.10992 36.0473L9.10674 36.0494L9.09612 36.0579L9.06426 36.0845L8.95488 36.1684C8.86249 36.2374 8.73188 36.3319 8.56516 36.4445C8.23065 36.6675 7.74747 36.9585 7.13793 37.2494C5.55336 38.0097 3.81942 38.4076 2.06193 38.4143C1.78029 38.4143 1.51018 38.3025 1.31103 38.1033C1.11188 37.9042 1 37.6341 1 37.3524C1 37.0708 1.11188 36.8007 1.31103 36.6015C1.51018 36.4024 1.78029 36.2905 2.06193 36.2905C3.50346 36.2836 4.9254 35.9561 6.22467 35.3316C6.62697 35.141 7.0152 34.9221 7.38642 34.6764C7.50864 34.5956 7.628 34.5106 7.74429 34.4215L7.75491 34.4109L7.75385 34.412ZM11.1467 41.4217C11.381 41.2654 11.5437 41.0224 11.5988 40.7462C11.654 40.47 11.5972 40.1832 11.4409 39.9488C11.2845 39.7145 11.0415 39.5519 10.7653 39.4967C10.4891 39.4415 10.2023 39.4984 9.96796 39.6547L9.96584 39.6568L9.9446 39.6695L9.85327 39.728C9.3004 40.0652 8.72649 40.3667 8.13508 40.6306C6.99882 41.1339 5.56522 41.6001 4.18578 41.6001C3.90414 41.6001 3.63403 41.712 3.43488 41.9112C3.23573 42.1103 3.12385 42.3804 3.12385 42.6621C3.12385 42.9437 3.23573 43.2138 3.43488 43.4129C3.63403 43.6121 3.90414 43.724 4.18578 43.724C5.99317 43.724 7.74323 43.1282 8.99736 42.5707C9.67859 42.2673 10.3394 41.92 10.9757 41.5311C11.0163 41.5059 11.0566 41.4804 11.0968 41.4546L11.1308 41.4323L11.1414 41.426L11.1467 41.4217Z" fill="#0080FF" stroke="#0080FF" stroke-width="1.16253"/>
</svg>
