<svg xmlns="http://www.w3.org/2000/svg" width="73" height="70" viewBox="0 0 76 76" fill="none">
  <path d="M23.2756 20C22.1417 20 21.0541 20.4505 20.2523 21.2523C19.4505 22.0541 19 23.1417 19 24.2756V43.7536C19 44.5096 19.3003 45.2346 19.8349 45.7692C20.3694 46.3037 21.0944 46.604 21.8504 46.604H33.2522C34.0081 46.604 34.7332 46.3037 35.2677 45.7692C35.8023 45.2346 36.1026 44.5096 36.1026 43.7536V40.9032H37.5278C38.6618 40.9032 39.7493 40.4527 40.5511 39.6509C41.353 38.849 41.8034 37.7615 41.8034 36.6275V29.9765C41.8034 28.8425 41.353 27.755 40.5511 26.9532C39.7493 26.1513 38.6618 25.7009 37.5278 25.7009H36.1026V24.2756C36.1026 23.1417 35.6521 22.0541 34.8503 21.2523C34.0484 20.4505 32.9609 20 31.8269 20H23.2756ZM36.1026 27.6011H37.5278C38.839 27.6011 39.9032 28.6653 39.9032 29.9765V36.6275C39.9032 37.9387 38.839 39.0029 37.5278 39.0029H36.1026V27.6011ZM20.9003 24.2756C20.9003 22.9644 21.9644 21.9003 23.2756 21.9003H31.8269C33.1381 21.9003 34.2023 22.9644 34.2023 24.2756V25.7009H20.9003V24.2756ZM20.9003 27.6011H34.2023V43.7536C34.2023 44.0056 34.1022 44.2473 33.924 44.4254C33.7458 44.6036 33.5041 44.7037 33.2522 44.7037H21.8504C21.5984 44.7037 21.3568 44.6036 21.1786 44.4254C21.0004 44.2473 20.9003 44.0056 20.9003 43.7536V27.6011Z" fill="#FF3679" stroke="#FF3679" stroke-width="0.625977"/>
  <path d="M32.0239 29.7802C32.2021 29.9584 32.3022 30.2001 32.3022 30.4521V39.9535C32.3022 40.2055 32.2021 40.4472 32.0239 40.6254C31.8457 40.8036 31.6041 40.9037 31.3521 40.9037C31.1001 40.9037 30.8584 40.8036 30.6802 40.6254C30.502 40.4472 30.4019 40.2055 30.4019 39.9535V30.4521C30.4019 30.2001 30.502 29.9584 30.6802 29.7802C30.8584 29.6021 31.1001 29.502 31.3521 29.502C31.6041 29.502 31.8457 29.6021 32.0239 29.7802Z" fill="#FF3679"/>
  <path d="M28.2234 29.7802C28.0452 29.6021 27.8035 29.502 27.5515 29.502C27.2995 29.502 27.0578 29.6021 26.8796 29.7802C26.7015 29.9584 26.6014 30.2001 26.6014 30.4521V39.9535C26.6014 40.2055 26.7015 40.4472 26.8796 40.6254C27.0578 40.8036 27.2995 40.9037 27.5515 40.9037C27.8035 40.9037 28.0452 40.8036 28.2234 40.6254C28.4015 40.4472 28.5016 40.2055 28.5016 39.9535V30.4521C28.5016 30.2001 28.4015 29.9584 28.2234 29.7802Z" fill="#FF3679"/>
  <path d="M24.4228 29.7802C24.601 29.9584 24.7011 30.2001 24.7011 30.4521V39.9535C24.7011 40.2055 24.601 40.4472 24.4228 40.6254C24.2446 40.8036 24.0029 40.9037 23.7509 40.9037C23.4989 40.9037 23.2573 40.8036 23.0791 40.6254C22.9009 40.4472 22.8008 40.2055 22.8008 39.9535V30.4521C22.8008 30.2001 22.9009 29.9584 23.0791 29.7802C23.2573 29.6021 23.4989 29.502 23.7509 29.502C24.0029 29.502 24.2446 29.6021 24.4228 29.7802Z" fill="#FF3679"/>
  <path d="M54.0992 50.2124V56.0889M56.9243 36.9902C59.8626 40.6631 53.9861 42.1322 56.9243 45.805M53.369 36.9902C56.3073 40.6631 50.4308 42.1322 53.369 45.805M38.6733 54.6198V51.6815C38.6733 51.2919 38.8281 50.9182 39.1036 50.6427C39.3792 50.3672 39.7528 50.2124 40.1425 50.2124H57.772V56.0889H40.1425C39.7528 56.0889 39.3792 55.9341 39.1036 55.6586C38.8281 55.3831 38.6733 55.0094 38.6733 54.6198Z" stroke="#FF3679" stroke-width="2.23563" stroke-linecap="round" stroke-linejoin="round"/>
</svg>