<svg width="43" height="32" viewBox="0 0 43 32" fill="none" xmlns="http://www.w3.org/2000/svg">
<path d="M40.0014 15.3358C38.3958 8.07766 36.0145 3.44773 32.1979 2.31948C31.4587 2.10385 30.6922 1.99628 29.9222 2.00012C27.5758 2.00012 25.7242 3.39625 21.5454 3.39625C17.3666 3.39625 15.5114 2.00012 13.1686 2.00012C12.3664 1.99596 11.5676 2.10345 10.7951 2.31948C6.9732 3.44773 4.61199 8.08203 2.98811 15.3358C1.3302 22.7449 1.63037 28.5991 4.87115 29.723C7.13987 30.5083 9.16862 28.8844 11.0901 26.4944C13.2715 23.772 15.9582 22.9343 21.5454 22.9343C27.1325 22.9343 29.7145 23.772 31.8994 26.4944C33.8191 28.8862 35.9229 30.49 38.1314 29.7369C41.7108 28.5145 41.6602 22.8322 40.0014 15.3358Z" stroke="#0080FF" stroke-width="3.14995" stroke-miterlimit="10"/>
<path d="M26.3825 13.169C26.3825 14.1056 25.6232 14.8649 24.6866 14.8649C23.7499 14.8649 22.9906 14.1056 22.9906 13.169C22.9906 12.2323 23.7499 11.473 24.6866 11.473C25.6232 11.473 26.3825 12.2323 26.3825 13.169Z" fill="#0080FF" stroke="#0080FF" stroke-width="0.0984359"/>
<path d="M28.5264 18.7028C28.1908 18.7028 27.8627 18.6033 27.5838 18.4167C27.3048 18.2302 27.0874 17.9651 26.9592 17.6549C26.8309 17.3448 26.7976 17.0036 26.8634 16.6745C26.9292 16.3454 27.0911 16.0432 27.3287 15.8062C27.5663 15.5692 27.8689 15.408 28.1982 15.343C28.5274 15.2781 28.8685 15.3122 29.1784 15.4413C29.4882 15.5703 29.7528 15.7883 29.9386 16.0678C30.1244 16.3472 30.2232 16.6755 30.2224 17.0111C30.2212 17.4602 30.0421 17.8905 29.7241 18.2076C29.4062 18.5247 28.9755 18.7028 28.5264 18.7028Z" fill="#0080FF" stroke="#0080FF" stroke-width="0.0984359"/>
<path d="M30.2224 9.33111C30.2224 10.2678 29.4631 11.0271 28.5264 11.0271C27.5898 11.0271 26.8305 10.2678 26.8305 9.33111C26.8305 8.39446 27.5898 7.63516 28.5264 7.63516C29.4631 7.63516 30.2224 8.39446 30.2224 9.33111Z" fill="#0080FF" stroke="#0080FF" stroke-width="0.0984359"/>
<path d="M34.0612 13.169C34.0612 14.1056 33.3019 14.8649 32.3653 14.8649C31.4286 14.8649 30.6693 14.1056 30.6693 13.169C30.6693 12.2323 31.4286 11.473 32.3653 11.473C33.3019 11.473 34.0612 12.2323 34.0612 13.169Z" fill="#0080FF" stroke="#0080FF" stroke-width="0.0984359"/>
<path d="M13.1689 8.98047V17.3573M17.3573 13.1689H8.98047" stroke="#0080FF" stroke-width="3.14995" stroke-linecap="round" stroke-linejoin="round"/>
</svg>
