<svg xmlns="http://www.w3.org/2000/svg" width="76" height="76" viewBox="0 0 76 76" fill="none">
  <path d="M44.4308 28.4088C44.4308 25.3871 44.4308 23.8778 43.492 22.9389C42.5531 22 41.0438 22 38.022 22C35.0003 22 33.491 22 32.5521 22.9389C31.6132 23.8778 31.6132 25.3871 31.6132 28.4088M22 41.2264C22 35.1845 22 32.1628 23.8778 30.2866C25.754 28.4088 28.7757 28.4088 34.8176 28.4088H41.2264C47.2683 28.4088 50.2901 28.4088 52.1663 30.2866C54.0441 32.1628 54.0441 35.1845 54.0441 41.2264C54.0441 47.2683 54.0441 50.2901 52.1663 52.1663C50.2901 54.0441 47.2683 54.0441 41.2264 54.0441H34.8176C28.7757 54.0441 25.754 54.0441 23.8778 52.1663C22 50.2901 22 47.2683 22 41.2264Z" stroke="#FF3679" stroke-width="2.68276"/>
  <path d="M38.0223 46.5673C39.7927 46.5673 41.2267 45.3721 41.2267 43.898C41.2267 42.424 39.7927 41.2272 38.0223 41.2272C36.2518 41.2272 34.8179 40.0319 34.8179 38.5563C34.8179 37.0823 36.2518 35.887 38.0223 35.887M38.0223 46.5673C36.2518 46.5673 34.8179 45.3721 34.8179 43.898M38.0223 46.5673V47.636M38.0223 35.887V34.8184M38.0223 35.887C39.7927 35.887 41.2267 37.0823 41.2267 38.5563" stroke="#FF3679" stroke-width="2.68276" stroke-linecap="round"/>
</svg>