<svg xmlns="http://www.w3.org/2000/svg" width="73" height="70" viewBox="0 0 76 76" fill="none">
  <path d="M45.57 30.4755V34.4039C45.57 34.7511 45.432 35.0842 45.1864 35.3298C44.9409 35.5753 44.6078 35.7133 44.2605 35.7133H42.9511V30.4755H32.4755V35.7133H31.1661C30.8188 35.7133 30.4857 35.5753 30.2402 35.3298C29.9946 35.0842 29.8567 34.7511 29.8567 34.4039V30.4755H24.6189V54.0455H50.8077V30.4755H45.57ZM29.8567 27.8567C29.8567 25.7729 30.6844 23.7746 32.1578 22.3012C33.6312 20.8278 35.6296 20 37.7133 20C39.797 20 41.7954 20.8278 43.2688 22.3012C44.7422 23.7746 45.57 25.7729 45.57 27.8567H52.1172C52.4644 27.8566 52.7975 27.9946 53.0431 28.2402C53.2886 28.4857 53.4266 28.8188 53.4266 29.1661V55.3549C53.4266 55.7022 53.2886 56.0353 53.0431 56.2808C52.7975 56.5264 52.4644 56.6644 52.1172 56.6644H23.3094C22.9622 56.6644 22.6291 56.5264 22.3835 56.2808C22.138 56.0353 22 55.7022 22 55.3549V29.1661C22 28.8188 22.138 28.4857 22.3835 28.2402C22.6291 27.9946 22.9622 27.8566 23.3094 27.8567H29.8567ZM32.4755 27.8567H42.9511C42.9511 26.4675 42.3992 25.1353 41.417 24.153C40.4347 23.1707 39.1024 22.6189 37.7133 22.6189C36.3242 22.6189 34.9919 23.1707 34.0096 24.153C33.0274 25.1353 32.4755 26.4675 32.4755 27.8567Z" fill="#FF3679"/>
</svg>