<svg width="44" height="44" viewBox="0 0 44 44" fill="none" xmlns="http://www.w3.org/2000/svg">
<mask id="path-1-outside-1_66_9087" maskUnits="userSpaceOnUse" x="0" y="0" width="44" height="44" fill="black">
<rect fill="white" width="44" height="44"/>
<path d="M7.2507 19.0803C6.98307 19.6317 6.84421 20.2366 6.8446 20.8495L6.99562 30.3373L3.70536 37.3985C3.58624 37.6183 3.50653 37.8571 3.46983 38.1044C3.42745 38.3819 3.44034 38.6651 3.50775 38.9376C3.57516 39.2102 3.69577 39.4667 3.86265 39.6925C4.02952 39.9183 4.23938 40.1089 4.48014 40.2533C4.7209 40.3977 4.98783 40.4931 5.26559 40.534C5.69829 40.6003 6.14092 40.5318 6.53332 40.3378C6.92573 40.1438 7.24887 39.8336 7.45884 39.4495L11.0785 31.7309C11.1536 31.5517 11.2209 31.3631 11.2483 31.1566L11.2679 30.8655L11.2397 24.9999L16.8022 27.4194L17.7005 33.1519C17.7938 33.5732 18.0127 33.9563 18.3283 34.2505C18.6439 34.5447 19.0413 34.7363 19.4681 34.7999C20.0282 34.8826 20.5983 34.7413 21.0549 34.4066C21.5116 34.072 21.818 33.5709 21.9078 33.0119C21.9352 32.8139 21.9352 32.6159 21.9164 32.4281L20.8202 25.5077C20.7543 25.1757 20.6114 24.8638 20.4029 24.5971C20.1944 24.3305 19.9262 24.1165 19.6199 23.9725L14.6481 21.7721L17.814 16.2837L19.3844 18.2704C19.5448 18.4488 19.7529 18.5998 19.9884 18.6937L25.9727 20.4348C26.3598 20.5193 26.7642 20.4648 27.1151 20.2808C27.466 20.0967 27.7408 19.795 27.8913 19.4285C27.9747 19.2237 28.0169 19.0045 28.0155 18.7834C28.0141 18.5623 27.9691 18.3437 27.8831 18.14C27.7971 17.9363 27.6719 17.7515 27.5144 17.5962C27.357 17.441 27.1705 17.3183 26.9657 17.2352L26.8804 17.207L21.6809 15.6819L17.767 11.0034C17.1631 10.3592 16.3615 9.93484 15.4893 9.79755C14.7361 9.68523 13.9665 9.79562 13.2753 10.1151C12.5841 10.4346 12.0013 10.9493 11.5989 11.5957L7.2507 19.0803ZM24.4172 32.6832L24.0392 35.526L14.5469 37.8256C14.0825 37.9381 13.7647 38.3664 13.7917 38.8434C13.8214 39.3675 14.255 39.7773 14.7799 39.7773H38.9507C39.1613 39.7783 39.37 39.7376 39.5649 39.6577C39.7598 39.5778 39.937 39.4602 40.0864 39.3117C40.2358 39.1632 40.3544 38.9867 40.4354 38.7923C40.5164 38.5978 40.5583 38.3893 40.5586 38.1787L40.5316 5.89653C40.5309 5.06535 39.9577 4.3442 39.1481 4.15598L38.8484 4.0863C37.8802 3.8612 36.9143 4.46876 36.6978 5.43894L35.1142 12.5378L31.8099 13.9213L28.8796 22.0913L31.6636 28.3427L30.8795 30.7426L24.4172 32.6832ZM17.4274 9.38282C19.195 9.38282 20.6316 7.95242 20.6316 6.1918C20.6308 4.43197 19.195 3 17.4274 3C15.6598 3 14.2225 4.43197 14.2225 6.1918C14.2217 7.95242 15.6591 9.38282 17.4274 9.38282ZM11.0511 9.88206C11.1108 9.77823 11.1494 9.66361 11.1645 9.54482C11.1797 9.42602 11.1713 9.3054 11.1396 9.18989C11.108 9.07438 11.0538 8.96628 10.9802 8.87181C10.9066 8.77734 10.815 8.69837 10.7108 8.63945L9.15991 7.73567C8.94785 7.61555 8.69703 7.58376 8.46171 7.64717C8.22639 7.71058 8.0255 7.86409 7.90249 8.07449L3.12007 16.2938C3.06067 16.3977 3.02234 16.5122 3.00726 16.6309C2.99218 16.7496 3.00065 16.8701 3.03219 16.9856C3.06373 17.101 3.11773 17.209 3.19108 17.3036C3.26443 17.3981 3.3557 17.4772 3.45966 17.5364L5.0199 18.4316C5.22923 18.5526 5.47794 18.5858 5.71165 18.5239C5.94537 18.462 6.14509 18.3101 6.26714 18.1014L11.0511 9.88206Z"/>
</mask>
<path d="M7.2507 19.0803L4.93098 17.7327L4.88083 17.819L4.83724 17.9088L7.2507 19.0803ZM6.8446 20.8495L4.16184 20.8512L4.16186 20.8717L4.16218 20.8922L6.8446 20.8495ZM6.99562 30.3373L9.42735 31.4704L9.68785 30.9113L9.67804 30.2946L6.99562 30.3373ZM3.70536 37.3985L6.06381 38.6772L6.10266 38.6055L6.13708 38.5316L3.70536 37.3985ZM3.46983 38.1044L6.12187 38.5093L6.12352 38.4982L3.46983 38.1044ZM5.26559 40.534L5.67214 37.8822L5.66434 37.881L5.65653 37.8799L5.26559 40.534ZM7.45884 39.4495L9.81288 40.7362L9.8526 40.6635L9.88777 40.5885L7.45884 39.4495ZM11.0785 31.7309L13.5074 32.87L13.5311 32.8195L13.5527 32.7681L11.0785 31.7309ZM11.2483 31.1566L13.9078 31.5091L13.9192 31.4231L13.925 31.3364L11.2483 31.1566ZM11.2679 30.8655L13.9446 31.0454L13.9511 30.9491L13.9506 30.8526L11.2679 30.8655ZM11.2397 24.9999L12.3098 22.5398L8.53722 20.8989L8.55697 25.0128L11.2397 24.9999ZM16.8022 27.4194L19.4527 27.0041L19.2244 25.5474L17.8723 24.9592L16.8022 27.4194ZM17.7005 33.1519L15.0501 33.5672L15.0631 33.6501L15.0812 33.732L17.7005 33.1519ZM19.4681 34.7999L19.0728 37.4533L19.0762 37.4538L19.4681 34.7999ZM21.9078 33.0119L24.5566 33.4375L24.5612 33.4085L24.5653 33.3795L21.9078 33.0119ZM21.9164 32.4281L24.5859 32.1612L24.5782 32.0845L24.5661 32.0084L21.9164 32.4281ZM20.8202 25.5077L23.4699 25.088L23.4618 25.0366L23.4517 24.9857L20.8202 25.5077ZM19.6199 23.9725L20.7614 21.5447L20.7337 21.5316L20.7056 21.5192L19.6199 23.9725ZM14.6481 21.7721L12.3242 20.4316L10.8328 23.0173L13.5624 24.2253L14.6481 21.7721ZM17.814 16.2837L19.9186 14.6201L17.4662 11.5174L15.4901 14.9432L17.814 16.2837ZM19.3844 18.2704L17.2797 19.934L17.3325 20.0008L17.3894 20.0641L19.3844 18.2704ZM19.9884 18.6937L18.9949 21.1858L19.1149 21.2336L19.239 21.2697L19.9884 18.6937ZM25.9727 20.4348L25.2233 23.0108L25.311 23.0363L25.4004 23.0558L25.9727 20.4348ZM27.8913 19.4285L30.3729 20.4478L30.376 20.4401L27.8913 19.4285ZM26.9657 17.2352L27.9743 14.7492L27.8917 14.7157L27.807 14.6878L26.9657 17.2352ZM26.8804 17.207L27.7217 14.6596L27.6788 14.6454L27.6355 14.6327L26.8804 17.207ZM21.6809 15.6819L19.6232 17.4033L20.1452 18.0273L20.9258 18.2562L21.6809 15.6819ZM17.767 11.0034L19.8247 9.282L19.776 9.22384L19.7242 9.16853L17.767 11.0034ZM15.4893 9.79755L15.9064 7.14741L15.8957 7.14573L15.8849 7.14413L15.4893 9.79755ZM11.5989 11.5957L9.32141 10.1778L9.29974 10.2126L9.27914 10.2481L11.5989 11.5957ZM24.4172 32.6832L23.6456 30.1138L21.9861 30.6121L21.7578 32.3297L24.4172 32.6832ZM24.0392 35.526L24.6709 38.1334L26.4565 37.7008L26.6986 35.8796L24.0392 35.526ZM38.9507 39.7773L38.9625 37.0946H38.9507V39.7773ZM40.5586 38.1787L43.2414 38.1826L43.2414 38.1764L40.5586 38.1787ZM35.1142 12.5378L36.1503 15.0125L37.4305 14.4765L37.7326 13.122L35.1142 12.5378ZM31.8099 13.9213L30.7738 11.4467L29.6837 11.9031L29.2846 13.0156L31.8099 13.9213ZM28.8796 22.0913L26.3543 21.1856L25.9908 22.1991L26.4289 23.1828L28.8796 22.0913ZM31.6636 28.3427L34.2137 29.1758L34.5343 28.1944L34.1143 27.2513L31.6636 28.3427ZM30.8795 30.7426L31.6511 33.312L32.9942 32.9087L33.4297 31.5757L30.8795 30.7426ZM20.6316 6.1918H23.3144L23.3144 6.19061L20.6316 6.1918ZM14.2225 6.1918L16.9052 6.193V6.1918H14.2225ZM11.0511 9.88206L13.3697 11.2316L13.3734 11.2253L13.377 11.219L11.0511 9.88206ZM10.9802 8.87181L8.86394 10.5207L10.9802 8.87181ZM10.7108 8.63945L9.35997 10.9573L9.37536 10.9663L9.39087 10.9751L10.7108 8.63945ZM9.15991 7.73567L10.5107 5.41779L10.4965 5.40949L10.4821 5.40136L9.15991 7.73567ZM7.90249 8.07449L5.58648 6.72048L5.58369 6.72529L7.90249 8.07449ZM3.12007 16.2938L0.801266 14.9446L0.796238 14.9533L0.791274 14.962L3.12007 16.2938ZM3.45966 17.5364L4.79475 15.2095L4.78735 15.2052L3.45966 17.5364ZM5.0199 18.4316L6.36224 16.1088L6.35498 16.1047L5.0199 18.4316ZM6.26714 18.1014L8.58297 19.4557L8.58576 19.4509L6.26714 18.1014ZM40.5316 5.89653L37.8489 5.89877L40.5316 5.89653ZM39.1481 4.15598L38.5406 6.76904L39.1481 4.15598ZM14.5469 37.8256L13.9152 35.2183L14.5469 37.8256ZM4.83724 17.9088C4.39213 18.8258 4.16119 19.8319 4.16184 20.8512L9.52736 20.8478C9.52723 20.6413 9.57401 20.4375 9.66416 20.2518L4.83724 17.9088ZM4.16218 20.8922L4.3132 30.38L9.67804 30.2946L9.52702 20.8068L4.16218 20.8922ZM4.56389 29.2042L1.27363 36.2654L6.13708 38.5316L9.42735 31.4704L4.56389 29.2042ZM1.3469 36.1199C1.07847 36.615 0.898837 37.1534 0.816147 37.7105L6.12352 38.4982C6.11422 38.5609 6.09401 38.6215 6.06381 38.6772L1.3469 36.1199ZM0.817818 37.6994C0.722075 38.3264 0.751184 38.9661 0.903471 39.5818L6.11203 38.2935C6.12949 38.3641 6.13283 38.4374 6.12185 38.5093L0.817818 37.6994ZM0.903471 39.5818C1.05576 40.1975 1.32822 40.777 1.70521 41.2871L6.02009 38.0979C6.06333 38.1564 6.09457 38.2229 6.11203 38.2935L0.903471 39.5818ZM1.70521 41.2871C2.08218 41.7971 2.55626 42.2277 3.10019 42.5539L5.86009 37.9526C5.92249 37.9901 5.97686 38.0395 6.02009 38.0979L1.70521 41.2871ZM3.10019 42.5539C3.64413 42.8802 4.24718 43.0957 4.87464 43.1881L5.65653 37.8799C5.72849 37.8905 5.79768 37.9152 5.86009 37.9526L3.10019 42.5539ZM4.85904 43.1858C5.83637 43.3356 6.83615 43.1809 7.72248 42.7426L5.34417 37.933C5.44569 37.8828 5.56021 37.8651 5.67214 37.8822L4.85904 43.1858ZM7.72248 42.7426C8.60879 42.3043 9.33866 41.6038 9.81288 40.7362L5.10479 38.1627C5.15908 38.0634 5.24266 37.9832 5.34417 37.933L7.72248 42.7426ZM9.88777 40.5885L13.5074 32.87L8.64958 30.5919L5.0299 38.3104L9.88777 40.5885ZM13.5527 32.7681C13.661 32.5098 13.8341 32.0649 13.9078 31.5091L8.58882 30.804C8.59882 30.7285 8.61342 30.6771 8.6194 30.6579C8.62454 30.6414 8.62386 30.6472 8.60435 30.6938L13.5527 32.7681ZM13.925 31.3364L13.9446 31.0454L8.59115 30.6856L8.57159 30.9767L13.925 31.3364ZM13.9506 30.8526L13.9224 24.987L8.55697 25.0128L8.58514 30.8784L13.9506 30.8526ZM10.1696 27.46L15.7322 29.8795L17.8723 24.9592L12.3098 22.5398L10.1696 27.46ZM14.1518 27.8347L15.0501 33.5672L20.3509 32.7366L19.4527 27.0041L14.1518 27.8347ZM15.0812 33.732C15.2919 34.6833 15.7862 35.5483 16.4989 36.2127L20.1577 32.2883C20.2392 32.3642 20.2957 32.4631 20.3198 32.5718L15.0812 33.732ZM16.4989 36.2127C17.2116 36.8772 18.1091 37.3098 19.0728 37.4533L19.8634 32.1464C19.9736 32.1628 20.0762 32.2123 20.1577 32.2883L16.4989 36.2127ZM19.0762 37.4538C20.3343 37.6396 21.615 37.3223 22.6408 36.5705L19.4691 32.2428C19.5816 32.1603 19.722 32.1255 19.86 32.1459L19.0762 37.4538ZM22.6408 36.5705C23.6665 35.8187 24.3548 34.6931 24.5566 33.4375L19.259 32.5862C19.2812 32.4486 19.3566 32.3252 19.4691 32.2428L22.6408 36.5705ZM24.5653 33.3795C24.6255 32.944 24.6228 32.531 24.5859 32.1612L19.247 32.6951C19.2471 32.6965 19.2468 32.6939 19.2468 32.6866C19.2469 32.6794 19.2475 32.6651 19.2504 32.6442L24.5653 33.3795ZM24.5661 32.0084L23.4699 25.088L18.1705 25.9275L19.2667 32.8479L24.5661 32.0084ZM23.4517 24.9857C23.304 24.2415 22.9837 23.5424 22.5164 22.9447L18.2894 26.2495C18.2391 26.1851 18.2046 26.1099 18.1887 26.0298L23.4517 24.9857ZM22.5164 22.9447C22.0491 22.3471 21.448 21.8675 20.7614 21.5447L18.4784 26.4003C18.4044 26.3655 18.3397 26.3139 18.2894 26.2495L22.5164 22.9447ZM20.7056 21.5192L15.7339 19.3189L13.5624 24.2253L18.5341 26.4257L20.7056 21.5192ZM16.972 23.1125L20.1378 17.6241L15.4901 14.9432L12.3242 20.4316L16.972 23.1125ZM15.7093 17.9473L17.2797 19.934L21.489 16.6068L19.9186 14.6201L15.7093 17.9473ZM17.3894 20.0641C17.8091 20.5309 18.3542 20.9303 18.9949 21.1858L20.982 16.2017C21.1516 16.2694 21.2804 16.3667 21.3794 16.4768L17.3894 20.0641ZM19.239 21.2697L25.2233 23.0108L26.7222 17.8588L20.7379 16.1178L19.239 21.2697ZM25.4004 23.0558C26.4035 23.2749 27.4518 23.1335 28.3612 22.6566L25.869 17.905C26.0766 17.7961 26.316 17.7638 26.5451 17.8138L25.4004 23.0558ZM28.3612 22.6566C29.2705 22.1796 29.9828 21.3976 30.3729 20.4478L25.4097 18.4092C25.4988 18.1924 25.6614 18.0139 25.869 17.905L28.3612 22.6566ZM30.376 20.4401C30.5924 19.9088 30.7018 19.34 30.6982 18.7664L25.3328 18.8005C25.3319 18.669 25.357 18.5387 25.4066 18.4169L30.376 20.4401ZM30.6982 18.7664C30.6945 18.1927 30.5778 17.6254 30.3548 17.0968L25.4115 19.1831C25.3603 19.062 25.3336 18.932 25.3328 18.8005L30.6982 18.7664ZM30.3548 17.0968C30.1317 16.5683 29.8067 16.0889 29.3982 15.6861L25.6307 19.5064C25.5371 19.414 25.4626 19.3042 25.4115 19.1831L30.3548 17.0968ZM29.3982 15.6861C28.9897 15.2833 28.5059 14.9649 27.9743 14.7492L25.957 19.7211C25.8352 19.6717 25.7243 19.5987 25.6307 19.5064L29.3982 15.6861ZM27.807 14.6878L27.7217 14.6596L26.039 19.7544L26.1243 19.7826L27.807 14.6878ZM27.6355 14.6327L22.436 13.1076L20.9258 18.2562L26.1253 19.7813L27.6355 14.6327ZM23.7386 13.9605L19.8247 9.282L15.7093 12.7247L19.6232 17.4033L23.7386 13.9605ZM19.7242 9.16853C18.7119 8.08878 17.3684 7.37753 15.9064 7.14741L15.0721 12.4477C15.3546 12.4921 15.6142 12.6296 15.8098 12.8382L19.7242 9.16853ZM15.8849 7.14413C14.6143 6.95464 13.3159 7.14087 12.1497 7.67989L14.4009 12.5503C14.6171 12.4504 14.8579 12.4158 15.0936 12.451L15.8849 7.14413ZM12.1497 7.67989C10.9835 8.21891 10.0004 9.08719 9.32141 10.1778L13.8763 13.0136C14.0022 12.8113 14.1846 12.6503 14.4009 12.5503L12.1497 7.67989ZM9.27914 10.2481L4.93098 17.7327L9.57041 20.4279L13.9186 12.9434L9.27914 10.2481ZM21.7578 32.3297L21.3799 35.1725L26.6986 35.8796L27.0765 33.0368L21.7578 32.3297ZM23.4076 32.9187L13.9152 35.2183L15.1785 40.433L24.6709 38.1334L23.4076 32.9187ZM14.7799 42.4601H38.9507V37.0946H14.7799V42.4601ZM38.9389 42.4601C39.5025 42.4625 40.061 42.3538 40.5825 42.14L38.5473 37.1754C38.679 37.1214 38.8201 37.094 38.9625 37.0946L38.9389 42.4601ZM40.5825 42.14C41.104 41.9262 41.5782 41.6116 41.9779 41.2142L38.1949 37.4092C38.2959 37.3089 38.4156 37.2294 38.5473 37.1754L40.5825 42.14ZM41.9779 41.2142C42.3776 40.8169 42.6949 40.3445 42.9117 39.8243L37.9591 37.7602C38.0138 37.6289 38.094 37.5096 38.1949 37.4092L41.9779 41.2142ZM42.9117 39.8243C43.1285 39.3041 43.2406 38.7462 43.2414 38.1826L37.8759 38.1748C37.8761 38.0325 37.9044 37.8916 37.9591 37.7602L42.9117 39.8243ZM43.2414 38.1764L43.2144 5.89429L37.8489 5.89877L37.8759 38.1809L43.2414 38.1764ZM39.7557 1.54291L39.456 1.47323L38.2409 6.69936L38.5406 6.76904L39.7557 1.54291ZM34.0794 4.85484L32.4958 11.9537L37.7326 13.122L39.3162 6.02304L34.0794 4.85484ZM34.0782 10.0632L30.7738 11.4467L32.846 16.3959L36.1503 15.0125L34.0782 10.0632ZM29.2846 13.0156L26.3543 21.1856L31.4048 22.9971L34.3351 14.827L29.2846 13.0156ZM26.4289 23.1828L29.2129 29.4341L34.1143 27.2513L31.3303 20.9999L26.4289 23.1828ZM29.1134 27.5096L28.3294 29.9095L33.4297 31.5757L34.2137 29.1758L29.1134 27.5096ZM30.108 28.1732L23.6456 30.1138L25.1887 35.2526L31.6511 33.312L30.108 28.1732ZM17.4274 12.0656C20.6661 12.0656 23.3144 9.44464 23.3144 6.1918H17.9489C17.9489 6.4602 17.724 6.70006 17.4274 6.70006V12.0656ZM23.3144 6.19061C23.3129 2.94186 20.6684 0.317241 17.4274 0.317241V5.68276C17.7216 5.68276 17.9487 5.92208 17.9489 6.193L23.3144 6.19061ZM17.4274 0.317241C14.1883 0.317241 11.5397 2.94018 11.5397 6.1918H16.9052C16.9052 5.92375 17.1313 5.68276 17.4274 5.68276V0.317241ZM11.5397 6.19061C11.5382 9.44588 14.1895 12.0656 17.4274 12.0656V6.70006C17.1286 6.70006 16.9051 6.45896 16.9052 6.193L11.5397 6.19061ZM13.377 11.219C13.6131 10.8083 13.7656 10.3549 13.8256 9.88504L8.50344 9.2046C8.53314 8.97229 8.60852 8.74816 8.72522 8.54513L13.377 11.219ZM13.8256 9.88504C13.8857 9.41515 13.8522 8.93802 13.7271 8.48114L8.55217 9.89864C8.49031 9.67277 8.47374 9.43689 8.50344 9.2046L13.8256 9.88504ZM13.7271 8.48114C13.6019 8.02426 13.3876 7.59666 13.0964 7.22297L8.86394 10.5207C8.72 10.3359 8.61404 10.1245 8.55217 9.89864L13.7271 8.48114ZM13.0964 7.22297C12.8053 6.84929 12.4431 6.53691 12.0306 6.30384L9.39087 10.9751C9.18696 10.8598 9.00788 10.7054 8.86394 10.5207L13.0964 7.22297ZM12.0615 6.32157L10.5107 5.41779L7.80912 10.0535L9.35997 10.9573L12.0615 6.32157ZM10.4821 5.40136C9.65649 4.93371 8.67993 4.80992 7.76372 5.0568L9.15971 10.2375C8.71414 10.3576 8.23922 10.2974 7.83771 10.07L10.4821 5.40136ZM7.76372 5.0568C6.84751 5.30368 6.06537 5.90136 5.58649 6.72049L10.2185 9.42849C9.98562 9.82682 9.60527 10.1175 9.15971 10.2375L7.76372 5.0568ZM5.58369 6.72529L0.801266 14.9446L5.43888 17.643L10.2213 9.42369L5.58369 6.72529ZM0.791274 14.962C0.556768 15.372 0.405421 15.8242 0.34589 16.2928L5.66862 16.9691C5.63925 17.2003 5.56458 17.4234 5.44887 17.6257L0.791274 14.962ZM0.34589 16.2928C0.286358 16.7614 0.319811 17.2371 0.444333 17.6928L5.62005 16.2783C5.68149 16.5031 5.698 16.7379 5.66862 16.9691L0.34589 16.2928ZM0.444333 17.6928C0.568855 18.1484 0.782004 18.5751 1.07159 18.9482L5.31056 15.6589C5.45345 15.843 5.55861 16.0535 5.62005 16.2783L0.444333 17.6928ZM1.07159 18.9482C1.36118 19.3214 1.72152 19.6339 2.13198 19.8676L4.78735 15.2052C4.98987 15.3206 5.16767 15.4747 5.31056 15.6589L1.07159 18.9482ZM2.12458 19.8634L3.68481 20.7586L6.35498 16.1047L4.79475 15.2095L2.12458 19.8634ZM3.67755 20.7544C4.50085 21.2302 5.47904 21.3607 6.39827 21.1173L5.02504 15.9305C5.47683 15.8109 5.9576 15.875 6.36224 16.1088L3.67755 20.7544ZM6.39827 21.1173C7.3175 20.8739 8.10296 20.2765 8.58297 19.4557L3.95132 16.7471C4.18722 16.3437 4.57325 16.0501 5.02504 15.9305L6.39827 21.1173ZM8.58576 19.4509L13.3697 11.2316L8.73251 8.53253L3.94853 16.7519L8.58576 19.4509ZM39.456 1.47323C37.0355 0.910481 34.6205 2.4294 34.0794 4.85484L39.3162 6.02304C39.208 6.50813 38.725 6.81191 38.2409 6.69936L39.456 1.47323ZM43.2144 5.89429C43.2127 3.81636 41.7796 2.01347 39.7557 1.54291L38.5406 6.76904C38.1358 6.67493 37.8492 6.31435 37.8489 5.89877L43.2144 5.89429ZM11.1132 38.9949C11.2232 40.9395 12.8322 42.4601 14.7799 42.4601V37.0946C15.6778 37.0946 16.4195 37.7955 16.4702 38.692L11.1132 38.9949ZM13.9152 35.2183C12.192 35.6357 11.0131 37.2247 11.1132 38.9949L16.4702 38.692C16.5163 39.508 15.9729 40.2405 15.1785 40.433L13.9152 35.2183Z" fill="#0080FF" mask="url(#path-1-outside-1_66_9087)"/>
</svg>
