<svg width="40" height="40" viewBox="0 0 40 40" fill="none" xmlns="http://www.w3.org/2000/svg">
<g clip-path="url(#clip0_66_9090)">
<path d="M6.30469 6.30964V10.6997M19.129 6.30964V10.6997M12.7183 3.04102V7.43103" stroke="#0080FF" stroke-width="3.06601" stroke-linecap="round" stroke-linejoin="round"/>
<path d="M32.3481 12.934C32.3481 13.6459 32.6309 14.3286 33.1343 14.8319C33.6376 15.3353 34.3203 15.6181 35.0322 15.6181C35.744 15.6181 36.4267 15.3353 36.9301 14.8319C37.4334 14.3286 37.7162 13.6459 37.7162 12.934C37.7162 12.2222 37.4334 11.5395 36.9301 11.0361C36.4267 10.5328 35.744 10.25 35.0322 10.25C34.3203 10.25 33.6376 10.5328 33.1343 11.0361C32.6309 11.5395 32.3481 12.2222 32.3481 12.934Z" stroke="#0080FF" stroke-width="3.06601" stroke-linecap="round"/>
<path d="M30.4701 24.3847L31.0659 24.6461C35.2255 26.6135 36.375 29.1598 36.375 32.6561V33.4936C36.375 34.239 36.0788 34.9538 35.5518 35.4809C35.0247 36.008 34.3098 36.3041 33.5644 36.3041H4.61057C3.69154 36.3041 2.82871 35.8516 2.47459 35.0028C1.69608 33.1226 0.791092 29.3453 3.14349 24.6461C6.5442 17.8559 14.9111 16.3635 20.2707 19.174L20.5237 19.3033" stroke="#0080FF" stroke-width="3.06601" stroke-linecap="round" stroke-linejoin="round"/>
<path d="M28.5498 28.1186C31.1579 25.2575 31.2928 21.1345 28.8533 18.9142C26.4138 16.6939 22.3245 17.2138 19.7192 20.0749C17.3499 22.6746 17.0211 26.3114 18.8057 28.6188C18.9856 28.8549 19.1908 29.077 19.4156 29.2793" stroke="#0080FF" stroke-width="3.06601" stroke-linecap="round"/>
<path d="M33.1818 14.8809L29.0054 19.0545" stroke="#0080FF" stroke-width="3.06601" stroke-linecap="round" stroke-linejoin="round"/>
</g>
<defs>
<clipPath id="clip0_66_9090">
<rect width="39.3471" height="39.3471" fill="white"/>
</clipPath>
</defs>
</svg>
