<svg xmlns="http://www.w3.org/2000/svg" width="76" height="76" viewBox="0 0 76 76" fill="none">
  <mask id="path-1-outside-1_66_9923" maskUnits="userSpaceOnUse" x="16" y="16" width="44" height="44" fill="black">
    <rect fill="white" x="16" y="16" width="44" height="44"/>
    <path d="M23.2507 35.0803C22.9831 35.6317 22.8442 36.2366 22.8446 36.8495L22.9956 46.3373L19.7054 53.3985C19.5862 53.6183 19.5065 53.8571 19.4698 54.1044C19.4275 54.3819 19.4403 54.6651 19.5078 54.9376C19.5752 55.2102 19.6958 55.4667 19.8626 55.6925C20.0295 55.9183 20.2394 56.1089 20.4801 56.2533C20.7209 56.3977 20.9878 56.4931 21.2656 56.534C21.6983 56.6003 22.1409 56.5318 22.5333 56.3378C22.9257 56.1438 23.2489 55.8336 23.4588 55.4495L27.0785 47.7309C27.1536 47.5517 27.2209 47.3631 27.2483 47.1566L27.2679 46.8655L27.2397 40.9999L32.8022 43.4194L33.7005 49.1519C33.7938 49.5732 34.0127 49.9563 34.3283 50.2505C34.6439 50.5447 35.0413 50.7363 35.4681 50.7999C36.0282 50.8826 36.5983 50.7413 37.0549 50.4066C37.5116 50.072 37.818 49.5709 37.9078 49.0119C37.9352 48.8139 37.9352 48.6159 37.9164 48.4281L36.8202 41.5077C36.7543 41.1757 36.6114 40.8638 36.4029 40.5971C36.1944 40.3305 35.9262 40.1165 35.6199 39.9725L30.6481 37.7721L33.814 32.2837L35.3844 34.2704C35.5448 34.4488 35.7529 34.5998 35.9884 34.6937L41.9727 36.4348C42.3598 36.5193 42.7642 36.4648 43.1151 36.2808C43.466 36.0967 43.7408 35.795 43.8913 35.4285C43.9747 35.2237 44.0169 35.0045 44.0155 34.7834C44.0141 34.5623 43.9691 34.3437 43.8831 34.14C43.7971 33.9363 43.6719 33.7515 43.5144 33.5962C43.357 33.441 43.1705 33.3183 42.9657 33.2352L42.8804 33.207L37.6809 31.6819L33.767 27.0034C33.1631 26.3592 32.3615 25.9348 31.4893 25.7975C30.7361 25.6852 29.9665 25.7956 29.2753 26.1151C28.5841 26.4346 28.0013 26.9493 27.5989 27.5957L23.2507 35.0803ZM40.4172 48.6832L40.0392 51.526L30.5469 53.8256C30.0825 53.9381 29.7647 54.3664 29.7917 54.8434C29.8214 55.3675 30.255 55.7773 30.7799 55.7773H54.9507C55.1613 55.7783 55.37 55.7376 55.5649 55.6577C55.7598 55.5778 55.937 55.4602 56.0864 55.3117C56.2358 55.1632 56.3544 54.9867 56.4354 54.7923C56.5164 54.5978 56.5583 54.3893 56.5586 54.1787L56.5316 21.8965C56.5309 21.0654 55.9577 20.3442 55.1481 20.156L54.8484 20.0863C53.8802 19.8612 52.9143 20.4688 52.6978 21.4389L51.1142 28.5378L47.8099 29.9213L44.8796 38.0913L47.6636 44.3427L46.8795 46.7426L40.4172 48.6832ZM33.4274 25.3828C35.195 25.3828 36.6316 23.9524 36.6316 22.1918C36.6308 20.432 35.195 19 33.4274 19C31.6598 19 30.2225 20.432 30.2225 22.1918C30.2217 23.9524 31.6591 25.3828 33.4274 25.3828ZM27.0511 25.8821C27.1108 25.7782 27.1494 25.6636 27.1645 25.5448C27.1797 25.426 27.1713 25.3054 27.1396 25.1899C27.108 25.0744 27.0538 24.9663 26.9802 24.8718C26.9066 24.7773 26.815 24.6984 26.7108 24.6395L25.1599 23.7357C24.9479 23.6156 24.697 23.5838 24.4617 23.6472C24.2264 23.7106 24.0255 23.8641 23.9025 24.0745L19.1201 32.2938C19.0607 32.3977 19.0223 32.5122 19.0073 32.6309C18.9922 32.7496 19.0007 32.8701 19.0322 32.9856C19.0637 33.101 19.1177 33.209 19.1911 33.3036C19.2644 33.3981 19.3557 33.4772 19.4597 33.5364L21.0199 34.4316C21.2292 34.5526 21.4779 34.5858 21.7117 34.5239C21.9454 34.462 22.1451 34.3101 22.2671 34.1014L27.0511 25.8821Z"/>
  </mask>
  <path d="M23.2507 35.0803L20.931 33.7327L20.8808 33.819L20.8372 33.9088L23.2507 35.0803ZM22.8446 36.8495L20.1618 36.8512L20.1619 36.8717L20.1622 36.8922L22.8446 36.8495ZM22.9956 46.3373L25.4273 47.4704L25.6879 46.9113L25.678 46.2946L22.9956 46.3373ZM19.7054 53.3985L22.0638 54.6772L22.1027 54.6055L22.1371 54.5316L19.7054 53.3985ZM19.4698 54.1044L22.1219 54.5093L22.1235 54.4982L19.4698 54.1044ZM21.2656 56.534L21.6721 53.8822L21.6643 53.881L21.6565 53.8799L21.2656 56.534ZM23.4588 55.4495L25.8129 56.7362L25.8526 56.6635L25.8878 56.5885L23.4588 55.4495ZM27.0785 47.7309L29.5074 48.87L29.5311 48.8195L29.5527 48.7681L27.0785 47.7309ZM27.2483 47.1566L29.9078 47.5091L29.9192 47.4231L29.925 47.3364L27.2483 47.1566ZM27.2679 46.8655L29.9446 47.0454L29.9511 46.9491L29.9506 46.8526L27.2679 46.8655ZM27.2397 40.9999L28.3098 38.5398L24.5372 36.8989L24.557 41.0128L27.2397 40.9999ZM32.8022 43.4194L35.4527 43.0041L35.2244 41.5474L33.8723 40.9592L32.8022 43.4194ZM33.7005 49.1519L31.0501 49.5672L31.0631 49.6501L31.0812 49.732L33.7005 49.1519ZM35.4681 50.7999L35.0728 53.4533L35.0762 53.4538L35.4681 50.7999ZM37.9078 49.0119L40.5566 49.4375L40.5612 49.4085L40.5653 49.3795L37.9078 49.0119ZM37.9164 48.4281L40.5859 48.1612L40.5782 48.0845L40.5661 48.0084L37.9164 48.4281ZM36.8202 41.5077L39.4699 41.088L39.4618 41.0366L39.4517 40.9857L36.8202 41.5077ZM35.6199 39.9725L36.7614 37.5447L36.7337 37.5316L36.7056 37.5192L35.6199 39.9725ZM30.6481 37.7721L28.3242 36.4316L26.8328 39.0173L29.5624 40.2253L30.6481 37.7721ZM33.814 32.2837L35.9186 30.6201L33.4662 27.5174L31.4901 30.9432L33.814 32.2837ZM35.3844 34.2704L33.2797 35.934L33.3325 36.0008L33.3894 36.0641L35.3844 34.2704ZM35.9884 34.6937L34.9949 37.1858L35.1149 37.2336L35.239 37.2697L35.9884 34.6937ZM41.9727 36.4348L41.2233 39.0108L41.311 39.0363L41.4004 39.0558L41.9727 36.4348ZM43.8913 35.4285L46.3729 36.4478L46.376 36.4401L43.8913 35.4285ZM42.9657 33.2352L43.9743 30.7492L43.8917 30.7157L43.807 30.6878L42.9657 33.2352ZM42.8804 33.207L43.7217 30.6596L43.6788 30.6454L43.6355 30.6327L42.8804 33.207ZM37.6809 31.6819L35.6232 33.4033L36.1452 34.0273L36.9258 34.2562L37.6809 31.6819ZM33.767 27.0034L35.8247 25.282L35.776 25.2238L35.7242 25.1685L33.767 27.0034ZM31.4893 25.7975L31.9064 23.1474L31.8957 23.1457L31.8849 23.1441L31.4893 25.7975ZM27.5989 27.5957L25.3214 26.1778L25.2997 26.2126L25.2791 26.2481L27.5989 27.5957ZM40.4172 48.6832L39.6456 46.1138L37.9861 46.6121L37.7578 48.3297L40.4172 48.6832ZM40.0392 51.526L40.6709 54.1334L42.4565 53.7008L42.6986 51.8796L40.0392 51.526ZM54.9507 55.7773L54.9625 53.0946H54.9507V55.7773ZM56.5586 54.1787L59.2414 54.1826L59.2414 54.1764L56.5586 54.1787ZM51.1142 28.5378L52.1503 31.0125L53.4305 30.4765L53.7326 29.122L51.1142 28.5378ZM47.8099 29.9213L46.7738 27.4467L45.6837 27.9031L45.2846 29.0156L47.8099 29.9213ZM44.8796 38.0913L42.3543 37.1856L41.9908 38.1991L42.4289 39.1828L44.8796 38.0913ZM47.6636 44.3427L50.2137 45.1758L50.5343 44.1944L50.1143 43.2513L47.6636 44.3427ZM46.8795 46.7426L47.6511 49.312L48.9942 48.9087L49.4297 47.5757L46.8795 46.7426ZM36.6316 22.1918H39.3144L39.3144 22.1906L36.6316 22.1918ZM30.2225 22.1918L32.9052 22.193V22.1918H30.2225ZM27.0511 25.8821L29.3697 27.2316L29.3734 27.2253L29.377 27.219L27.0511 25.8821ZM26.9802 24.8718L24.8639 26.5207L26.9802 24.8718ZM26.7108 24.6395L25.36 26.9573L25.3754 26.9663L25.3909 26.9751L26.7108 24.6395ZM25.1599 23.7357L26.5107 21.4178L26.4965 21.4095L26.4821 21.4014L25.1599 23.7357ZM23.9025 24.0745L21.5865 22.7205L21.5837 22.7253L23.9025 24.0745ZM19.1201 32.2938L16.8013 30.9446L16.7962 30.9533L16.7913 30.962L19.1201 32.2938ZM19.4597 33.5364L20.7948 31.2095L20.7873 31.2052L19.4597 33.5364ZM21.0199 34.4316L22.3622 32.1088L22.355 32.1047L21.0199 34.4316ZM22.2671 34.1014L24.583 35.4557L24.5858 35.4509L22.2671 34.1014ZM56.5316 21.8965L53.8489 21.8988L56.5316 21.8965ZM55.1481 20.156L54.5406 22.769L55.1481 20.156ZM30.5469 53.8256L29.9152 51.2183L30.5469 53.8256ZM20.8372 33.9088C20.3921 34.8258 20.1612 35.8319 20.1618 36.8512L25.5274 36.8478C25.5272 36.6413 25.574 36.4375 25.6642 36.2518L20.8372 33.9088ZM20.1622 36.8922L20.3132 46.38L25.678 46.2946L25.527 36.8068L20.1622 36.8922ZM20.5639 45.2042L17.2736 52.2654L22.1371 54.5316L25.4273 47.4704L20.5639 45.2042ZM17.3469 52.1199C17.0785 52.615 16.8988 53.1534 16.8161 53.7105L22.1235 54.4982C22.1142 54.5609 22.094 54.6215 22.0638 54.6772L17.3469 52.1199ZM16.8178 53.6994C16.7221 54.3264 16.7512 54.9661 16.9035 55.5818L22.112 54.2935C22.1295 54.3641 22.1328 54.4374 22.1219 54.5093L16.8178 53.6994ZM16.9035 55.5818C17.0558 56.1975 17.3282 56.777 17.7052 57.2871L22.0201 54.0979C22.0633 54.1564 22.0946 54.2229 22.112 54.2935L16.9035 55.5818ZM17.7052 57.2871C18.0822 57.7971 18.5563 58.2277 19.1002 58.5539L21.8601 53.9526C21.9225 53.9901 21.9769 54.0395 22.0201 54.0979L17.7052 57.2871ZM19.1002 58.5539C19.6441 58.8802 20.2472 59.0957 20.8746 59.1881L21.6565 53.8799C21.7285 53.8905 21.7977 53.9152 21.8601 53.9526L19.1002 58.5539ZM20.859 59.1858C21.8364 59.3356 22.8361 59.1809 23.7225 58.7426L21.3442 53.933C21.4457 53.8828 21.5602 53.8651 21.6721 53.8822L20.859 59.1858ZM23.7225 58.7426C24.6088 58.3043 25.3387 57.6038 25.8129 56.7362L21.1048 54.1627C21.1591 54.0634 21.2427 53.9832 21.3442 53.933L23.7225 58.7426ZM25.8878 56.5885L29.5074 48.87L24.6496 46.5919L21.0299 54.3104L25.8878 56.5885ZM29.5527 48.7681C29.661 48.5098 29.8341 48.0649 29.9078 47.5091L24.5888 46.804C24.5988 46.7285 24.6134 46.6771 24.6194 46.6579C24.6245 46.6414 24.6239 46.6472 24.6043 46.6938L29.5527 48.7681ZM29.925 47.3364L29.9446 47.0454L24.5911 46.6856L24.5716 46.9767L29.925 47.3364ZM29.9506 46.8526L29.9224 40.987L24.557 41.0128L24.5851 46.8784L29.9506 46.8526ZM26.1696 43.46L31.7322 45.8795L33.8723 40.9592L28.3098 38.5398L26.1696 43.46ZM30.1518 43.8347L31.0501 49.5672L36.3509 48.7366L35.4527 43.0041L30.1518 43.8347ZM31.0812 49.732C31.2919 50.6833 31.7862 51.5483 32.4989 52.2127L36.1577 48.2883C36.2392 48.3642 36.2957 48.4631 36.3198 48.5718L31.0812 49.732ZM32.4989 52.2127C33.2116 52.8772 34.1091 53.3098 35.0728 53.4533L35.8634 48.1464C35.9736 48.1628 36.0762 48.2123 36.1577 48.2883L32.4989 52.2127ZM35.0762 53.4538C36.3343 53.6396 37.615 53.3223 38.6408 52.5705L35.4691 48.2428C35.5816 48.1603 35.722 48.1255 35.86 48.1459L35.0762 53.4538ZM38.6408 52.5705C39.6665 51.8187 40.3548 50.6931 40.5566 49.4375L35.259 48.5862C35.2812 48.4486 35.3566 48.3252 35.4691 48.2428L38.6408 52.5705ZM40.5653 49.3795C40.6255 48.944 40.6228 48.531 40.5859 48.1612L35.247 48.6951C35.2471 48.6965 35.2468 48.6939 35.2468 48.6866C35.2469 48.6794 35.2475 48.6651 35.2504 48.6442L40.5653 49.3795ZM40.5661 48.0084L39.4699 41.088L34.1705 41.9275L35.2667 48.8479L40.5661 48.0084ZM39.4517 40.9857C39.304 40.2415 38.9837 39.5424 38.5164 38.9447L34.2894 42.2495C34.2391 42.1851 34.2046 42.1099 34.1887 42.0298L39.4517 40.9857ZM38.5164 38.9447C38.0491 38.3471 37.448 37.8675 36.7614 37.5447L34.4784 42.4003C34.4044 42.3655 34.3397 42.3139 34.2894 42.2495L38.5164 38.9447ZM36.7056 37.5192L31.7339 35.3189L29.5624 40.2253L34.5341 42.4257L36.7056 37.5192ZM32.972 39.1125L36.1378 33.6241L31.4901 30.9432L28.3242 36.4316L32.972 39.1125ZM31.7093 33.9473L33.2797 35.934L37.489 32.6068L35.9186 30.6201L31.7093 33.9473ZM33.3894 36.0641C33.8091 36.5309 34.3542 36.9303 34.9949 37.1858L36.982 32.2017C37.1516 32.2694 37.2804 32.3667 37.3794 32.4768L33.3894 36.0641ZM35.239 37.2697L41.2233 39.0108L42.7222 33.8588L36.7379 32.1178L35.239 37.2697ZM41.4004 39.0558C42.4035 39.2749 43.4518 39.1335 44.3612 38.6566L41.869 33.905C42.0766 33.7961 42.316 33.7638 42.5451 33.8138L41.4004 39.0558ZM44.3612 38.6566C45.2705 38.1796 45.9828 37.3976 46.3729 36.4478L41.4097 34.4092C41.4988 34.1924 41.6614 34.0139 41.869 33.905L44.3612 38.6566ZM46.376 36.4401C46.5924 35.9088 46.7018 35.34 46.6982 34.7664L41.3328 34.8005C41.3319 34.669 41.357 34.5387 41.4066 34.4169L46.376 36.4401ZM46.6982 34.7664C46.6945 34.1927 46.5778 33.6254 46.3548 33.0968L41.4115 35.1831C41.3603 35.062 41.3336 34.932 41.3328 34.8005L46.6982 34.7664ZM46.3548 33.0968C46.1317 32.5683 45.8067 32.0889 45.3982 31.6861L41.6307 35.5064C41.5371 35.414 41.4626 35.3042 41.4115 35.1831L46.3548 33.0968ZM45.3982 31.6861C44.9897 31.2833 44.5059 30.9649 43.9743 30.7492L41.957 35.7211C41.8352 35.6717 41.7243 35.5987 41.6307 35.5064L45.3982 31.6861ZM43.807 30.6878L43.7217 30.6596L42.039 35.7544L42.1243 35.7826L43.807 30.6878ZM43.6355 30.6327L38.436 29.1076L36.9258 34.2562L42.1253 35.7813L43.6355 30.6327ZM39.7386 29.9605L35.8247 25.282L31.7093 28.7247L35.6232 33.4033L39.7386 29.9605ZM35.7242 25.1685C34.7119 24.0888 33.3684 23.3775 31.9064 23.1474L31.0721 28.4477C31.3546 28.4921 31.6142 28.6296 31.8098 28.8382L35.7242 25.1685ZM31.8849 23.1441C30.6143 22.9546 29.3159 23.1409 28.1497 23.6799L30.4009 28.5503C30.6171 28.4504 30.8579 28.4158 31.0936 28.451L31.8849 23.1441ZM28.1497 23.6799C26.9835 24.2189 26.0004 25.0872 25.3214 26.1778L29.8763 29.0136C30.0022 28.8113 30.1846 28.6503 30.4009 28.5503L28.1497 23.6799ZM25.2791 26.2481L20.931 33.7327L25.5704 36.4279L29.9186 28.9434L25.2791 26.2481ZM37.7578 48.3297L37.3799 51.1725L42.6986 51.8796L43.0765 49.0368L37.7578 48.3297ZM39.4076 48.9187L29.9152 51.2183L31.1785 56.433L40.6709 54.1334L39.4076 48.9187ZM30.7799 58.4601H54.9507V53.0946H30.7799V58.4601ZM54.9389 58.4601C55.5025 58.4625 56.061 58.3538 56.5825 58.14L54.5473 53.1754C54.679 53.1214 54.8201 53.094 54.9625 53.0946L54.9389 58.4601ZM56.5825 58.14C57.104 57.9262 57.5782 57.6116 57.9779 57.2142L54.1949 53.4092C54.2959 53.3089 54.4156 53.2294 54.5473 53.1754L56.5825 58.14ZM57.9779 57.2142C58.3776 56.8169 58.6949 56.3445 58.9117 55.8243L53.9591 53.7602C54.0138 53.6289 54.094 53.5096 54.1949 53.4092L57.9779 57.2142ZM58.9117 55.8243C59.1285 55.3041 59.2406 54.7462 59.2414 54.1826L53.8759 54.1748C53.8761 54.0325 53.9044 53.8916 53.9591 53.7602L58.9117 55.8243ZM59.2414 54.1764L59.2144 21.8943L53.8489 21.8988L53.8759 54.1809L59.2414 54.1764ZM55.7557 17.5429L55.456 17.4732L54.2409 22.6994L54.5406 22.769L55.7557 17.5429ZM50.0794 20.8548L48.4958 27.9537L53.7326 29.122L55.3162 22.023L50.0794 20.8548ZM50.0782 26.0632L46.7738 27.4467L48.846 32.3959L52.1503 31.0125L50.0782 26.0632ZM45.2846 29.0156L42.3543 37.1856L47.4048 38.9971L50.3351 30.827L45.2846 29.0156ZM42.4289 39.1828L45.2129 45.4341L50.1143 43.2513L47.3303 36.9999L42.4289 39.1828ZM45.1134 43.5096L44.3294 45.9095L49.4297 47.5757L50.2137 45.1758L45.1134 43.5096ZM46.108 44.1732L39.6456 46.1138L41.1887 51.2526L47.6511 49.312L46.108 44.1732ZM33.4274 28.0656C36.6661 28.0656 39.3144 25.4446 39.3144 22.1918H33.9489C33.9489 22.4602 33.724 22.7001 33.4274 22.7001V28.0656ZM39.3144 22.1906C39.3129 18.9419 36.6684 16.3172 33.4274 16.3172V21.6828C33.7216 21.6828 33.9487 21.9221 33.9489 22.193L39.3144 22.1906ZM33.4274 16.3172C30.1883 16.3172 27.5397 18.9402 27.5397 22.1918H32.9052C32.9052 21.9238 33.1313 21.6828 33.4274 21.6828V16.3172ZM27.5397 22.1906C27.5382 25.4459 30.1895 28.0656 33.4274 28.0656V22.7001C33.1286 22.7001 32.9051 22.459 32.9052 22.193L27.5397 22.1906ZM29.377 27.219C29.6131 26.8083 29.7656 26.3549 29.8256 25.885L24.5034 25.2046C24.5331 24.9723 24.6085 24.7482 24.7252 24.5451L29.377 27.219ZM29.8256 25.885C29.8857 25.4152 29.8522 24.938 29.7271 24.4811L24.5522 25.8986C24.4903 25.6728 24.4737 25.4369 24.5034 25.2046L29.8256 25.885ZM29.7271 24.4811C29.6019 24.0243 29.3876 23.5967 29.0964 23.223L24.8639 26.5207C24.72 26.3359 24.614 26.1245 24.5522 25.8986L29.7271 24.4811ZM29.0964 23.223C28.8053 22.8493 28.4431 22.5369 28.0306 22.3038L25.3909 26.9751C25.187 26.8598 25.0079 26.7054 24.8639 26.5207L29.0964 23.223ZM28.0615 22.3216L26.5107 21.4178L23.8091 26.0535L25.36 26.9573L28.0615 22.3216ZM26.4821 21.4014C25.6565 20.9337 24.6799 20.8099 23.7637 21.0568L25.1597 26.2375C24.7141 26.3576 24.2392 26.2974 23.8377 26.07L26.4821 21.4014ZM23.7637 21.0568C22.8475 21.3037 22.0654 21.9014 21.5865 22.7205L26.2185 25.4285C25.9856 25.8268 25.6053 26.1175 25.1597 26.2375L23.7637 21.0568ZM21.5837 22.7253L16.8013 30.9446L21.4389 33.643L26.2213 25.4237L21.5837 22.7253ZM16.7913 30.962C16.5568 31.372 16.4054 31.8242 16.3459 32.2928L21.6686 32.9691C21.6393 33.2003 21.5646 33.4234 21.4489 33.6257L16.7913 30.962ZM16.3459 32.2928C16.2864 32.7614 16.3198 33.2371 16.4443 33.6928L21.6201 32.2783C21.6815 32.5031 21.698 32.7379 21.6686 32.9691L16.3459 32.2928ZM16.4443 33.6928C16.5689 34.1484 16.782 34.5751 17.0716 34.9482L21.3106 31.6589C21.4534 31.843 21.5586 32.0535 21.6201 32.2783L16.4443 33.6928ZM17.0716 34.9482C17.3612 35.3214 17.7215 35.6339 18.132 35.8676L20.7873 31.2052C20.9899 31.3206 21.1677 31.4747 21.3106 31.6589L17.0716 34.9482ZM18.1246 35.8634L19.6848 36.7586L22.355 32.1047L20.7947 31.2095L18.1246 35.8634ZM19.6776 36.7544C20.5009 37.2302 21.479 37.3607 22.3983 37.1173L21.025 31.9305C21.4768 31.8109 21.9576 31.875 22.3622 32.1088L19.6776 36.7544ZM22.3983 37.1173C23.3175 36.8739 24.103 36.2765 24.583 35.4557L19.9513 32.7471C20.1872 32.3437 20.5732 32.0501 21.025 31.9305L22.3983 37.1173ZM24.5858 35.4509L29.3697 27.2316L24.7325 24.5325L19.9485 32.7519L24.5858 35.4509ZM55.456 17.4732C53.0355 16.9105 50.6205 18.4294 50.0794 20.8548L55.3162 22.023C55.208 22.5081 54.725 22.8119 54.2409 22.6994L55.456 17.4732ZM59.2144 21.8943C59.2127 19.8164 57.7796 18.0135 55.7557 17.5429L54.5406 22.769C54.1358 22.6749 53.8492 22.3144 53.8489 21.8988L59.2144 21.8943ZM27.1132 54.9949C27.2232 56.9395 28.8322 58.4601 30.7799 58.4601V53.0946C31.6778 53.0946 32.4195 53.7955 32.4702 54.692L27.1132 54.9949ZM29.9152 51.2183C28.192 51.6357 27.0131 53.2247 27.1132 54.9949L32.4702 54.692C32.5163 55.508 31.9729 56.2405 31.1785 56.433L29.9152 51.2183Z" fill="#0080FF" mask="url(#path-1-outside-1_66_9923)"/>
</svg>
