<svg width="35" height="33" viewBox="0 0 35 33" fill="none" xmlns="http://www.w3.org/2000/svg">
<path d="M31.5224 7.88133H20.2449L25.8845 2.24342C26.131 1.99697 26.2694 1.6627 26.2694 1.31416C26.2694 0.965626 26.131 0.631363 25.8845 0.38491C25.638 0.138456 25.3038 0 24.9552 0C24.6067 0 24.2724 0.138456 24.026 0.38491L17.0746 7.3379L10.1233 0.38491C10.0013 0.262878 9.85639 0.166078 9.69695 0.100035C9.5375 0.0339917 9.36662 0 9.19404 0C9.02146 0 8.85057 0.0339917 8.69113 0.100035C8.53169 0.166078 8.38681 0.262878 8.26478 0.38491C8.01833 0.631363 7.87987 0.965626 7.87987 1.31416C7.87987 1.6627 8.01833 1.99697 8.26478 2.24342L13.9043 7.88133H2.62687C1.93018 7.88133 1.26202 8.15809 0.769392 8.65073C0.276758 9.14336 0 9.81151 0 10.5082V30.2097C0 30.9064 0.276758 31.5746 0.769392 32.0672C1.26202 32.5598 1.93018 32.8366 2.62687 32.8366H31.5224C32.2191 32.8366 32.8873 32.5598 33.3799 32.0672C33.8725 31.5746 34.1493 30.9064 34.1493 30.2097V10.5082C34.1493 9.81151 33.8725 9.14336 33.3799 8.65073C32.8873 8.15809 32.2191 7.88133 31.5224 7.88133ZM2.62687 10.5082H19.7015V30.2097H2.62687V10.5082ZM31.5224 30.2097H22.3284V10.5082H31.5224V30.2097ZM28.8955 16.4187C28.8955 16.8083 28.78 17.1892 28.5635 17.5132C28.347 17.8372 28.0393 18.0897 27.6793 18.2388C27.3193 18.388 26.9232 18.427 26.541 18.3509C26.1589 18.2749 25.8078 18.0873 25.5323 17.8118C25.2568 17.5362 25.0691 17.1852 24.9931 16.803C24.9171 16.4208 24.9561 16.0247 25.1052 15.6647C25.2543 15.3047 25.5068 14.997 25.8308 14.7805C26.1548 14.564 26.5357 14.4485 26.9254 14.4485C27.4479 14.4485 27.949 14.6561 28.3185 15.0255C28.688 15.395 28.8955 15.8961 28.8955 16.4187ZM28.8955 24.2993C28.8955 24.6889 28.78 25.0698 28.5635 25.3938C28.347 25.7178 28.0393 25.9703 27.6793 26.1194C27.3193 26.2686 26.9232 26.3076 26.541 26.2316C26.1589 26.1555 25.8078 25.9679 25.5323 25.6924C25.2568 25.4168 25.0691 25.0658 24.9931 24.6836C24.9171 24.3014 24.9561 23.9053 25.1052 23.5453C25.2543 23.1853 25.5068 22.8776 25.8308 22.6611C26.1548 22.4447 26.5357 22.3291 26.9254 22.3291C27.4479 22.3291 27.949 22.5367 28.3185 22.9062C28.688 23.2756 28.8955 23.7767 28.8955 24.2993Z" fill="#0080FF"/>
</svg>
