<svg xmlns="http://www.w3.org/2000/svg" width="76" height="76" viewBox="0 0 76 76" fill="none">
  <path d="M56.0014 37.3358C54.3958 30.0777 52.0145 25.4477 48.1979 24.3195C47.4587 24.1038 46.6922 23.9963 45.9222 24.0001C43.5758 24.0001 41.7242 25.3963 37.5454 25.3963C33.3666 25.3963 31.5114 24.0001 29.1686 24.0001C28.3664 23.996 27.5676 24.1034 26.7951 24.3195C22.9732 25.4477 20.612 30.082 18.9881 37.3358C17.3302 44.7449 17.6304 50.5991 20.8712 51.723C23.1399 52.5083 25.1686 50.8844 27.0901 48.4944C29.2715 45.772 31.9582 44.9343 37.5454 44.9343C43.1325 44.9343 45.7145 45.772 47.8994 48.4944C49.8191 50.8862 51.9229 52.49 54.1314 51.7369C57.7108 50.5145 57.6602 44.8322 56.0014 37.3358Z" stroke="#0080FF" stroke-width="3.14995" stroke-miterlimit="10"/>
  <path d="M42.3825 35.169C42.3825 36.1056 41.6232 36.8649 40.6866 36.8649C39.7499 36.8649 38.9906 36.1056 38.9906 35.169C38.9906 34.2323 39.7499 33.473 40.6866 33.473C41.6232 33.473 42.3825 34.2323 42.3825 35.169Z" fill="#0080FF" stroke="#0080FF" stroke-width="0.0984359"/>
  <path d="M44.5264 40.7028C44.1908 40.7028 43.8627 40.6033 43.5838 40.4167C43.3048 40.2302 43.0874 39.9651 42.9592 39.6549C42.8309 39.3448 42.7976 39.0036 42.8634 38.6745C42.9292 38.3454 43.0911 38.0432 43.3287 37.8062C43.5663 37.5692 43.8689 37.408 44.1982 37.343C44.5274 37.2781 44.8685 37.3122 45.1784 37.4413C45.4882 37.5703 45.7528 37.7883 45.9386 38.0678C46.1244 38.3472 46.2232 38.6755 46.2224 39.0111C46.2212 39.4602 46.0421 39.8905 45.7241 40.2076C45.4062 40.5247 44.9755 40.7028 44.5264 40.7028Z" fill="#0080FF" stroke="#0080FF" stroke-width="0.0984359"/>
  <path d="M46.2224 31.3311C46.2224 32.2678 45.4631 33.0271 44.5264 33.0271C43.5898 33.0271 42.8305 32.2678 42.8305 31.3311C42.8305 30.3945 43.5898 29.6352 44.5264 29.6352C45.4631 29.6352 46.2224 30.3945 46.2224 31.3311Z" fill="#0080FF" stroke="#0080FF" stroke-width="0.0984359"/>
  <path d="M50.0612 35.169C50.0612 36.1056 49.3019 36.8649 48.3653 36.8649C47.4286 36.8649 46.6693 36.1056 46.6693 35.169C46.6693 34.2323 47.4286 33.473 48.3653 33.473C49.3019 33.473 50.0612 34.2323 50.0612 35.169Z" fill="#0080FF" stroke="#0080FF" stroke-width="0.0984359"/>
  <path d="M29.1689 30.9805V39.3573M33.3573 35.1689H24.9805" stroke="#0080FF" stroke-width="3.14995" stroke-linecap="round" stroke-linejoin="round"/>
</svg>