<svg width="36" height="36" viewBox="0 0 36 36" fill="none" xmlns="http://www.w3.org/2000/svg">
<path d="M35.0568 0.533051L35.057 0.533193C35.2385 0.688515 35.3843 0.881333 35.4843 1.09838C35.5842 1.31543 35.636 1.55156 35.636 1.79051V25.9353C35.636 27.1469 35.2767 28.3312 34.6036 29.3386C33.9305 30.3459 32.9738 31.1311 31.8545 31.5947C30.7352 32.0583 29.5036 32.1796 28.3153 31.9433C27.127 31.7069 26.0356 31.1235 25.1789 30.2668C24.3222 29.4101 23.7388 28.3187 23.5024 27.1304C23.2661 25.9421 23.3874 24.7105 23.851 23.5912C24.3146 22.4719 25.0998 21.5152 26.1071 20.8421C27.1145 20.169 28.2988 19.8097 29.5103 19.8097C30.4199 19.8135 31.3169 20.0229 32.1342 20.4221L32.3272 20.5164V20.3016V12.8256V12.6693L32.1727 12.693L12.4992 15.7156L12.3854 15.7331V15.8482V29.5124C12.3854 30.7239 12.0261 31.9082 11.3531 32.9156C10.68 33.9229 9.72326 34.7081 8.60395 35.1717C7.48464 35.6353 6.25298 35.7566 5.06472 35.5203C3.87647 35.2839 2.78498 34.7005 1.9283 33.8438C1.07161 32.9872 0.488202 31.8957 0.251843 30.7074C0.0154842 29.5192 0.136792 28.2875 0.600427 27.1682C1.06406 26.0489 1.8492 25.0922 2.85655 24.4191C3.86388 23.746 5.04818 23.3867 6.25968 23.3867C7.16931 23.3905 8.06631 23.5999 8.88366 23.9991L9.07667 24.0934V23.8786V5.36753V5.36736C9.07615 4.97122 9.21779 4.58805 9.47584 4.28749C9.73389 3.98694 10.0912 3.78895 10.4829 3.72953L10.4832 3.72949L33.7333 0.152546C33.7334 0.152534 33.7334 0.152523 33.7335 0.152511C33.9684 0.117206 34.2082 0.132906 34.4365 0.198544C34.6649 0.264204 34.8764 0.378294 35.0568 0.533051ZM32.2135 9.32752L32.3272 9.31004V9.19493V3.88307V3.72717L32.1731 3.75044L12.4995 6.71936L12.3854 6.73658V6.85199V12.2175V12.3738L12.5399 12.3501L32.2135 9.32752ZM4.69479 31.8545C5.15803 32.164 5.70264 32.3293 6.25977 32.3293C7.00686 32.3293 7.72335 32.0325 8.25162 31.5042C8.77989 30.9759 9.07667 30.2594 9.07667 29.5124C9.07667 28.9552 8.91146 28.4106 8.60194 27.9474C8.29241 27.4841 7.85247 27.1231 7.33775 26.9099C6.82303 26.6967 6.25665 26.6409 5.71022 26.7496C5.1638 26.8583 4.66188 27.1266 4.26793 27.5205C3.87398 27.9145 3.60569 28.4164 3.497 28.9628C3.38831 29.5092 3.4441 30.0756 3.6573 30.5903C3.8705 31.1051 4.23155 31.545 4.69479 31.8545ZM27.9454 28.2775C28.4086 28.587 28.9532 28.7522 29.5103 28.7522C30.2574 28.7522 30.9739 28.4555 31.5022 27.9272C32.0305 27.3989 32.3272 26.6824 32.3272 25.9353C32.3272 25.3782 32.162 24.8336 31.8525 24.3704C31.543 23.9071 31.103 23.5461 30.5883 23.3329C30.0736 23.1197 29.5072 23.0639 28.9608 23.1726C28.4144 23.2813 27.9125 23.5496 27.5185 23.9435C27.1246 24.3375 26.8563 24.8394 26.7476 25.3858C26.6389 25.9322 26.6947 26.4986 26.9079 27.0133C27.1211 27.528 27.4821 27.968 27.9454 28.2775Z" fill="#0080FF" stroke="white" stroke-width="0.268276"/>
</svg>
