<svg xmlns="http://www.w3.org/2000/svg" width="73" height="70" viewBox="0 0 76 76" fill="none">
  <path d="M53.361 32.8677L51.9511 31.4578L52.9348 30.4208C53.1985 30.1572 53.3303 29.8614 53.3303 29.5335C53.3303 29.2056 53.1985 28.9098 52.9348 28.6461L47.7971 23.5085C47.5334 23.2448 47.2376 23.1129 46.9097 23.1129C46.5819 23.1129 46.2861 23.2448 46.0224 23.5085L44.9854 24.4921L43.5243 23.031L44.6678 21.8362C45.2689 21.2351 46.006 20.9427 46.879 20.9591C47.7507 20.9768 48.487 21.2863 49.0882 21.8874L54.5558 27.355C55.1569 27.9562 55.4575 28.6844 55.4575 29.5396C55.4575 30.3949 55.1569 31.1231 54.5558 31.7242L53.361 32.8677ZM31.7242 54.5558C31.1231 55.1569 30.3949 55.4575 29.5396 55.4575C28.6844 55.4575 27.9562 55.1569 27.355 54.5558L22.0473 49.248C21.4188 48.6196 21.1046 47.8381 21.1046 46.9036C21.1046 45.9691 21.4188 45.1883 22.0473 44.5612L23.031 43.5755L24.4921 45.0367L23.4962 46.0224C23.2338 46.2861 23.1027 46.5819 23.1027 46.9097C23.1027 47.2376 23.2338 47.5334 23.4962 47.7971L28.6461 52.9471C28.9098 53.2094 29.2056 53.3405 29.5335 53.3405C29.8614 53.3405 30.1572 53.2094 30.4208 52.9471L31.4045 51.9511L32.8677 53.4123L31.7242 54.5558ZM51.6703 40.6122L54.0004 38.2821C54.2627 38.0198 54.3939 37.7178 54.3939 37.3763C54.3939 37.0347 54.2627 36.7328 54.0004 36.4705L39.9728 22.4428C39.7104 22.1805 39.4085 22.0493 39.067 22.0493C38.7254 22.0493 38.4235 22.1805 38.1612 22.4428L35.8311 24.7729C35.5688 25.0352 35.4376 25.331 35.4376 25.6602C35.4376 25.9881 35.5688 26.2832 35.8311 26.5456L49.8977 40.6122C50.16 40.8745 50.4551 41.0056 50.783 41.0056C51.1109 41.0056 51.4067 40.8745 51.6703 40.6122ZM38.2308 54.0517L40.5609 51.7093C40.8232 51.447 40.9544 51.1519 40.9544 50.824C40.9544 50.4961 40.8232 50.2003 40.5609 49.9366L26.5066 35.8823C26.2443 35.62 25.9485 35.4888 25.6193 35.4888C25.2914 35.4888 24.9963 35.62 24.734 35.8823L22.3916 38.2124C22.1293 38.4747 21.9981 38.7766 21.9981 39.1182C21.9981 39.4598 22.1293 39.7617 22.3916 40.024L36.4192 54.0517C36.6815 54.314 36.9835 54.4451 37.325 54.4451C37.6666 54.4451 37.9685 54.314 38.2308 54.0517ZM36.782 43.2435L43.2046 36.8332L39.61 33.2387L33.1997 39.6613L36.782 43.2435ZM39.6551 55.5005C39.0267 56.129 38.25 56.4432 37.325 56.4432C36.4001 56.4432 35.6234 56.129 34.9949 55.5005L20.9427 41.4483C20.3142 40.8198 20 40.0431 20 39.1182C20 38.1933 20.3142 37.4166 20.9427 36.7881L23.2707 34.4211C23.8992 33.7927 24.6807 33.4784 25.6152 33.4784C26.5497 33.4784 27.3305 33.7927 27.9575 34.4211L31.7365 38.2001L38.1612 31.7754L34.3801 28.0088C33.7517 27.3803 33.4375 26.5975 33.4375 25.6602C33.4375 24.7217 33.7517 23.9388 34.3801 23.3117L36.7492 20.9427C37.3776 20.3142 38.1591 20 39.0936 20C40.0281 20 40.8089 20.3142 41.436 20.9427L55.5005 35.0072C56.129 35.6357 56.4432 36.4172 56.4432 37.3517C56.4432 38.2862 56.129 39.067 55.5005 39.6941L53.1315 42.0631C52.503 42.6915 51.7202 43.0058 50.783 43.0058C49.8458 43.0058 49.0629 42.6915 48.4344 42.0631L44.6678 38.2821L38.2431 44.7067L42.0221 48.4857C42.6506 49.1141 42.9648 49.8949 42.9648 50.8281C42.9648 51.7612 42.6506 52.5427 42.0221 53.1725L39.6551 55.5005Z" fill="#0080FF" stroke="#0080FF" stroke-width="0.894253"/>
</svg>
