<svg width="31" height="47" viewBox="0 0 31 47" fill="none" xmlns="http://www.w3.org/2000/svg">
<path fill-rule="evenodd" clip-rule="evenodd" d="M9.49882 32.0702C9.68103 32.022 9.87257 32.0214 10.0551 32.0686C10.2375 32.1157 10.4048 32.209 10.5408 32.3395L14.1121 35.7646C14.2574 35.9042 14.3616 36.0811 14.4131 36.2759C14.4647 36.4708 14.4617 36.676 14.4045 36.8693L13.6252 39.5007C13.4308 40.1577 13.0366 40.7378 12.4974 41.1605L7.39388 45.1571C7.05349 45.4291 6.66257 45.6308 6.24373 45.7508C5.82489 45.8708 5.38643 45.9066 4.95367 45.8561C4.52092 45.8057 4.10246 45.6699 3.72246 45.4568C3.34247 45.2437 3.00848 44.9573 2.7398 44.6144C2.47111 44.2714 2.27306 43.8786 2.15707 43.4586C2.04109 43.0386 2.00948 42.5998 2.06407 42.1676C2.11866 41.7353 2.25837 41.3182 2.47512 40.9402C2.69188 40.5623 2.98137 40.2311 3.32689 39.9657L7.60163 36.6175L8.7261 32.8198C8.77979 32.6391 8.87907 32.4752 9.0144 32.3439C9.14972 32.2127 9.31654 32.1184 9.49882 32.0702ZM10.3221 35.1743L9.60874 37.5782C9.54388 37.7971 9.4125 37.9903 9.23282 38.1311L4.68219 41.6969C4.46049 41.8792 4.31888 42.1409 4.28764 42.4263C4.25639 42.7116 4.33799 42.9978 4.51499 43.2237C4.69199 43.4497 4.95035 43.5974 5.23485 43.6354C5.51935 43.6734 5.80742 43.5986 6.03749 43.427L11.141 39.4292C11.3211 39.2886 11.4529 39.0954 11.518 38.8764L12.1072 36.8868L10.3221 35.1743ZM20.754 9.79349C21.6286 9.79349 22.4673 9.44607 23.0857 8.82766C23.7041 8.20924 24.0516 7.3705 24.0516 6.49593C24.0516 5.62136 23.7041 4.78262 23.0857 4.1642C22.4673 3.54579 21.6286 3.19837 20.754 3.19837C19.8794 3.19837 19.0407 3.54579 18.4223 4.1642C17.8039 4.78262 17.4564 5.62136 17.4564 6.49593C17.4564 7.3705 17.8039 8.20924 18.4223 8.82766C19.0407 9.44607 19.8794 9.79349 20.754 9.79349ZM20.754 11.9919C22.2116 11.9919 23.6095 11.4128 24.6402 10.3821C25.6709 9.35145 26.2499 7.95354 26.2499 6.49593C26.2499 5.03832 25.6709 3.64041 24.6402 2.60972C23.6095 1.57903 22.2116 1 20.754 1C19.2964 1 17.8985 1.57903 16.8678 2.60972C15.8371 3.64041 15.2581 5.03832 15.2581 6.49593C15.2581 7.95354 15.8371 9.35145 16.8678 10.3821C17.8985 11.4128 19.2964 11.9919 20.754 11.9919Z" fill="#0080FF" stroke="#0080FF" stroke-width="0.894253"/>
<path fill-rule="evenodd" clip-rule="evenodd" d="M12.9759 13.285C14.5456 12.7024 16.2317 12.7354 17.7453 13.5191C19.1852 14.2632 20.1602 15.5229 20.7735 16.8397C21.0044 17.3333 21.2154 17.7927 21.4144 18.2236C21.898 19.2722 22.2937 20.1329 22.6729 20.8836C23.2071 21.9466 23.5985 22.5698 23.9436 22.9721C24.2404 23.3161 24.4943 23.4909 24.8218 23.6184C25.2066 23.7701 25.8364 23.9075 26.9565 23.9416C27.7707 23.9659 28.5419 24.3127 29.1004 24.9057C29.6589 25.4986 29.9591 26.2892 29.9347 27.1034C29.9104 27.9176 29.5636 28.6888 28.9706 29.2473C28.3777 29.8059 27.5871 30.106 26.7729 30.0816C25.2813 30.0366 23.8776 29.8453 22.5861 29.3408C21.2363 28.8132 20.1712 28.0075 19.283 26.972C19.1775 26.8492 19.0749 26.7238 18.9753 26.5961L18.5323 28.9088L23.3324 33.6452C23.6391 33.9464 23.8776 34.3091 24.0348 34.7092L26.7652 41.6671C26.9125 42.0425 26.9844 42.4433 26.9768 42.8465C26.9693 43.2498 26.8823 43.6476 26.721 44.0172C26.5597 44.3868 26.3271 44.7211 26.0366 45.0009C25.7461 45.2806 25.4034 45.5004 25.0279 45.6478C24.6525 45.7951 24.2517 45.867 23.8485 45.8594C23.4452 45.8518 23.0474 45.7649 22.6778 45.6036C22.3082 45.4422 21.9739 45.2097 21.6941 44.9192C21.4144 44.6287 21.1945 44.2859 21.0472 43.9105L18.5543 37.5605L9.91579 29.0363C9.5847 28.7097 9.33213 28.3121 9.17713 27.8735C9.02214 27.435 8.96877 26.967 9.02105 26.5049L9.37829 23.3502C8.39781 24.6176 7.57342 26.1421 6.99745 27.9448C6.7498 28.7208 6.20402 29.3667 5.48017 29.7403C4.75632 30.114 3.91369 30.1847 3.13766 29.9371C2.36163 29.6894 1.71575 29.1437 1.34213 28.4198C0.968507 27.696 0.897735 26.8533 1.14538 26.0773C3.08874 19.99 7.48439 15.4053 12.9396 13.2993L12.9462 13.296L12.9759 13.285ZM13.7453 15.3448L13.7278 15.3514C8.91113 17.2124 4.98484 21.2772 3.24043 26.7456C3.20557 26.8548 3.19256 26.9698 3.20214 27.084C3.21173 27.1983 3.24371 27.3095 3.29628 27.4113C3.34884 27.5132 3.42096 27.6037 3.5085 27.6777C3.59605 27.7517 3.69731 27.8077 3.80651 27.8426C3.91571 27.8774 4.03071 27.8905 4.14493 27.8809C4.25916 27.8713 4.37038 27.8393 4.47224 27.7867C4.57411 27.7342 4.66462 27.6621 4.73862 27.5745C4.81261 27.487 4.86864 27.3857 4.9035 27.2765C5.99609 23.8547 7.89878 21.2662 10.1356 19.4393C10.3048 19.3013 10.5113 19.2167 10.7287 19.1965C10.9462 19.1763 11.1647 19.2213 11.3565 19.3258C11.5482 19.4303 11.7045 19.5895 11.8054 19.7832C11.9063 19.9768 11.9472 20.1962 11.9229 20.4132L11.2062 26.7522C11.1914 26.8834 11.2066 27.0163 11.2505 27.1408C11.2945 27.2653 11.3662 27.3783 11.4601 27.4711L20.2646 36.159C20.3745 36.2668 20.4603 36.3965 20.5163 36.5394L23.0939 43.1081C23.1343 43.2168 23.1959 43.3164 23.2752 43.401C23.3545 43.4856 23.4498 43.5536 23.5557 43.601C23.6616 43.6483 23.7758 43.6741 23.8917 43.6768C24.0077 43.6795 24.123 43.6591 24.2309 43.6168C24.3389 43.5744 24.4373 43.5109 24.5205 43.4301C24.6036 43.3493 24.6698 43.2527 24.7152 43.146C24.7606 43.0392 24.7843 42.9246 24.7849 42.8086C24.7854 42.6926 24.7629 42.5777 24.7185 42.4706L21.9881 35.5127C21.9438 35.3988 21.876 35.2954 21.7892 35.2093L16.5703 30.0607C16.4416 29.9339 16.3462 29.7772 16.2925 29.6046C16.2388 29.4321 16.2285 29.249 16.2625 29.0715L17.3408 23.4382C17.3835 23.2141 17.4949 23.0089 17.6594 22.8509C17.824 22.693 18.0337 22.5902 18.2593 22.5567C18.4849 22.5232 18.7154 22.5608 18.9187 22.6642C19.122 22.7676 19.2882 22.9317 19.3941 23.1337C19.8887 24.0757 20.3833 24.8814 20.9505 25.5409C21.6276 26.329 22.4025 26.9083 23.3863 27.293C24.3536 27.6711 25.4803 27.8426 26.8378 27.8833C26.9536 27.8889 27.0694 27.8714 27.1784 27.8318C27.2874 27.7922 27.3874 27.7313 27.4726 27.6526C27.5578 27.5739 27.6264 27.479 27.6745 27.3735C27.7226 27.2679 27.7492 27.1539 27.7527 27.0379C27.7562 26.922 27.7366 26.8065 27.6949 26.6983C27.6533 26.5901 27.5905 26.4912 27.5103 26.4075C27.43 26.3238 27.3338 26.2569 27.2274 26.2108C27.121 26.1647 27.0065 26.1402 26.8905 26.1389C25.6374 26.1015 24.7317 25.9443 24.0216 25.6662C23.3292 25.3958 22.784 24.9957 22.2761 24.4032C21.7529 23.7954 21.2671 22.9809 20.7098 21.8729C20.2662 20.9751 19.8375 20.0699 19.4237 19.1579L19.4182 19.1447C19.2204 18.7139 19.0093 18.2566 18.7807 17.7675C18.3081 16.754 17.6266 15.9318 16.7362 15.4713C15.8261 15.0008 14.7918 14.9568 13.7453 15.3448Z" fill="#0080FF" stroke="#0080FF" stroke-width="0.894253"/>
</svg>
