<svg xmlns="http://www.w3.org/2000/svg" width="76" height="76" viewBox="0 0 76 76" fill="none">
  <path fill-rule="evenodd" clip-rule="evenodd" d="M32.4988 47.0702C32.681 47.022 32.8726 47.0214 33.0551 47.0686C33.2375 47.1157 33.4048 47.209 33.5408 47.3395L37.1121 50.7646C37.2574 50.9042 37.3616 51.0811 37.4131 51.2759C37.4647 51.4708 37.4617 51.676 37.4045 51.8693L36.6252 54.5007C36.4308 55.1577 36.0366 55.7378 35.4974 56.1605L30.3939 60.1571C30.0535 60.4291 29.6626 60.6308 29.2437 60.7508C28.8249 60.8708 28.3864 60.9066 27.9537 60.8561C27.5209 60.8057 27.1025 60.6699 26.7225 60.4568C26.3425 60.2437 26.0085 59.9573 25.7398 59.6144C25.4711 59.2714 25.2731 58.8786 25.1571 58.4586C25.0411 58.0386 25.0095 57.5998 25.0641 57.1676C25.1187 56.7353 25.2584 56.3182 25.4751 55.9402C25.6919 55.5623 25.9814 55.2311 26.3269 54.9657L30.6016 51.6175L31.7261 47.8198C31.7798 47.6391 31.8791 47.4752 32.0144 47.3439C32.1497 47.2127 32.3165 47.1184 32.4988 47.0702ZM33.3221 50.1743L32.6087 52.5782C32.5439 52.7971 32.4125 52.9903 32.2328 53.1311L27.6822 56.6969C27.4605 56.8792 27.3189 57.1409 27.2876 57.4263C27.2564 57.7116 27.338 57.9978 27.515 58.2237C27.692 58.4497 27.9503 58.5974 28.2348 58.6354C28.5193 58.6734 28.8074 58.5986 29.0375 58.427L34.141 54.4292C34.3211 54.2886 34.4529 54.0954 34.518 53.8764L35.1072 51.8868L33.3221 50.1743ZM43.754 24.7935C44.6286 24.7935 45.4673 24.4461 46.0857 23.8277C46.7041 23.2092 47.0516 22.3705 47.0516 21.4959C47.0516 20.6214 46.7041 19.7826 46.0857 19.1642C45.4673 18.5458 44.6286 18.1984 43.754 18.1984C42.8794 18.1984 42.0407 18.5458 41.4223 19.1642C40.8039 19.7826 40.4564 20.6214 40.4564 21.4959C40.4564 22.3705 40.8039 23.2092 41.4223 23.8277C42.0407 24.4461 42.8794 24.7935 43.754 24.7935ZM43.754 26.9919C45.2116 26.9919 46.6095 26.4128 47.6402 25.3821C48.6709 24.3515 49.2499 22.9535 49.2499 21.4959C49.2499 20.0383 48.6709 18.6404 47.6402 17.6097C46.6095 16.579 45.2116 16 43.754 16C42.2964 16 40.8985 16.579 39.8678 17.6097C38.8371 18.6404 38.2581 20.0383 38.2581 21.4959C38.2581 22.9535 38.8371 24.3515 39.8678 25.3821C40.8985 26.4128 42.2964 26.9919 43.754 26.9919Z" fill="#0080FF" stroke="#0080FF" stroke-width="0.894253"/>
  <path fill-rule="evenodd" clip-rule="evenodd" d="M35.9759 28.285C37.5456 27.7024 39.2317 27.7354 40.7453 28.5191C42.1852 29.2632 43.1602 30.5229 43.7735 31.8397C44.0044 32.3333 44.2154 32.7927 44.4144 33.2236C44.898 34.2722 45.2937 35.1329 45.6729 35.8836C46.2071 36.9466 46.5985 37.5698 46.9436 37.9721C47.2404 38.3161 47.4943 38.4909 47.8218 38.6184C48.2066 38.7701 48.8364 38.9075 49.9565 38.9416C50.7707 38.9659 51.5419 39.3127 52.1004 39.9057C52.6589 40.4986 52.9591 41.2892 52.9347 42.1034C52.9104 42.9176 52.5636 43.6888 51.9706 44.2473C51.3777 44.8059 50.5871 45.106 49.7729 45.0816C48.2813 45.0366 46.8776 44.8453 45.5861 44.3408C44.2363 43.8132 43.1712 43.0075 42.283 41.972C42.1775 41.8492 42.0749 41.7238 41.9753 41.5961L41.5323 43.9088L46.3324 48.6452C46.6391 48.9464 46.8776 49.3091 47.0348 49.7092L49.7652 56.6671C49.9125 57.0425 49.9844 57.4433 49.9768 57.8465C49.9693 58.2498 49.8823 58.6476 49.721 59.0172C49.5597 59.3868 49.3271 59.7211 49.0366 60.0009C48.7461 60.2806 48.4034 60.5004 48.0279 60.6478C47.6525 60.7951 47.2517 60.867 46.8485 60.8594C46.4452 60.8518 46.0474 60.7649 45.6778 60.6036C45.3082 60.4422 44.9739 60.2097 44.6941 59.9192C44.4144 59.6287 44.1945 59.2859 44.0472 58.9105L41.5543 52.5605L32.9158 44.0363C32.5847 43.7097 32.3321 43.3121 32.1771 42.8735C32.0221 42.435 31.9688 41.967 32.021 41.5049L32.3783 38.3502C31.3978 39.6176 30.5734 41.1421 29.9974 42.9448C29.7498 43.7208 29.204 44.3667 28.4802 44.7403C27.7563 45.114 26.9137 45.1847 26.1377 44.9371C25.3616 44.6894 24.7158 44.1437 24.3421 43.4198C23.9685 42.696 23.8977 41.8533 24.1454 41.0773C26.0887 34.99 30.4844 30.4053 35.9396 28.2993L35.9462 28.296L35.9759 28.285ZM36.7453 30.3448L36.7278 30.3514C31.9111 32.2124 27.9848 36.2772 26.2404 41.7456C26.2056 41.8548 26.1926 41.9698 26.2021 42.084C26.2117 42.1983 26.2437 42.3095 26.2963 42.4113C26.3488 42.5132 26.421 42.6037 26.5085 42.6777C26.5961 42.7517 26.6973 42.8077 26.8065 42.8426C26.9157 42.8774 27.0307 42.8905 27.1449 42.8809C27.2592 42.8713 27.3704 42.8393 27.4722 42.7867C27.5741 42.7342 27.6646 42.6621 27.7386 42.5745C27.8126 42.487 27.8686 42.3857 27.9035 42.2765C28.9961 38.8547 30.8988 36.2662 33.1356 34.4393C33.3048 34.3013 33.5113 34.2167 33.7287 34.1965C33.9462 34.1763 34.1647 34.2213 34.3565 34.3258C34.5482 34.4303 34.7045 34.5895 34.8054 34.7832C34.9063 34.9768 34.9472 35.1962 34.9229 35.4132L34.2062 41.7522C34.1914 41.8834 34.2066 42.0163 34.2505 42.1408C34.2945 42.2653 34.3662 42.3783 34.4601 42.4711L43.2646 51.159C43.3745 51.2668 43.4603 51.3965 43.5163 51.5394L46.0939 58.1081C46.1343 58.2168 46.1959 58.3164 46.2752 58.401C46.3545 58.4856 46.4498 58.5536 46.5557 58.601C46.6616 58.6483 46.7758 58.6741 46.8917 58.6768C47.0077 58.6795 47.123 58.6591 47.2309 58.6168C47.3389 58.5744 47.4373 58.5109 47.5205 58.4301C47.6036 58.3493 47.6698 58.2527 47.7152 58.146C47.7606 58.0392 47.7843 57.9246 47.7849 57.8086C47.7854 57.6926 47.7629 57.5777 47.7185 57.4706L44.9881 50.5127C44.9438 50.3988 44.876 50.2954 44.7892 50.2093L39.5703 45.0607C39.4416 44.9339 39.3462 44.7772 39.2925 44.6046C39.2388 44.4321 39.2285 44.249 39.2625 44.0715L40.3408 38.4382C40.3835 38.2141 40.4949 38.0089 40.6594 37.8509C40.824 37.693 41.0337 37.5902 41.2593 37.5567C41.4849 37.5232 41.7154 37.5608 41.9187 37.6642C42.122 37.7676 42.2882 37.9317 42.3941 38.1337C42.8887 39.0757 43.3833 39.8814 43.9505 40.5409C44.6276 41.329 45.4025 41.9083 46.3863 42.293C47.3536 42.6711 48.4803 42.8426 49.8378 42.8833C49.9536 42.8889 50.0694 42.8714 50.1784 42.8318C50.2874 42.7922 50.3874 42.7313 50.4726 42.6526C50.5578 42.5739 50.6264 42.479 50.6745 42.3735C50.7226 42.2679 50.7492 42.1539 50.7527 42.0379C50.7562 41.922 50.7366 41.8065 50.6949 41.6983C50.6533 41.5901 50.5905 41.4912 50.5103 41.4075C50.43 41.3238 50.3338 41.2569 50.2274 41.2108C50.121 41.1647 50.0065 41.1402 49.8905 41.1389C48.6374 41.1015 47.7317 40.9443 47.0216 40.6662C46.3292 40.3958 45.784 39.9957 45.2761 39.4032C44.7529 38.7954 44.2671 37.9809 43.7098 36.8729C43.2662 35.9751 42.8375 35.0699 42.4237 34.1579L42.4182 34.1447C42.2204 33.7139 42.0093 33.2566 41.7807 32.7675C41.3081 31.754 40.6266 30.9318 39.7362 30.4713C38.8261 30.0008 37.7918 29.9568 36.7453 30.3448Z" fill="#0080FF" stroke="#0080FF" stroke-width="0.894253"/>
</svg>
