<svg xmlns="http://www.w3.org/2000/svg" width="76" height="76" viewBox="0 0 76 76" fill="none">
  <path d="M55.0568 20.5331L55.057 20.5332C55.2385 20.6885 55.3843 20.8813 55.4843 21.0984C55.5842 21.3154 55.636 21.5516 55.636 21.7905V45.9353C55.636 47.1469 55.2767 48.3312 54.6036 49.3386C53.9305 50.3459 52.9738 51.1311 51.8545 51.5947C50.7352 52.0583 49.5036 52.1796 48.3153 51.9433C47.127 51.7069 46.0356 51.1235 45.1789 50.2668C44.3222 49.4101 43.7388 48.3187 43.5024 47.1304C43.2661 45.9421 43.3874 44.7105 43.851 43.5912C44.3146 42.4719 45.0998 41.5152 46.1071 40.8421C47.1145 40.169 48.2988 39.8097 49.5103 39.8097C50.4199 39.8135 51.3169 40.0229 52.1342 40.4221L52.3272 40.5164V40.3016V32.8256V32.6693L52.1727 32.693L32.4992 35.7156L32.3854 35.7331V35.8482V49.5124C32.3854 50.7239 32.0261 51.9082 31.3531 52.9156C30.68 53.9229 29.7233 54.7081 28.604 55.1717C27.4846 55.6353 26.253 55.7566 25.0647 55.5203C23.8765 55.2839 22.785 54.7005 21.9283 53.8438C21.0716 52.9872 20.4882 51.8957 20.2518 50.7074C20.0155 49.5192 20.1368 48.2875 20.6004 47.1682C21.0641 46.0489 21.8492 45.0922 22.8566 44.4191C23.8639 43.746 25.0482 43.3867 26.2597 43.3867C27.1693 43.3905 28.0663 43.5999 28.8837 43.9991L29.0767 44.0934V43.8786V25.3675V25.3674C29.0761 24.9712 29.2178 24.588 29.4758 24.2875C29.7339 23.9869 30.0912 23.789 30.4829 23.7295L30.4832 23.7295L53.7333 20.1525C53.7334 20.1525 53.7334 20.1525 53.7335 20.1525C53.9684 20.1172 54.2082 20.1329 54.4365 20.1985C54.6649 20.2642 54.8764 20.3783 55.0568 20.5331ZM52.2135 29.3275L52.3272 29.31V29.1949V23.8831V23.7272L52.1731 23.7504L32.4995 26.7194L32.3854 26.7366V26.852V32.2175V32.3738L32.5399 32.3501L52.2135 29.3275ZM24.6948 51.8545C25.158 52.164 25.7026 52.3293 26.2598 52.3293C27.0069 52.3293 27.7233 52.0325 28.2516 51.5042C28.7799 50.9759 29.0767 50.2594 29.0767 49.5124C29.0767 48.9552 28.9115 48.4106 28.6019 47.9474C28.2924 47.4841 27.8525 47.1231 27.3378 46.9099C26.823 46.6967 26.2566 46.6409 25.7102 46.7496C25.1638 46.8583 24.6619 47.1266 24.2679 47.5205C23.874 47.9145 23.6057 48.4164 23.497 48.9628C23.3883 49.5092 23.4441 50.0756 23.6573 50.5903C23.8705 51.1051 24.2316 51.545 24.6948 51.8545ZM47.9454 48.2775C48.4086 48.587 48.9532 48.7522 49.5103 48.7522C50.2574 48.7522 50.9739 48.4555 51.5022 47.9272C52.0305 47.3989 52.3272 46.6824 52.3272 45.9353C52.3272 45.3782 52.162 44.8336 51.8525 44.3704C51.543 43.9071 51.103 43.5461 50.5883 43.3329C50.0736 43.1197 49.5072 43.0639 48.9608 43.1726C48.4144 43.2813 47.9125 43.5496 47.5185 43.9435C47.1246 44.3375 46.8563 44.8394 46.7476 45.3858C46.6389 45.9322 46.6947 46.4986 46.9079 47.0133C47.1211 47.528 47.4821 47.968 47.9454 48.2775Z" fill="#0080FF" stroke="white" stroke-width="0.268276"/>
</svg>
