<svg xmlns="http://www.w3.org/2000/svg" width="76" height="76" viewBox="0 0 76 76" fill="none">
  <path d="M24.6714 24.2686V28.6586M37.4957 24.2686V28.6586M31.085 21V25.39" stroke="#0080FF" stroke-width="3.06601" stroke-linecap="round" stroke-linejoin="round"/>
  <path d="M50.7148 30.893C50.7148 31.6049 50.9976 32.2876 51.501 32.7909C52.0043 33.2943 52.687 33.5771 53.3989 33.5771C54.1107 33.5771 54.7934 33.2943 55.2968 32.7909C55.8001 32.2876 56.0829 31.6049 56.0829 30.893C56.0829 30.1812 55.8001 29.4985 55.2968 28.9951C54.7934 28.4918 54.1107 28.209 53.3989 28.209C52.687 28.209 52.0043 28.4918 51.501 28.9951C50.9976 29.4985 50.7148 30.1812 50.7148 30.893Z" stroke="#0080FF" stroke-width="3.06601" stroke-linecap="round"/>
  <path d="M48.8368 42.3437L49.4326 42.6051C53.5922 44.5725 54.7417 47.1188 54.7417 50.615V51.4526C54.7417 52.198 54.4455 52.9128 53.9185 53.4399C53.3914 53.967 52.6765 54.2631 51.9311 54.2631H22.9773C22.0582 54.2631 21.1954 53.8106 20.8413 52.9618C20.0628 51.0816 19.1578 47.3043 21.5102 42.6051C24.9109 35.8149 33.2778 34.3225 38.6374 37.133L38.8904 37.2623" stroke="#0080FF" stroke-width="3.06601" stroke-linecap="round" stroke-linejoin="round"/>
  <path d="M46.9165 46.0776C49.5246 43.2165 49.6595 39.0934 47.22 36.8731C44.7805 34.6528 40.6912 35.1728 38.0859 38.0339C35.7166 40.6336 35.3878 44.2704 37.1724 46.5778C37.3523 46.8139 37.5575 47.0359 37.7823 47.2383" stroke="#0080FF" stroke-width="3.06601" stroke-linecap="round"/>
  <path d="M51.5485 32.8398L47.3721 37.0135" stroke="#0080FF" stroke-width="3.06601" stroke-linecap="round" stroke-linejoin="round"/>
</svg>
