<svg width="40" height="28" viewBox="0 0 40 28" fill="none" xmlns="http://www.w3.org/2000/svg">
<path fill-rule="evenodd" clip-rule="evenodd" d="M26.9379 7.86321C26.3285 7.48851 25.8349 6.95233 25.5117 6.31414C25.1885 5.67595 25.0484 4.96071 25.1069 4.24775L21.2193 3.56476L21.5544 1.65627L25.757 2.39448C26.1116 1.86854 26.5901 1.4378 27.1502 1.14014C27.7104 0.842494 28.3351 0.687056 28.9694 0.687501H32.2487C32.5781 0.687501 32.8445 0.953914 32.8445 1.2833V7.8419C32.8445 8.17128 32.5772 8.43769 32.2487 8.43769H31.8758V16.4301C33.4003 15.9933 35.0336 16.1478 36.4491 16.8628C37.8647 17.5777 38.9584 18.8005 39.5116 20.2868C39.8139 21.1005 39.4903 21.8436 38.9352 22.2863C38.9831 23.5725 38.5639 24.8325 37.755 25.8337C36.9462 26.8348 35.8024 27.5094 34.5349 27.7328C33.2673 27.9563 31.9618 27.7134 30.8594 27.0492C29.757 26.385 28.9322 25.3442 28.5374 24.1192C28.0133 23.9429 27.5579 23.5477 27.3855 22.9693H16.355C16.2361 24.2947 15.6256 25.5276 14.6435 26.4256C13.6614 27.3235 12.3788 27.8215 11.0481 27.8215C9.71737 27.8215 8.43482 27.3235 7.45271 26.4256C6.47061 25.5276 5.86006 24.2947 5.74115 22.9693H1.33032C1.27218 22.971 1.21427 22.9612 1.15991 22.9405C1.10556 22.9198 1.05581 22.8885 1.01353 22.8486C0.971241 22.8086 0.937242 22.7608 0.913473 22.7077C0.889704 22.6546 0.876631 22.5973 0.875 22.5392C0.875 19.1136 2.8387 16.123 5.75762 14.5216C5.73192 14.4335 5.71887 14.3421 5.71887 14.2503V11.344C5.71887 10.5732 6.02507 9.83397 6.57011 9.28893C7.11515 8.74389 7.85439 8.43769 8.62519 8.43769H17.3442C18.115 8.43769 18.8542 8.74389 19.3992 9.28893C19.9443 9.83397 20.2505 10.5732 20.2505 11.344V14.2503C20.2505 14.5073 20.1484 14.7537 19.9667 14.9354C19.7851 15.117 19.5386 15.2191 19.2817 15.2191V16.1879H25.3269L26.9379 7.86321ZM27.0319 4.5626C27.0319 4.04873 27.236 3.5559 27.5994 3.19254C27.9628 2.82918 28.4556 2.62505 28.9694 2.62505H30.907V6.50014H28.9694C28.4556 6.50014 27.9628 6.29601 27.5994 5.93265C27.236 5.56929 27.0319 5.07647 27.0319 4.5626ZM24.951 18.1254H19.2817V21.0318H24.3891L24.951 18.1254ZM26.3625 21.0318H27.4824C27.8323 19.5542 28.7045 18.253 29.9382 17.3679V8.43769H28.7999L26.3625 21.0318ZM30.5766 24.002C30.9035 24.6554 31.4327 25.1858 32.0853 25.5143C32.7379 25.8427 33.4792 25.9516 34.1987 25.8248C34.9183 25.698 35.5776 25.3422 36.0786 24.8104C36.5796 24.2786 36.8955 23.5992 36.9793 22.8734L30.5766 24.002ZM7.65642 11.344C7.65642 11.0871 7.75848 10.8407 7.94017 10.659C8.12185 10.4773 8.36826 10.3752 8.62519 10.3752H17.3442C17.6011 10.3752 17.8475 10.4773 18.0292 10.659C18.2109 10.8407 18.3129 11.0871 18.3129 11.344V13.2816H7.65642V11.344ZM2.98111 21.0318C3.71738 17.7718 6.79712 15.2191 10.6461 15.2191H17.3442V21.0008C17.3128 21.0228 17.2749 21.0337 17.2366 21.0318H2.98111ZM14.0687 22.9916C14.1908 22.9955 14.3003 22.9993 14.3981 23.0042C14.2746 23.8043 13.8688 24.5338 13.2542 25.0608C12.6396 25.5877 11.8567 25.8774 11.0471 25.8774C10.2375 25.8774 9.45466 25.5877 8.84006 25.0608C8.22546 24.5338 7.81969 23.8043 7.69614 23.0042C7.79398 22.9993 7.90345 22.9945 8.02552 22.9916C8.73854 22.9693 9.70053 22.9693 11.0471 22.9693C12.3928 22.9693 13.3557 22.9693 14.0697 22.9916M36.1112 18.913C35.473 18.466 34.7266 18.1982 33.9497 18.1376C33.1728 18.0769 32.3939 18.2256 31.694 18.5681C30.9941 18.9107 30.3988 19.4345 29.97 20.0852C29.5413 20.7359 29.2948 21.4896 29.2562 22.2679L37.6283 20.7915C37.3097 20.0346 36.7839 19.3841 36.1112 18.913Z" fill="#FF3679"/>
</svg>
