<svg width="36" height="34" viewBox="0 0 36 34" fill="none" xmlns="http://www.w3.org/2000/svg">
<path d="M32.4628 8.50633H21.1854L26.8249 2.86842C27.0714 2.62197 27.2098 2.2877 27.2098 1.93916C27.2098 1.59063 27.0714 1.25636 26.8249 1.00991C26.5785 0.763456 26.2442 0.625 25.8957 0.625C25.5471 0.625 25.2129 0.763456 24.9664 1.00991L18.0151 7.9629L11.0637 1.00991C10.9417 0.887878 10.7968 0.791078 10.6374 0.725035C10.4779 0.658992 10.307 0.625 10.1345 0.625C9.96189 0.625 9.791 0.658992 9.63156 0.725035C9.47212 0.791078 9.32724 0.887878 9.20521 1.00991C8.95876 1.25636 8.8203 1.59063 8.8203 1.93916C8.8203 2.2877 8.95876 2.62197 9.20521 2.86842L14.8448 8.50633H3.5673C2.87061 8.50633 2.20245 8.78309 1.70982 9.27573C1.21719 9.76836 0.94043 10.4365 0.94043 11.1332V30.8347C0.94043 31.5314 1.21719 32.1996 1.70982 32.6922C2.20245 33.1848 2.87061 33.4616 3.5673 33.4616H32.4628C33.1595 33.4616 33.8277 33.1848 34.3203 32.6922C34.813 32.1996 35.0897 31.5314 35.0897 30.8347V11.1332C35.0897 10.4365 34.813 9.76836 34.3203 9.27573C33.8277 8.78309 33.1595 8.50633 32.4628 8.50633ZM3.5673 11.1332H20.6419V30.8347H3.5673V11.1332ZM32.4628 30.8347H23.2688V11.1332H32.4628V30.8347ZM29.836 17.0437C29.836 17.4333 29.7204 17.8142 29.5039 18.1382C29.2875 18.4622 28.9798 18.7147 28.6198 18.8638C28.2598 19.013 27.8636 19.052 27.4815 18.9759C27.0993 18.8999 26.7482 18.7123 26.4727 18.4368C26.1972 18.1612 26.0095 17.8102 25.9335 17.428C25.8575 17.0458 25.8965 16.6497 26.0456 16.2897C26.1948 15.9297 26.4473 15.622 26.7713 15.4055C27.0953 15.189 27.4762 15.0735 27.8658 15.0735C28.3883 15.0735 28.8895 15.2811 29.2589 15.6505C29.6284 16.02 29.836 16.5211 29.836 17.0437ZM29.836 24.9243C29.836 25.3139 29.7204 25.6948 29.5039 26.0188C29.2875 26.3428 28.9798 26.5953 28.6198 26.7444C28.2598 26.8936 27.8636 26.9326 27.4815 26.8566C27.0993 26.7805 26.7482 26.5929 26.4727 26.3174C26.1972 26.0418 26.0095 25.6908 25.9335 25.3086C25.8575 24.9264 25.8965 24.5303 26.0456 24.1703C26.1948 23.8103 26.4473 23.5026 26.7713 23.2861C27.0953 23.0697 27.4762 22.9541 27.8658 22.9541C28.3883 22.9541 28.8895 23.1617 29.2589 23.5312C29.6284 23.9006 29.836 24.4017 29.836 24.9243Z" fill="#FF3679"/>
</svg>
