<svg width="33" height="37" viewBox="0 0 33 37" fill="none" xmlns="http://www.w3.org/2000/svg">
<path d="M25.1732 2.48479V1.90352H24.592H17.2144H16.6331V2.48479V15.7465V17.0395L17.6002 16.1813L20.8745 13.2756L24.2085 16.2025L25.1732 17.0494V15.7657V2.48479ZM15.3364 2.4592V1.87793H14.7552H7.37759H6.79618L6.79632 2.45934L6.80247 27.0513L6.80262 27.6324H7.38373H27.4424C29.2451 27.6324 30.7064 26.1711 30.7064 24.3684V4.2477C30.7064 2.93891 29.6454 1.87793 28.3366 1.87793H27.0511H26.4699V2.4592V18.4775H24.8344L21.2648 15.3436L20.8793 15.0051L20.4955 15.3457L16.9661 18.4775H15.3364V2.4592ZM4.66225 1.87793V1.87792L2.4592 4.68146H1.87793V4.68234V27.657V28.6588L2.74767 28.1616C3.35403 27.815 4.04035 27.6326 4.73879 27.6324C4.73883 27.6324 4.73886 27.6324 4.7389 27.6324H4.92423H5.50563L5.5055 27.051L5.49966 2.45906L5.49952 1.87793H4.91839H4.66225ZM29.9016 28.9291H4.7391C3.16356 28.9291 1.87793 30.2888 1.87793 31.8696C1.87793 32.6882 2.19691 33.4604 2.68784 34.0307C3.17631 34.5981 3.87712 35.01 4.66225 35.01H31.3546C31.7128 35.01 32.0031 35.3003 32.0031 35.6585C32.0031 36.0166 31.7128 36.3069 31.3546 36.3069H4.66225C2.49559 36.3069 0.581264 34.3103 0.581264 31.8699V31.8698V31.8697V31.8697V31.8696V31.8695V31.8695V31.8694V31.8693V31.8692V31.8692V31.8691V31.869V31.869V31.8689V31.8688V31.8688V31.8687V31.8686V31.8686V31.8685V31.8684V31.8684V31.8683V31.8682V31.8681V31.8681V31.868V31.8679V31.8679V31.8678V31.8677V31.8677V31.8676V31.8675V31.8675V31.8674V31.8673V31.8673V31.8672V31.8671V31.8671V31.867V31.8669V31.8668V31.8668V31.8667V31.8666V31.8666V31.8665V31.8664V31.8664V31.8663V31.8662V31.8662V31.8661V31.866V31.866V31.8659V31.8658V31.8657V31.8657V31.8656V31.8655V31.8655V31.8654V31.8653V31.8653V31.8652V31.8651V31.8651V31.865V31.8649V31.8649V31.8648V31.8647V31.8647V31.8646V31.8645V31.8644V31.8644V31.8643V31.8642V31.8642V31.8641V31.864V31.864V31.8639V31.8638V31.8638V31.8637V31.8636V31.8636V31.8635V31.8634V31.8634V31.8633V31.8632V31.8631V31.8631V31.863V31.8629V31.8629V31.8628V31.8627V31.8627V31.8626V31.8625V31.8625V31.8624V31.8623V31.8623V31.8622V31.8621V31.8621V31.862V31.8619V31.8619V31.8618V31.8617V31.8616V31.8616V31.8615V31.8614V31.8614V31.8613V31.8612V31.8612V31.8611V31.861V31.861V31.8609V31.8608V31.8608V31.8607V31.8606V31.8606V31.8605V31.8604V31.8604V31.8603V31.8602V31.8601V31.8601V31.86V31.8599V31.8599V31.8598V31.8597V31.8597V31.8596V31.8595V31.8595V31.8594V31.8593V31.8593V31.8592V31.8591V31.8591V31.859V31.8589V31.8589V31.8588V31.8587V31.8587V31.8586V31.8585V31.8584V31.8584V31.8583V31.8582V31.8582V31.8581V31.858V31.858V31.8579V31.8578V31.8578V31.8577V31.8576V31.8576V31.8575V31.8574V31.8574V31.8573V31.8572V31.8572V31.8571V31.857V31.857V31.8569V31.8568V31.8567V31.8567V31.8566V31.8565V31.8565V31.8564V31.8563V31.8563V31.8562V31.8561V31.8561V31.856V31.8559V31.8559V31.8558V31.8557V31.8557V31.8556V31.8555V31.8555V31.8554V31.8553V31.8553V31.8552V31.8551V31.8551V31.855V31.8549V31.8548V31.8548V31.8547V31.8546V31.8546V31.8545V31.8544V31.8544V31.8543V31.8542V31.8542V31.8541V31.854V31.854V31.8539V31.8538V31.8538V31.8537V31.8536V31.8536V31.8535V31.8534V31.8534V31.8533V31.8532V31.8532V31.8531V31.853V31.8529V31.8529V31.8528V31.8527V31.8527V31.8526V31.8525V31.8525V31.8524V31.8523V31.8523V31.8522V31.8521V31.8521V31.852V31.8519V31.8519V31.8518V31.8517V31.8517V31.8516V31.8515V31.8515V31.8514V31.8513V31.8513V31.8512V31.8511V31.8511V31.851V31.8509V31.8508V31.8508V31.8507V31.8506V31.8506V31.8505V31.8504V31.8504V31.8503V31.8502V31.8502V31.8501V31.85V31.85V31.8499V31.8498V31.8498V31.8497V31.8496V31.8496V31.8495V31.8494V31.8494V31.8493V31.8492V31.8492V31.8491V31.849V31.849V31.8489V31.8488V31.8487V31.8487V31.8486V31.8485V31.8485V31.8484V31.8483V31.8483V31.8482V31.8481V31.8481V31.848V31.8479V31.8479V31.8478V31.8477V31.8477V31.8476V31.8475V31.8475V31.8474V31.8473V31.8473V31.8472V31.8471V31.8471V31.847V31.8469V31.8469V31.8468V31.8467V31.8466V31.8466V31.8465V31.8464V31.8464V31.8463V31.8462V31.8462V31.8461V31.846V31.846V31.8459V31.8458V31.8458V31.8457V31.8456V31.8456V31.8455V31.8454V31.8454V31.8453V31.8452V31.8452V31.8451V31.845V31.845V31.8449V31.8448V31.8448V31.8447V31.8446V31.8446V31.8445V31.8444V31.8443V31.8443V31.8442V31.8441V31.8441V31.844V31.8439V31.8439V31.8438V31.8437V31.8437V31.8436V31.8435V31.8435V31.8434V31.8433V31.8433V31.8432V31.8431V31.8431V31.843V31.8429V31.8429V31.8428V31.8427V31.8427V31.8426V31.8425V31.8425V31.8424V31.8423V31.8422V31.8422V31.8421V31.842V31.842V31.8419V31.8418V31.8418V31.8417V31.8416V31.8416V31.8415V31.8414V31.8414V31.8413V31.8412V31.8412V31.8411V31.841V31.841V31.8409V31.8408V31.8408V31.8407V31.8406V31.8406V31.8405V31.8404V31.8404V31.8403V31.8402V31.8401V31.8401V31.84V31.8399V31.8399V31.8398V31.8397V31.8397V31.8396V31.8395V31.8395V31.8394V31.8393V31.8393V31.8392V31.8391V31.8391V31.839V31.8389V31.8389V31.8388V31.8387V31.8387V31.8386V31.8385V31.8385V31.8384V31.8383V31.8382V31.8382V31.8381V31.838V31.838V31.8379V31.8378V31.8378V31.8377V31.8376V31.8376V31.8375V31.8374V31.8374V31.8373V31.8372V31.8372V31.8371V31.837V31.837V31.8369V31.8368V31.8368V31.8367V31.8366V31.8366V31.8365V31.8364V31.8363V31.8363V31.8362V31.8361V31.8361V31.836V31.8359V31.8359V31.8358V31.8357V31.8357V31.8356V31.8355V31.8355V31.8354V31.8353V31.8353V31.8352V31.8351V31.8351V4.66322C0.584978 3.58178 1.01622 2.54567 1.78095 1.78095C2.54567 1.01622 3.58178 0.584978 4.66322 0.581264H29.0073C30.6618 0.581264 32.0031 1.9225 32.0031 3.57701V26.8276C32.0031 27.9882 31.0622 28.9291 29.9016 28.9291Z" fill="#0080FF" stroke="#0080FF" stroke-width="1.16253"/>
</svg>
