<svg width="37" height="16" viewBox="0 0 37 16" fill="none" xmlns="http://www.w3.org/2000/svg">
<path d="M6.11752 15.2358C4.90714 15.2358 3.8618 14.9843 2.98152 14.4813C2.10648 13.973 1.43317 13.2552 0.961595 12.3277C0.490016 11.395 0.254227 10.2973 0.254227 9.03453C0.254227 7.79271 0.490016 6.70284 0.961595 5.76492C1.43841 4.82176 2.10386 4.08819 2.95794 3.56422C3.81203 3.035 4.81544 2.77039 5.96819 2.77039C6.71224 2.77039 7.41436 2.89091 8.07457 3.13194C8.74002 3.36773 9.32688 3.73451 9.83513 4.23229C10.3486 4.73006 10.7521 5.36408 11.0455 6.13432C11.3389 6.89933 11.4857 7.81104 11.4857 8.86948V9.7419H1.59037V7.82414H8.75836C8.75312 7.27921 8.63523 6.79453 8.40468 6.37011C8.17413 5.94045 7.85188 5.60248 7.43794 5.35622C7.02924 5.10995 6.55242 4.98681 6.00749 4.98681C5.42587 4.98681 4.915 5.12829 4.47486 5.41123C4.03472 5.68894 3.69151 6.05572 3.44524 6.51158C3.20421 6.9622 3.08108 7.45736 3.07584 7.99706V9.67116C3.07584 10.3733 3.20421 10.9759 3.46096 11.4789C3.71771 11.9767 4.07663 12.3592 4.53773 12.6264C4.99883 12.8884 5.53853 13.0194 6.15682 13.0194C6.57076 13.0194 6.9454 12.9617 7.28075 12.8465C7.61609 12.7259 7.9069 12.5504 8.15317 12.3199C8.39944 12.0893 8.58545 11.8037 8.7112 11.4632L11.3678 11.7618C11.2001 12.464 10.8805 13.077 10.4089 13.601C9.94255 14.1197 9.34522 14.5232 8.61689 14.8114C7.88856 15.0943 7.05544 15.2358 6.11752 15.2358ZM19.1833 2.92759V5.12829H12.2432V2.92759H19.1833ZM13.9566 0.0352365H16.8018V11.3688C16.8018 11.7513 16.8594 12.0448 16.9747 12.2491C17.0952 12.4482 17.2524 12.5845 17.4463 12.6578C17.6402 12.7312 17.855 12.7679 18.0908 12.7679C18.2689 12.7679 18.4314 12.7548 18.5781 12.7286C18.73 12.7024 18.8453 12.6788 18.9239 12.6578L19.4033 14.8821C19.2514 14.9345 19.0339 14.9921 18.751 15.055C18.4733 15.1179 18.1327 15.1546 17.7292 15.1651C17.0166 15.186 16.3748 15.0786 15.8036 14.8428C15.2325 14.6018 14.7792 14.2298 14.4439 13.7267C14.1138 13.2237 13.9514 12.5949 13.9566 11.8404V0.0352365ZM25.9613 15.2358C24.7561 15.2358 23.7213 14.9712 22.8567 14.442C21.9974 13.9127 21.3346 13.1818 20.8682 12.2491C20.4071 11.3112 20.1766 10.2318 20.1766 9.01095C20.1766 7.78485 20.4124 6.70284 20.884 5.76492C21.3555 4.82176 22.021 4.08819 22.8803 3.56422C23.7449 3.035 24.7666 2.77039 25.9456 2.77039C26.9254 2.77039 27.7926 2.95116 28.5471 3.31271C29.3069 3.66901 29.9121 4.17465 30.3627 4.82962C30.8133 5.47935 31.0701 6.23912 31.1329 7.10892H28.4135C28.3035 6.5273 28.0415 6.04262 27.6275 5.65488C27.2188 5.2619 26.6713 5.06541 25.9849 5.06541C25.4033 5.06541 24.8924 5.2226 24.4522 5.53699C24.0121 5.84613 23.6689 6.29151 23.4226 6.87313C23.1816 7.45474 23.0611 8.15163 23.0611 8.96379C23.0611 9.78644 23.1816 10.4938 23.4226 11.0859C23.6637 11.6728 24.0016 12.126 24.4365 12.4456C24.8767 12.76 25.3928 12.9172 25.9849 12.9172C26.4041 12.9172 26.7787 12.8386 27.1088 12.6814C27.4441 12.519 27.7245 12.2858 27.9498 11.9819C28.1751 11.678 28.3297 11.3086 28.4135 10.8737H31.1329C31.0648 11.7278 30.8133 12.4849 30.3784 13.1451C29.9435 13.8001 29.3514 14.3136 28.6021 14.6856C27.8528 15.0524 26.9726 15.2358 25.9613 15.2358ZM34.4842 15.1729C34.0073 15.1729 33.5986 15.0052 33.2581 14.6699C32.9175 14.3346 32.7498 13.9258 32.755 13.4438C32.7498 12.9722 32.9175 12.5687 33.2581 12.2334C33.5986 11.8981 34.0073 11.7304 34.4842 11.7304C34.9453 11.7304 35.3461 11.8981 35.6867 12.2334C36.0325 12.5687 36.208 12.9722 36.2133 13.4438C36.208 13.7634 36.1242 14.0542 35.9618 14.3162C35.8046 14.5782 35.595 14.7878 35.333 14.945C35.0762 15.0969 34.7933 15.1729 34.4842 15.1729Z" fill="#0080FF"/>
</svg>
