<svg width="12" height="18" viewBox="0 0 12 18" fill="none" xmlns="http://www.w3.org/2000/svg">
<path fill-rule="evenodd" clip-rule="evenodd" d="M10.7882 1.21916C10.5 0.926907 10.0284 0.926952 9.74033 1.21926L3.03181 8.02552L3.02948 8.02317L2 9.06822L2.00204 9.07029L2 9.07236L3.0332 10.1202L3.03507 10.1183L9.71502 16.8951C10.0022 17.1865 10.4723 17.1865 10.7595 16.8951C11.0408 16.6096 11.0408 16.1511 10.7594 15.8657L4.06481 9.07357L10.7883 2.25215C11.0706 1.96568 11.0706 1.50556 10.7882 1.21916Z" fill="#9397A1"/>
<path d="M9.74033 1.21926L10.2646 1.736L10.2646 1.736L9.74033 1.21926ZM10.7882 1.21916L11.3123 0.70231L11.3123 0.702309L10.7882 1.21916ZM3.03181 8.02552L2.50756 8.54229L3.03183 9.07415L3.55608 8.54227L3.03181 8.02552ZM3.02948 8.02317L3.55373 7.5064L3.02931 6.97439L2.50507 7.50657L3.02948 8.02317ZM2 9.06822L1.47559 8.55162L0.966538 9.06837L1.47574 9.58498L2 9.06822ZM2.00204 9.07029L2.52631 9.58705L3.03565 9.07029L2.52631 8.55354L2.00204 9.07029ZM2 9.07236L1.47574 8.55561L0.966299 9.07246L1.47583 9.58921L2 9.07236ZM3.0332 10.1202L2.50903 10.6371L3.03335 11.1688L3.55752 10.6369L3.0332 10.1202ZM3.03507 10.1183L3.55933 9.60155L3.03501 9.06962L2.51075 9.60161L3.03507 10.1183ZM9.71502 16.8951L9.19077 17.4119L9.19077 17.4119L9.71502 16.8951ZM10.7595 16.8951L10.2352 16.3784L10.2352 16.3784L10.7595 16.8951ZM10.7594 15.8657L10.2352 16.3824L10.2352 16.3824L10.7594 15.8657ZM4.06481 9.07357L3.54054 8.55682L3.03121 9.07357L3.54054 9.59031L4.06481 9.07357ZM10.7883 2.25215L10.264 1.7354L10.7883 2.25215ZM10.2646 1.736L10.264 1.736L11.3123 0.702309C10.7358 0.117646 9.79244 0.117733 9.21605 0.702513L10.2646 1.736ZM3.55608 8.54227L10.2646 1.736L9.21605 0.702513L2.50754 7.50878L3.55608 8.54227ZM2.50524 8.53994L2.50756 8.54229L3.55605 7.50875L3.55373 7.5064L2.50524 8.53994ZM2.52442 9.58482L3.5539 8.53977L2.50507 7.50657L1.47559 8.55162L2.52442 9.58482ZM2.52631 8.55354L2.52427 8.55147L1.47574 9.58498L1.47778 9.58705L2.52631 8.55354ZM2.52427 9.58912L2.52631 9.58705L1.47778 8.55354L1.47574 8.55561L2.52427 9.58912ZM3.55737 9.60336L2.52417 8.55552L1.47583 9.58921L2.50903 10.6371L3.55737 9.60336ZM2.51075 9.60161L2.50888 9.60351L3.55752 10.6369L3.55939 10.635L2.51075 9.60161ZM10.2393 16.3784L3.55933 9.60155L2.51082 10.6351L9.19077 17.4119L10.2393 16.3784ZM10.2352 16.3784C10.2345 16.3791 10.2351 16.3784 10.2365 16.3778C10.2374 16.3774 10.2376 16.3775 10.2372 16.3775C10.2368 16.3775 10.237 16.3774 10.2379 16.3778C10.2394 16.3784 10.24 16.3791 10.2393 16.3784L9.19077 17.4119C9.76629 17.9958 10.7083 17.9957 11.2838 17.4118L10.2352 16.3784ZM10.2352 16.3824C10.2358 16.3831 10.2351 16.3824 10.2346 16.3811C10.2343 16.3803 10.2344 16.38 10.2344 16.3804C10.2344 16.3808 10.2343 16.3805 10.2346 16.3797C10.2351 16.3783 10.2358 16.3777 10.2352 16.3784L11.2838 17.4118C11.8476 16.8397 11.8475 15.921 11.2837 15.3489L10.2352 16.3824ZM3.54054 9.59031L10.2352 16.3824L11.2837 15.3489L4.58908 8.55682L3.54054 9.59031ZM10.264 1.7354L3.54054 8.55682L4.58908 9.59031L11.3125 2.76889L10.264 1.7354ZM10.264 1.736L10.264 1.7354L11.3125 2.76889C11.8774 2.19579 11.8773 1.27529 11.3123 0.70231L10.264 1.736Z" fill="#848C99"/>
</svg>
