<svg xmlns="http://www.w3.org/2000/svg" width="67" height="12" viewBox="0 0 67 12" fill="none">
  <path opacity="0.35" d="M42.832 3.0026C42.832 1.80599 43.8021 0.835938 44.9987 0.835938H61.6654C62.862 0.835938 63.832 1.80599 63.832 3.0026V9.00261C63.832 10.1992 62.862 11.1693 61.6654 11.1693H44.9987C43.8021 11.1693 42.832 10.1992 42.832 9.0026V3.0026Z" fill="#202842" stroke="white"/>
  <path opacity="0.4" d="M65.332 4.00391V8.00391C66.1368 7.66513 66.6601 6.87704 66.6601 6.00391C66.6601 5.13077 66.1368 4.34268 65.332 4.00391Z" fill="#202842"/>
  <path d="M44.332 3.43594C44.332 2.82842 44.8245 2.33594 45.432 2.33594H61.232C61.8395 2.33594 62.332 2.82842 62.332 3.43594V8.56927C62.332 9.17678 61.8395 9.66927 61.232 9.66927H45.432C44.8245 9.66927 44.332 9.17678 44.332 8.56927V3.43594Z" fill="#202842"/>
  <path fill-rule="evenodd" clip-rule="evenodd" d="M29.6639 2.60936C31.8798 2.60946 34.011 3.46089 35.617 4.98769C35.7379 5.10557 35.9312 5.10408 36.0503 4.98436L37.2063 3.81769C37.2666 3.75697 37.3002 3.67472 37.2997 3.58914C37.2992 3.50356 37.2646 3.4217 37.2036 3.36169C32.9885 -0.677855 26.3387 -0.677855 22.1236 3.36169C22.0626 3.42166 22.0279 3.50349 22.0274 3.58907C22.0268 3.67465 22.0604 3.75693 22.1206 3.81769L23.2769 4.98436C23.396 5.10426 23.5894 5.10575 23.7103 4.98769C25.3164 3.46079 27.4478 2.60935 29.6639 2.60936ZM29.6639 6.40503C30.8814 6.40495 32.0555 6.85748 32.9579 7.67469C33.08 7.79067 33.2723 7.78816 33.3913 7.66903L34.5459 6.50236C34.6068 6.44116 34.6405 6.35815 34.6396 6.27188C34.6387 6.18562 34.6033 6.1033 34.5413 6.04336C31.7931 3.48698 27.5371 3.48698 24.7889 6.04336C24.7269 6.1033 24.6915 6.18566 24.6906 6.27195C24.6898 6.35824 24.7237 6.44125 24.7846 6.50236L25.9389 7.66903C26.0579 7.78816 26.2502 7.79067 26.3723 7.67469C27.2742 6.85802 28.4473 6.40553 29.6639 6.40503ZM31.9769 8.95884C31.9787 9.04535 31.9447 9.12875 31.8829 9.18936L29.8856 11.205C29.8271 11.2643 29.7472 11.2976 29.6639 11.2976C29.5807 11.2976 29.5008 11.2643 29.4423 11.205L27.4446 9.18936C27.3829 9.12871 27.349 9.04528 27.3508 8.95877C27.3526 8.87226 27.3901 8.79035 27.4543 8.73236C28.7299 7.65347 30.598 7.65347 31.8736 8.73236C31.9378 8.79039 31.9752 8.87234 31.9769 8.95884Z" fill="#202842"/>
  <path fill-rule="evenodd" clip-rule="evenodd" d="M16 0.667969H15C14.4477 0.667969 14 1.11568 14 1.66797V10.3346C14 10.8869 14.4477 11.3346 15 11.3346H16C16.5523 11.3346 17 10.8869 17 10.3346V1.66797C17 1.11568 16.5523 0.667969 16 0.667969ZM10.3333 3.0013H11.3333C11.8856 3.0013 12.3333 3.44902 12.3333 4.0013V10.3346C12.3333 10.8869 11.8856 11.3346 11.3333 11.3346H10.3333C9.78105 11.3346 9.33333 10.8869 9.33333 10.3346V4.0013C9.33333 3.44902 9.78105 3.0013 10.3333 3.0013ZM6.66667 5.33464H5.66667C5.11438 5.33464 4.66667 5.78235 4.66667 6.33464V10.3346C4.66667 10.8869 5.11438 11.3346 5.66667 11.3346H6.66667C7.21895 11.3346 7.66667 10.8869 7.66667 10.3346V6.33464C7.66667 5.78235 7.21895 5.33464 6.66667 5.33464ZM2 7.33464H1C0.447715 7.33464 0 7.78235 0 8.33464V10.3346C0 10.8869 0.447715 11.3346 1 11.3346H2C2.55228 11.3346 3 10.8869 3 10.3346V8.33464C3 7.78235 2.55228 7.33464 2 7.33464Z" fill="#202842"/>
</svg>