<svg width="25" height="25" viewBox="0 0 25 25" fill="none" xmlns="http://www.w3.org/2000/svg">
<path d="M11.8102 2.27065L12.4997 2.92751L13.1895 2.27091L14.3733 1.14394C14.3734 1.1439 14.3734 1.14386 14.3735 1.14383C14.5098 1.0143 14.7495 0.956646 14.9974 1.03528C15.1133 1.07205 15.1844 1.12636 15.2172 1.1637C15.2425 1.19254 15.2425 1.20504 15.2425 1.21746V2.74241C15.2425 3.8747 16.0457 4.74445 17.0364 5.10785L17.0363 5.10793L17.0483 5.11215C21.2271 6.58509 24 9.96612 24 13.742C24 18.1787 20.146 22.0965 14.7124 22.9625L13.8697 23.0968V23.9204C13.8679 23.9221 13.8658 23.9239 13.8633 23.9259C13.8253 23.9575 13.7415 24 13.6172 24H11.4529C11.3287 24 11.2448 23.9575 11.2068 23.9259C11.2044 23.9239 11.2023 23.9221 11.2004 23.9204V23.1027L10.3598 22.967C4.95843 22.0948 1 18.0696 1 13.7337C1 9.9565 3.77448 6.58316 7.95546 5.11057L7.9567 5.11013C8.44878 4.93608 8.89608 4.63681 9.22571 4.22513C9.55769 3.81051 9.75341 3.30074 9.75749 2.75826L9.75751 2.75826V2.75074V1.21746C9.75751 1.20504 9.75754 1.19253 9.78286 1.16366C9.81564 1.12629 9.8868 1.07193 10.0028 1.03512C10.2507 0.956434 10.4903 1.01396 10.6265 1.143C10.6267 1.14315 10.6269 1.1433 10.627 1.14344L11.8102 2.27065ZM11.189 23.9084C11.189 23.9084 11.1892 23.9088 11.1897 23.9094L11.189 23.9084Z" stroke="#434855" stroke-width="2"/>
<ellipse cx="10" cy="11.5" rx="1" ry="1.5" fill="#434855"/>
<ellipse cx="15" cy="11.5" rx="1" ry="1.5" fill="#434855"/>
</svg>
