<svg width="22" height="23" viewBox="0 0 22 23" fill="none" xmlns="http://www.w3.org/2000/svg">
<rect x="10.9453" y="17.5195" width="0.01" height="0.01" stroke="#9397A1" stroke-width="2" stroke-linejoin="round"/>
<path d="M19.149 5.25781H2.06759C1.47798 5.25781 1 5.73579 1 6.3254V20.204C1 20.7936 1.47798 21.2716 2.06759 21.2716H19.149C19.7386 21.2716 20.2166 20.7936 20.2166 20.204V6.3254C20.2166 5.73579 19.7386 5.25781 19.149 5.25781Z" stroke="#9397A1" stroke-width="1.7" stroke-linejoin="round"/>
<path d="M1 5.78988L4.73656 1.51953H16.48L20.2166 5.78988" stroke="#9397A1" stroke-width="1.7" stroke-linecap="round" stroke-linejoin="round"/>
<path d="M9.44516 9.93374C9.83479 9.54412 10.3452 9.34886 10.8558 9.34796C11.3689 9.34706 11.8822 9.54232 12.2736 9.93374C12.6641 10.3243 12.8594 10.8361 12.8594 11.348C12.8594 11.8598 12.6641 12.3716 12.2736 12.7622C11.8822 13.1536 11.3689 13.3489 10.8558 13.348L10.8558 15.0195" stroke="#9397A1" stroke-width="1.7" stroke-linecap="round" stroke-linejoin="round"/>
</svg>
