<svg width="350" height="50" viewBox="0 0 350 50" fill="none" xmlns="http://www.w3.org/2000/svg">
<rect width="350" height="50" rx="7" fill="#FAE300"/>
<g clip-path="url(#clip0_81_3771)">
<path d="M49.0004 16C43.4774 16 39.002 19.4673 39.002 23.7447C39.002 26.5289 40.8991 28.9685 43.7458 30.3337C43.5386 31.099 42.9884 33.1058 42.8786 33.5346C42.7433 34.0675 43.078 34.0604 43.2971 33.9168C43.4691 33.8046 46.0376 32.0943 47.1458 31.3559C47.7603 31.4451 48.3807 31.4898 49.002 31.4898C54.5249 31.4898 59.0004 28.0215 59.0004 23.7447C59.0004 19.4678 54.5234 16 49.002 16" fill="#391B1B"/>
</g>
<path d="M94.1828 30.5V19.1875H96.2141V24.3906H96.3703L100.792 19.1875H103.277L98.9016 24.2656L103.323 30.5H100.87L97.4797 25.6406L96.2141 27.125V30.5H94.1828ZM103.449 28.1094C103.449 26.2031 105.035 25.6484 106.605 25.5469C107.199 25.5 108.41 25.4453 108.785 25.4297L108.777 24.75C108.777 23.9062 108.238 23.4219 107.246 23.4219C106.355 23.4219 105.808 23.8281 105.652 24.4375H103.73C103.871 22.9922 105.168 21.9062 107.293 21.9062C108.902 21.9062 110.762 22.5703 110.762 24.8281V30.5H108.855V29.3281H108.793C108.418 30.0469 107.629 30.6719 106.293 30.6719C104.676 30.6719 103.449 29.7891 103.449 28.1094ZM105.371 28.0938C105.371 28.8281 105.973 29.2031 106.808 29.2031C108.019 29.2031 108.793 28.4062 108.793 27.4531L108.785 26.7578C108.426 26.7734 107.316 26.8438 106.918 26.875C105.973 26.9531 105.371 27.3516 105.371 28.0938ZM111.997 30.5V19.1875H113.997V25.4219H114.137L117.184 22.0156H119.512L116.223 25.6719L119.715 30.5H117.34L114.731 26.8594L113.997 27.6406V30.5H111.997ZM119.669 28.1094C119.669 26.2031 121.255 25.6484 122.825 25.5469C123.419 25.5 124.63 25.4453 125.005 25.4297L124.997 24.75C124.997 23.9062 124.458 23.4219 123.466 23.4219C122.575 23.4219 122.028 23.8281 121.872 24.4375H119.95C120.091 22.9922 121.388 21.9062 123.513 21.9062C125.122 21.9062 126.982 22.5703 126.982 24.8281V30.5H125.075V29.3281H125.013C124.638 30.0469 123.849 30.6719 122.513 30.6719C120.896 30.6719 119.669 29.7891 119.669 28.1094ZM121.591 28.0938C121.591 28.8281 122.193 29.2031 123.028 29.2031C124.239 29.2031 125.013 28.4062 125.013 27.4531L125.005 26.7578C124.646 26.7734 123.536 26.8438 123.138 26.875C122.193 26.9531 121.591 27.3516 121.591 28.0938ZM131.92 30.6719C129.443 30.6719 127.857 28.9141 127.857 26.2969C127.857 23.6562 129.443 21.9062 131.92 21.9062C134.404 21.9062 135.99 23.6562 135.982 26.2969C135.99 28.9141 134.404 30.6719 131.92 30.6719ZM129.873 26.2812C129.873 27.8359 130.553 29.0781 131.935 29.0781C133.295 29.0781 133.974 27.8359 133.967 26.2812C133.974 24.7266 133.295 23.4766 131.935 23.4844C130.553 23.4766 129.873 24.7266 129.873 26.2812ZM149.311 28.8125V30.25H136.405V28.8125H141.967V26.5156H137.936V21.8906H146.061V20.1406H137.905V18.7344H147.78V23.2656H139.67V25.0938H148.108V26.5156H143.686V28.8125H149.311ZM157.328 30.6562C154.914 30.6562 153.187 29.3438 153.14 27.4375H155.187C155.242 28.3438 156.148 28.9453 157.328 28.9375C158.57 28.9453 159.468 28.2578 159.468 27.25C159.468 26.2344 158.593 25.5078 157.125 25.5H156.109V23.9375H157.125C158.328 23.9375 159.164 23.2656 159.156 22.2812C159.164 21.3281 158.445 20.6875 157.343 20.6875C156.281 20.6875 155.367 21.2812 155.328 22.2344H153.375C153.422 20.3359 155.148 19.0312 157.359 19.0312C159.656 19.0312 161.14 20.4375 161.125 22.1719C161.14 23.4375 160.297 24.3516 159.062 24.6094V24.7031C160.656 24.9141 161.562 25.9375 161.547 27.3594C161.562 29.2734 159.773 30.6562 157.328 30.6562ZM175.125 28.7969V30.2188H162.219V28.7969H167.797V25.875H169.516V28.7969H175.125ZM162.75 25C165.813 24.6016 167.649 22.9766 167.774 21.2188H163.36V19.8125H167.797V17.9844H169.516V19.8125H173.969V21.2188H169.555C169.672 22.9766 171.508 24.6016 174.563 25L173.922 26.3594C171.485 26.0156 169.594 24.9297 168.657 23.3906C167.727 24.9297 165.852 26.0156 163.407 26.3594L162.75 25ZM182.579 18.9844V25.6562H175.892V18.9844H182.579ZM177.501 31.6094V27.0781H179.235V30.2031H187.11V31.6094H177.501ZM177.595 24.2812H180.876V20.375H177.595V24.2812ZM184.813 28.0781V17.7656H186.548V21.9062H188.517V23.3594H186.548V28.0781H184.813ZM200.783 17.7656V31.8906H199.111V17.7656H200.783ZM188.736 23.875C188.736 20.7656 189.939 18.8359 191.783 18.8438C193.494 18.8359 194.658 20.4375 194.861 23.0781H196.22V18.0156H197.877V31.2031H196.22V24.4844H194.877C194.713 27.2422 193.533 28.9297 191.783 28.9219C189.939 28.9297 188.736 26.9922 188.736 23.875ZM190.345 23.875C190.338 26.0859 190.884 27.2734 191.783 27.2656C192.72 27.2734 193.275 26.0859 193.283 23.875C193.275 21.6719 192.72 20.4766 191.783 20.4844C190.884 20.4766 190.338 21.6719 190.345 23.875ZM210.284 21.1562C210.268 23.75 211.636 26.3438 213.925 27.3281L212.893 28.7188C211.268 27.9688 210.081 26.4766 209.425 24.6328C208.776 26.6172 207.558 28.2422 205.847 29.0469L204.784 27.5938C207.136 26.5781 208.511 23.8828 208.518 21.1562V18.9062H210.284V21.1562ZM214.94 31.9062V17.7656H216.69V31.9062H214.94ZM223.191 20.2188C223.191 21.9609 224.308 23.6719 226.535 24.4062L225.66 25.75C224.074 25.2188 222.957 24.1641 222.339 22.8438C221.714 24.2891 220.543 25.4375 218.894 26L217.972 24.6562C220.246 23.8984 221.441 22.0703 221.441 20.2188V20.0469H218.457V18.6562H226.128V20.0469H223.191V20.2188ZM219.863 28.3281V26.9375H229.269V31.8906H227.535V28.3281H219.863ZM227.535 26.2812V17.7656H229.269V21.2969H231.238V22.75H229.269V26.2812H227.535ZM242.379 17.7656V23.3906H244.551V24.8281H242.379V31.8906H240.66V17.7656H242.379ZM231.238 21.3281V19.9375H234.582V17.9688H236.317V19.9375H239.567V21.3281H231.238ZM231.895 25.5781C231.879 23.625 233.395 22.2422 235.457 22.25C237.488 22.2422 238.996 23.625 239.004 25.5781C238.996 27.5234 237.488 28.8906 235.457 28.8906C233.395 28.8906 231.879 27.5234 231.895 25.5781ZM233.551 25.5781C233.543 26.7266 234.348 27.4609 235.457 27.4531C236.543 27.4609 237.332 26.7266 237.348 25.5781C237.332 24.4297 236.543 23.6719 235.457 23.6719C234.348 23.6719 233.543 24.4297 233.551 25.5781ZM256.302 17.7656V31.8906H254.552V17.7656H256.302ZM244.598 28C248.302 26.2422 250.005 23.8516 250.317 20.6406H245.317V19.2656H252.083C252.083 23.4688 250.45 27.0391 245.505 29.3906L244.598 28Z" fill="#391B1B"/>
<defs>
<clipPath id="clip0_81_3771">
<rect width="20" height="18" fill="white" transform="translate(39 16)"/>
</clipPath>
</defs>
</svg>
