<svg width="129" height="32" viewBox="0 0 129 32" fill="none" xmlns="http://www.w3.org/2000/svg">
<path fill-rule="evenodd" clip-rule="evenodd" d="M8.94333 4.71169C8.41035 4.71169 7.97829 5.14375 7.97829 5.67673V11.5674C7.97829 12.5924 7.1474 13.4232 6.12245 13.4232C5.09749 13.4232 4.2666 12.5924 4.2666 11.5674V5.67673C4.2666 3.09384 6.36044 1 8.94333 1H20.2269C22.8098 1 24.9036 3.09384 24.9036 5.67673V14.3468C24.9036 16.9297 22.8098 19.0235 20.2269 19.0235H17.406C16.873 19.0235 16.4409 19.4556 16.4409 19.9886V24.0125C16.4409 25.0374 15.6101 25.8683 14.5851 25.8683C13.5601 25.8683 12.7293 25.0374 12.7293 24.0125V19.9886C12.7293 17.4057 14.8231 15.3118 17.406 15.3118H20.2269C20.7598 15.3118 21.1919 14.8798 21.1919 14.3468V5.67673C21.1919 5.14375 20.7598 4.71169 20.2269 4.71169H8.94333Z" fill="#0080FF"/>
<path d="M100.703 25.1594V25.3821H100.926H109.452C112.683 25.3821 115.931 25.3015 118.667 24.8159C119.236 24.715 119.632 24.215 119.632 23.6476C119.632 22.8744 118.921 22.3104 118.174 22.4298C115.568 22.846 112.517 22.9192 109.452 22.9192H103.557V4.65851C103.557 3.87055 102.918 3.23179 102.13 3.23179C101.342 3.23179 100.703 3.87055 100.703 4.65851V25.1594ZM120.814 29.4223C120.814 30.2103 121.452 30.849 122.24 30.849C123.028 30.849 123.667 30.2103 123.667 29.4223V14.9039H126.959C127.657 14.9039 128.223 14.338 128.223 13.6399C128.223 12.9418 127.657 12.3758 126.959 12.3758H123.667V2.90129C123.667 2.11333 123.028 1.47456 122.24 1.47456C121.452 1.47456 120.814 2.11333 120.814 2.90129V29.4223Z" fill="#0080FF" stroke="#0080FF" stroke-width="0.445403"/>
<path d="M89.693 29.4223C89.693 30.2103 90.3317 30.849 91.1197 30.849C91.9077 30.849 92.5464 30.2103 92.5464 29.4223V2.90129C92.5464 2.11333 91.9077 1.47456 91.1197 1.47456C90.3317 1.47456 89.693 2.11333 89.693 2.90129V29.4223ZM67.0122 25.0674C66.6652 26.0094 67.3623 27.0092 68.3662 27.0092C68.9722 27.0092 69.5136 26.6306 69.7215 26.0614L76.7643 6.78479L83.4388 25.898C83.6371 26.466 84.173 26.8465 84.7746 26.8465C85.7531 26.8465 86.4362 25.8772 86.1072 24.9557L78.8295 4.57255C78.5076 3.67095 77.6537 3.06908 76.6963 3.06908C75.7473 3.06908 74.8989 3.66065 74.5709 4.55114L67.0122 25.0674Z" fill="#0080FF" stroke="#0080FF" stroke-width="0.445403"/>
<path d="M50.0853 11.2224L50.0845 11.2217C48.5739 9.97972 46.4062 9.25114 44.0206 9.25114C41.6028 9.25114 39.4349 9.9795 37.9241 11.2217L37.9233 11.2224C36.3424 12.5343 35.4673 14.322 35.4673 16.5678V20.0172C35.4673 22.2949 36.3419 24.0829 37.9233 25.3951L37.9241 25.3958C39.4366 26.6394 41.6053 27.3338 44.0206 27.3338C46.4037 27.3338 48.5723 26.6391 50.0845 25.3958L50.0853 25.3951C51.6648 24.0845 52.5738 22.2974 52.5738 20.0172V16.5678C52.5738 14.3195 51.6643 12.5326 50.0853 11.2224ZM35.5273 5.18349C34.8472 5.18349 34.2959 5.73485 34.2959 6.41497C34.2959 7.0951 34.8472 7.64645 35.5273 7.64645H52.5138C53.1939 7.64645 53.7453 7.0951 53.7453 6.41497C53.7453 5.73485 53.1939 5.18349 52.5138 5.18349H45.4798V2.60766C45.4798 1.80173 44.8265 1.14839 44.0206 1.14839C43.2146 1.14839 42.5613 1.80173 42.5613 2.60766V5.18349H35.5273ZM55.9683 29.4216C55.9683 30.2095 56.607 30.8483 57.395 30.8483C58.1829 30.8483 58.8217 30.2095 58.8217 29.4216V16.7254H62.1134C62.8115 16.7254 63.3775 16.1595 63.3775 15.4614C63.3775 14.7633 62.8115 14.1974 62.1134 14.1974H58.8217V2.90053C58.8217 2.11257 58.1829 1.4738 57.395 1.4738C56.607 1.4738 55.9683 2.11257 55.9683 2.90053V29.4216ZM44.0206 24.8709C42.1589 24.8709 40.7381 24.3384 39.7844 23.4388C38.8319 22.5402 38.3208 21.2525 38.3208 19.6918V16.8932C38.3208 15.366 38.8313 14.0774 39.7851 13.17C40.7396 12.2618 42.1607 11.7141 44.0206 11.7141C45.8638 11.7141 47.2852 12.2616 48.2442 13.1703C49.2023 14.0782 49.7204 15.3669 49.7204 16.8932V19.6918C49.7204 21.2515 49.2017 22.5395 48.2449 23.4385C47.2867 24.3387 45.8655 24.8709 44.0206 24.8709Z" fill="#0080FF" stroke="#0080FF" stroke-width="0.445403"/>
<path fill-rule="evenodd" clip-rule="evenodd" d="M0.196333 25.7802C0.654707 24.8635 1.76946 24.4919 2.68621 24.9502C4.07172 25.643 8.3381 27.7237 14.476 27.7237C20.6139 27.7237 24.8803 25.643 26.2658 24.9502C27.1825 24.4919 28.2973 24.8635 28.7557 25.7802C29.214 26.6969 28.8424 27.8117 27.9257 28.2701C26.3419 29.062 21.4626 31.4354 14.476 31.4354C7.48936 31.4354 2.61014 29.062 1.02629 28.2701C0.109545 27.8117 -0.26204 26.6969 0.196333 25.7802Z" fill="#0080FF"/>
</svg>
